<?xml version="1.0" encoding="utf-8"?>
<!-- Generator: Adobe Illustrator 27.5.0, SVG Export Plug-In . SVG Version: 6.00 Build 0)  -->
<svg version="1.1" xmlns="http://www.w3.org/2000/svg" xmlns:xlink="http://www.w3.org/1999/xlink" x="0px" y="0px"
	 viewBox="0 0 750 500" style="enable-background:new 0 0 750 500;" xml:space="preserve">
<g id="BACKGROUND">
	<rect style="fill:#FFFFFF;" width="750" height="500"/>
</g>
<g id="OBJECTS">
	<g>
		<g>
			<path style="fill:#EDEBFC;" d="M274.758,421.615c-88.054-47.696-163.172-145.436-70.945-227.022s244.759-131.247,312.156-67.397
				c67.397,63.85,31.925,99.322,111.738,125.926c79.813,26.604,67.397,164.946-74.492,182.682
				C411.326,453.54,317.324,444.672,274.758,421.615z"/>
			<g>
				<g>
					<g>
						<g>
							<g>
								<path style="fill:none;stroke:#ACA9FF;stroke-width:1.8745;stroke-linecap:round;stroke-miterlimit:10;" d="M497.42,143.734
									c-0.518-0.86-1.049-1.703-1.592-2.527"/>
								
									<path style="fill:none;stroke:#ACA9FF;stroke-width:1.8745;stroke-linecap:round;stroke-miterlimit:10;stroke-dasharray:5.9086,5.9086;" d="
									M492.352,136.425c-2.387-2.97-4.992-5.599-7.834-7.796c-16.408-12.684-34.659-14.032-48.581-9.687
									c-13.922,4.345-23.515,14.382-22.607,24.467c0.996,11.052,24.39,9.211,35.497-6.65
									c10.826-15.46,20.868-63.206-51.068-82.054"/>
								<path style="fill:none;stroke:#ACA9FF;stroke-width:1.8745;stroke-linecap:round;stroke-miterlimit:10;" d="M394.897,53.982
									c-0.955-0.233-1.924-0.461-2.907-0.684"/>
							</g>
						</g>
						<g>
							<polygon style="fill:#514FF1;" points="344.397,45.904 368.373,59.951 373.885,53.202 383.242,54.402 381.517,43.858 
								388.562,35.231 							"/>
							<polygon style="fill:#ACA9FF;" points="373.885,53.202 383.242,54.402 377.343,49.143 							"/>
							<polygon style="fill:#ACA9FF;" points="377.343,49.143 373.885,53.202 368.373,59.951 344.397,45.904 							"/>
						</g>
					</g>
					<g>
						<path style="fill:#ACA9FF;" d="M495.004,56.061h-18.051v-7.736c0-7.121,5.773-12.894,12.894-12.894l0,0
							c7.121,0,12.894,5.773,12.894,12.894l0,0C502.74,52.597,499.276,56.061,495.004,56.061z"/>
						<path style="fill:#ACA9FF;" d="M481.255,56.061h-13.473v-5.774c0-5.315,4.309-9.623,9.623-9.623l0,0
							c5.315,0,9.623,4.308,9.623,9.623l0,0C487.029,53.476,484.444,56.061,481.255,56.061z"/>
						<path style="fill:#ACA9FF;" d="M493.06,56.061h-26.173c-3.168,0-5.737-2.568-5.737-5.737l0,0c0-3.168,2.568-5.737,5.737-5.737
							h26.173V56.061z"/>
					</g>
					<g>
						<path style="fill:#ACA9FF;" d="M578.046,167.918h-18.051v-7.736c0-7.121,5.773-12.894,12.893-12.894l0,0
							c7.121,0,12.894,5.773,12.894,12.894l0,0C585.782,164.454,582.318,167.918,578.046,167.918z"/>
						<path style="fill:#ACA9FF;" d="M564.297,167.918h-13.473v-5.774c0-5.315,4.308-9.623,9.623-9.623l0,0
							c5.315,0,9.623,4.309,9.623,9.623l0,0C570.071,165.333,567.486,167.918,564.297,167.918z"/>
						<path style="fill:#ACA9FF;" d="M576.101,167.918h-26.173c-3.168,0-5.737-2.568-5.737-5.737l0,0
							c0-3.168,2.568-5.737,5.737-5.737h26.173V167.918z"/>
					</g>
					<g>
						<g>
							<rect x="231.286" y="111.015" style="fill:#FFFFFF;" width="75.694" height="50.346"/>
							<path style="fill:#ACA9FF;" d="M306.043,111.952v48.471h-73.82v-48.471H306.043 M307.918,110.077h-77.569v52.22h77.569
								V110.077L307.918,110.077z"/>
						</g>
						<rect x="230.348" y="108.917" style="fill:#514FF1;" width="77.569" height="13.623"/>
						<g>
							<rect x="240.879" y="130.186" style="fill:#ACA9FF;" width="5.422" height="5.422"/>
							<rect x="251.096" y="130.186" style="fill:#FF6700;" width="5.422" height="5.422"/>
							<rect x="261.314" y="130.186" style="fill:#ACA9FF;" width="5.422" height="5.422"/>
							<rect x="271.531" y="130.186" style="fill:#ACA9FF;" width="5.422" height="5.422"/>
							<rect x="281.748" y="130.186" style="fill:#ACA9FF;" width="5.422" height="5.422"/>
							<rect x="291.966" y="130.186" style="fill:#FF6700;" width="5.422" height="5.422"/>
						</g>
						<g>
							<rect x="240.879" y="139.361" style="fill:#ACA9FF;" width="5.422" height="5.422"/>
							<rect x="251.096" y="139.361" style="fill:#ACA9FF;" width="5.422" height="5.422"/>
							<rect x="261.314" y="139.361" style="fill:#ACA9FF;" width="5.422" height="5.422"/>
							<rect x="271.531" y="139.361" style="fill:#FF6700;" width="5.422" height="5.422"/>
							<rect x="281.748" y="139.361" style="fill:#ACA9FF;" width="5.422" height="5.422"/>
							<rect x="291.966" y="139.361" style="fill:#ACA9FF;" width="5.422" height="5.422"/>
						</g>
						<g>
							<rect x="240.879" y="148.535" style="fill:#ACA9FF;" width="5.422" height="5.422"/>
							<rect x="251.096" y="148.535" style="fill:#FF6700;" width="5.422" height="5.422"/>
							<rect x="261.314" y="148.535" style="fill:#ACA9FF;" width="5.422" height="5.422"/>
							<rect x="271.531" y="148.535" style="fill:#ACA9FF;" width="5.422" height="5.422"/>
							<rect x="281.748" y="148.535" style="fill:#ACA9FF;" width="5.422" height="5.422"/>
							<rect x="291.966" y="148.535" style="fill:#ACA9FF;" width="5.422" height="5.422"/>
						</g>
						<g>
							<path style="fill:#ACA9FF;" d="M248.073,114.338L248.073,114.338c-1.612,0-2.919-1.307-2.919-2.919v-5.005
								c0-1.612,1.307-2.919,2.919-2.919l0,0c1.612,0,2.919,1.307,2.919,2.919v5.005
								C250.992,113.031,249.685,114.338,248.073,114.338z"/>
							<path style="fill:#ACA9FF;" d="M290.194,114.338L290.194,114.338c-1.612,0-2.919-1.307-2.919-2.919v-5.005
								c0-1.612,1.307-2.919,2.919-2.919h0c1.612,0,2.919,1.307,2.919,2.919v5.005C293.113,113.031,291.806,114.338,290.194,114.338
								z"/>
						</g>
					</g>
					<g>
						<g>
							<circle style="fill:#ACA9FF;" cx="584.957" cy="69.627" r="33.295"/>
						</g>
						<path style="fill:#211380;" d="M587.082,70.335h-4.25V55.813c0-1.174,0.951-2.125,2.125-2.125l0,0
							c1.174,0,2.125,0.951,2.125,2.125V70.335z"/>
						<path style="fill:#211380;" d="M586.668,71.752v-4.25h7.733c1.174,0,2.125,0.951,2.125,2.125l0,0
							c0,1.174-0.952,2.125-2.125,2.125H586.668z"/>
						
							<line style="fill:none;stroke:#211380;stroke-width:1.4168;stroke-linecap:round;stroke-miterlimit:10;" x1="583.422" y1="40.228" x2="583.422" y2="45.541"/>
						
							<line style="fill:none;stroke:#211380;stroke-width:1.4168;stroke-linecap:round;stroke-miterlimit:10;" x1="604.521" y1="48.087" x2="600.764" y2="51.844"/>
						
							<line style="fill:none;stroke:#211380;stroke-width:1.4168;stroke-linecap:round;stroke-miterlimit:10;" x1="613.883" y1="68.564" x2="608.57" y2="68.564"/>
						
							<line style="fill:none;stroke:#211380;stroke-width:1.4168;stroke-linecap:round;stroke-miterlimit:10;" x1="606.023" y1="89.663" x2="602.266" y2="85.906"/>
						
							<line style="fill:none;stroke:#211380;stroke-width:1.4168;stroke-linecap:round;stroke-miterlimit:10;" x1="585.547" y1="99.025" x2="585.547" y2="93.712"/>
						
							<line style="fill:none;stroke:#211380;stroke-width:1.4168;stroke-linecap:round;stroke-miterlimit:10;" x1="564.448" y1="91.166" x2="568.204" y2="87.409"/>
						
							<line style="fill:none;stroke:#211380;stroke-width:1.4168;stroke-linecap:round;stroke-miterlimit:10;" x1="555.086" y1="70.689" x2="560.398" y2="70.689"/>
						
							<line style="fill:none;stroke:#211380;stroke-width:1.4168;stroke-linecap:round;stroke-miterlimit:10;" x1="562.945" y1="49.59" x2="566.702" y2="53.347"/>
						<path style="fill:#514FF1;" d="M584.956,74.585c-2.734,0-4.959-2.224-4.959-4.959c0-2.734,2.225-4.959,4.959-4.959
							c2.734,0,4.959,2.224,4.959,4.959C589.915,72.361,587.69,74.585,584.956,74.585z"/>
					</g>
					<g>
						<g>
							
								<line style="fill:none;stroke:#FF6700;stroke-width:1.9061;stroke-linecap:round;stroke-miterlimit:10;" x1="245.958" y1="34.269" x2="245.958" y2="39.038"/>
							
								<line style="fill:none;stroke:#FF6700;stroke-width:1.9061;stroke-linecap:round;stroke-miterlimit:10;" x1="263.421" y1="41.323" x2="260.049" y2="44.695"/>
							
								<line style="fill:none;stroke:#FF6700;stroke-width:1.9061;stroke-linecap:round;stroke-miterlimit:10;" x1="271.824" y1="59.703" x2="267.055" y2="59.703"/>
							
								<line style="fill:none;stroke:#FF6700;stroke-width:1.9061;stroke-linecap:round;stroke-miterlimit:10;" x1="264.77" y1="78.642" x2="261.398" y2="75.27"/>
							
								<line style="fill:none;stroke:#FF6700;stroke-width:1.9061;stroke-linecap:round;stroke-miterlimit:10;" x1="246.39" y1="87.045" x2="246.39" y2="82.276"/>
							
								<line style="fill:none;stroke:#FF6700;stroke-width:1.9061;stroke-linecap:round;stroke-miterlimit:10;" x1="228.927" y1="79.991" x2="232.299" y2="76.618"/>
							
								<line style="fill:none;stroke:#FF6700;stroke-width:1.9061;stroke-linecap:round;stroke-miterlimit:10;" x1="220.524" y1="61.611" x2="225.293" y2="61.611"/>
							
								<line style="fill:none;stroke:#FF6700;stroke-width:1.9061;stroke-linecap:round;stroke-miterlimit:10;" x1="227.579" y1="42.672" x2="230.951" y2="46.044"/>
						</g>
						<g>
							<path style="fill:#FDA702;" d="M252.285,63.7h-11.852V51.643c0-3.273,2.653-5.926,5.926-5.926l0,0
								c3.273,0,5.926,2.653,5.926,5.926V63.7z"/>
							<path style="fill:#FDA702;" d="M243.574,70.616h5.569v2.196c0,1.538-1.247,2.785-2.785,2.785l0,0
								c-1.538,0-2.785-1.247-2.785-2.785V70.616z"/>
							<path style="fill:#FDA702;" d="M255.109,66.561h-17.501v-5.963c0-4.833,3.918-8.75,8.75-8.75l0,0
								c4.833,0,8.75,3.918,8.75,8.75V66.561z"/>
							<path style="fill:#FDA702;" d="M255.702,69.85h-18.686c-1.323,0-2.396-1.073-2.396-2.396l0,0
								c0-1.323,1.073-2.396,2.396-2.396h18.686c1.323,0,2.396,1.073,2.396,2.396l0,0C258.097,68.777,257.025,69.85,255.702,69.85z"
								/>
						</g>
					</g>
					<g>
						
							<rect x="337.836" y="111.814" style="fill:#FFFFFF;stroke:#ACA9FF;stroke-width:1.8745;stroke-linecap:round;stroke-linejoin:round;stroke-miterlimit:10;" width="34.209" height="23.609"/>
						
							<polygon style="fill:#FFFFFF;stroke:#ACA9FF;stroke-width:1.8745;stroke-linecap:round;stroke-linejoin:round;stroke-miterlimit:10;" points="
							372.045,135.423 354.94,135.423 337.836,135.423 354.94,111.814 						"/>
						
							<polygon style="fill:#FFFFFF;stroke:#ACA9FF;stroke-width:1.8745;stroke-linecap:round;stroke-linejoin:round;stroke-miterlimit:10;" points="
							337.836,111.814 354.94,111.814 372.045,111.814 354.94,128.196 						"/>
					</g>
					<g>
						<path style="fill:#211380;" d="M325.511,97.111v-26.92c0-1.619-1.313-2.932-2.932-2.932h-29.958
							c-1.619,0-2.932,1.313-2.932,2.932v17.54c0,1.619,1.313,2.932,2.932,2.932h26.681L325.511,97.111z"/>
						<g>
							<path style="fill:#FFFFFF;" d="M315.004,79.2c0,1.055,0.855,1.91,1.911,1.91c1.055,0,1.91-0.855,1.91-1.91
								c0-1.055-0.855-1.91-1.91-1.91C315.859,77.289,315.004,78.144,315.004,79.2z"/>
							<circle style="fill:#FFFFFF;" cx="307.6" cy="79.2" r="1.911"/>
							<circle style="fill:#FFFFFF;" cx="298.287" cy="79.2" r="1.911"/>
						</g>
					</g>
				</g>
				<g>
					<ellipse style="fill:#211380;" cx="375" cy="449.622" rx="308.413" ry="16.109"/>
					<g>
						<g>
							<g>
								<path style="fill:#211380;" d="M453.385,208.793c0,0-11.33,85.645-36.586,72.988c-20.141-10.093,0.615-47.044,4.971-54.441
									c5.911-10.037,16.07-17.02,27.641-18.351C450.774,208.832,452.11,208.758,453.385,208.793z"/>
								<path style="fill:#0D0666;" d="M445.006,227.34c-3.682,6.252-19.076,33.616-11.592,48.031
									c9.712-13.484,15.704-41.403,18.359-56.449C449.171,221.39,446.86,224.192,445.006,227.34z"/>
								<path style="fill:#211380;" d="M503.543,216.614c7.886,12.822,25.149,45.159,29.905,89.052
									c-9.973,7.382-85.499-1.808-91.565-3.387c-6.066-1.579-3.869-89.876,9.082-93.375c12.025-3.248,26.985-4.345,41.133-0.741
									C496.871,209.38,500.964,212.42,503.543,216.614z"/>
								<path style="fill:#0D0666;" d="M503.446,216.321c-2.58-4.195-6.673-7.235-11.444-8.45
									c-8.214-2.092-16.699-2.598-24.726-2.02c4.318,1.374,8.009,4.246,10.396,8.128c7.886,12.821,25.149,45.159,29.905,89.052
									c-4.177,3.092-17.727,3.342-32.504,2.479c21.306,2.523,51.634,4.783,58.278-0.136
									C528.595,261.48,511.331,229.143,503.446,216.321z"/>
								<g>
									<path style="fill:#211380;" d="M491.785,208.793c0,0,11.33,85.645,36.586,72.988c20.141-10.093-0.615-47.044-4.971-54.441
										c-5.911-10.037-16.07-17.02-27.641-18.351C494.396,208.832,493.06,208.758,491.785,208.793z"/>
								</g>
								<g>
									<path style="fill:#0D0666;" d="M491.785,208.793c0,0,11.33,85.645,36.586,72.988c20.141-10.093-0.615-47.044-4.971-54.441
										c-5.911-10.037-16.07-17.02-27.641-18.351C494.396,208.832,493.06,208.758,491.785,208.793z"/>
								</g>
								<g>
									<path style="fill:#211380;" d="M520.078,226.237c2.626,3.597,10.415,14.672,14.655,26.178
										c-3.298-11.015-9.228-21.499-11.334-25.075c-5.91-10.037-16.069-17.02-27.641-18.351c-1.362-0.157-2.698-0.231-3.973-0.196
										c0,0,0.093,0.705,0.279,1.961C503.21,211.345,513.465,217.181,520.078,226.237z"/>
								</g>
								<path style="fill:#0D0666;" d="M530.958,266.228c-0.01-8.059-2.215-15.96-6.099-23.021
									c-3.37-6.128-8.125-14.831-10.831-20.038c-0.314-0.604-0.78-1.081-1.342-1.468l-0.412-2.127
									c0.166-0.211,0.349-0.394,0.508-0.616c0.126-0.175,0.213-0.359,0.331-0.536c0.197-0.185,0.409-0.354,0.559-0.595
									l0.662-0.937c-4.5-3.625-9.788-6.178-15.513-7.356c-3.335,4.917-3.746,10.587-1.149,13.629
									c-1.171,0.715-2.076,2.066-2.739,3.874c4.022,19.894,11.982,49.636,24.365,55.124
									C528.654,282.588,530.968,274.419,530.958,266.228z"/>
								<g>
									<path style="fill:#F8AD7D;" d="M475.097,226.699L475.097,226.699c7.332,1.831,14.76-2.627,16.591-9.959l5.281-21.142
										l-26.55-6.632l-5.281,21.142C463.306,217.439,467.765,224.867,475.097,226.699z"/>
									<path style="fill:#F56449;" d="M470.418,188.965l-0.146,0.585l20.107,5.022l-5.281,21.142
										c-1.446,5.79-6.386,9.773-12.01,10.297c0.645,0.272,1.309,0.512,2.009,0.687c7.332,1.832,14.76-2.627,16.591-9.959
										l5.281-21.142L470.418,188.965z"/>
									<path style="fill:#F56449;" d="M491.177,218.327c0.197-0.514,0.374-1.04,0.511-1.587l5.281-21.142l-26.551-6.632
										l-4.329,17.33c1.713,4.478,4.993,8.375,9.587,10.75h0.001C480.664,219.623,486.225,219.923,491.177,218.327z"/>
									<path style="fill:#2C0107;" d="M466.762,178.152c-3.956,10.611-2.013,20.218,8.79,25.802
										c10.803,5.584,20.53,2.01,28.026-6.772c9.282-10.872,18.118-22.04-4.199-33.576
										C477.062,152.07,471.66,165.013,466.762,178.152z"/>
									<g>
										<path style="fill:#F8AD7D;" d="M474.105,185.192c-1.911,3.698-6.458,5.146-10.156,3.234
											c-3.698-1.911-5.146-6.458-3.234-10.156c1.911-3.698,6.458-5.146,10.156-3.234
											C474.568,176.947,476.016,181.494,474.105,185.192z"/>
									</g>
									<path style="fill:#F8AD7D;" d="M471.137,211.333L471.137,211.333c9.931,5.133,22.143,1.244,27.276-8.687l7.343-14.205
										c3.796-7.343,0.92-16.372-6.423-20.168l-6.53-3.375c-8.912-4.607-19.872-1.117-24.479,7.796l-5.874,11.363
										C457.317,193.988,461.206,206.2,471.137,211.333z"/>
									<path style="fill:#F56449;" d="M499.333,168.274l-6.529-3.375c-0.818-0.423-1.656-0.754-2.501-1.043l2.88,1.489
										c7.343,3.796,10.219,12.825,6.423,20.168l-7.343,14.205c-4.485,8.677-14.373,12.74-23.422,10.204
										c0.729,0.509,1.486,0.992,2.297,1.412h0.001c9.93,5.133,22.142,1.244,27.275-8.687l7.343-14.205
										C509.551,181.099,506.676,172.069,499.333,168.274z"/>
									<g>
										<path style="fill:#F56449;" d="M495.651,195.218c-1.988,3.846-0.482,8.576,3.364,10.564
											c3.846,1.988,8.576,0.482,10.564-3.364c1.988-3.846,0.482-8.576-3.364-10.564S497.638,191.372,495.651,195.218z"/>
									</g>
									<g>
										<path style="fill:#FFFFFF;" d="M469.389,201.183l3.129,1.99c2.725,1.733,6.339,0.93,8.073-1.796l0,0l-12.997-8.268l0,0
											C465.86,195.835,466.664,199.449,469.389,201.183z"/>
										<path style="opacity:0.5;fill:#F8AD7D;" d="M474.919,184.188c0.792-1.245,2.443-1.612,3.687-0.82l0,0
											c1.245,0.792,1.612,2.443,0.82,3.687c0,0-0.878,6.437-1.217,6.97c-1.999,3.142-11.086-2.639-9.087-5.781
											C469.462,187.712,474.919,184.188,474.919,184.188z"/>
										<g>
											<g>
												<g>
													<path style="fill:#2C0107;" d="M485.951,188.83L485.951,188.83c-0.459-0.292-0.594-0.901-0.302-1.359l1.351-2.123
														c0.292-0.459,0.901-0.594,1.359-0.302l0,0c0.459,0.292,0.594,0.901,0.302,1.359l-1.351,2.123
														C487.018,188.987,486.41,189.122,485.951,188.83z"/>
												</g>
												<path style="fill:#2C0107;" d="M485.826,186.958l4.556,2.898c1.126,0.716,2.619,0.384,3.335-0.742l0,0
													c0.716-1.126,0.384-2.619-0.742-3.335l-4.556-2.898c-1.126-0.716-2.619-0.384-3.335,0.742l0,0
													C484.368,184.748,484.701,186.241,485.826,186.958z"/>
											</g>
											<g>
												<g>
													<path style="fill:#2C0107;" d="M469.503,178.341L469.503,178.341c-0.459-0.292-0.594-0.9-0.302-1.359l1.351-2.123
														c0.292-0.459,0.9-0.594,1.359-0.302l0,0c0.459,0.292,0.594,0.9,0.302,1.359l-1.351,2.123
														C470.571,178.498,469.962,178.633,469.503,178.341z"/>
												</g>
												<path style="fill:#2C0107;" d="M468.915,176.2l4.556,2.898c1.126,0.716,2.619,0.384,3.335-0.742l0,0
													c0.716-1.126,0.384-2.619-0.742-3.335l-4.556-2.898c-1.126-0.716-2.619-0.384-3.335,0.742l0,0
													C467.457,173.991,467.789,175.484,468.915,176.2z"/>
											</g>
										</g>
									</g>
									<path style="fill:#2C0107;" d="M475.911,153.823c4.377-8.468,35.511,7.625,31.134,16.093
										c-4.377,8.468-14.895,11.73-23.492,7.286C474.956,172.758,471.534,162.29,475.911,153.823z"/>
								</g>
								<g>
									<path style="fill:#F8AD7D;" d="M501.379,259.074l-14.023-37.825c-1.485-4.023,11.617-8.859,13.102-4.836l14.023,37.825
										L501.379,259.074z"/>
									<g>
										<path style="fill:#F8AD7D;" d="M497.846,217.833l5.814-11.996c0.665-1.615,2.514-2.385,4.129-1.72h0
											c1.615,0.665,2.385,2.514,1.72,4.129l-5.814,11.996c-0.665,1.615-2.514,2.385-4.129,1.72l0,0
											C497.951,221.296,497.181,219.448,497.846,217.833z"/>
										<path style="fill:#F8AD7D;" d="M503.002,221.502c-3.036,6.156-8.884,9.477-13.061,7.416
											c-4.177-2.06-5.103-8.721-2.067-14.877c3.036-6.156,8.884-9.477,13.061-7.416
											C505.113,208.685,506.038,215.346,503.002,221.502z"/>
										<path style="fill:#F8AD7D;" d="M498.617,216.433l-0.147-17.396c-0.029-1.539,1.196-2.811,2.736-2.839l0,0
											c1.539-0.029,2.811,1.196,2.839,2.736l0.147,17.395c0.029,1.54-1.196,2.811-2.736,2.839l0,0
											C499.917,219.197,498.646,217.972,498.617,216.433z"/>
										<path style="fill:#F8AD7D;" d="M495.519,212.437l-2.349-13.217c-0.269-1.516,0.741-2.963,2.257-3.233l0,0
											c1.516-0.269,2.963,0.741,3.233,2.257l2.349,13.217c0.269,1.516-0.741,2.963-2.257,3.233l0,0
											C497.236,214.964,495.789,213.953,495.519,212.437z"/>
										<path style="fill:#F8AD7D;" d="M494.25,216.028l-8.742-10.187c-1.003-1.169-0.868-2.929,0.3-3.931l0,0
											c1.169-1.003,2.929-0.868,3.931,0.3l8.742,10.187c1.003,1.169,0.868,2.929-0.3,3.931l0,0
											C497.013,217.33,495.253,217.196,494.25,216.028z"/>
									</g>
									<path style="fill:#211380;" d="M517.382,282.933c-21.672-0.214-38.027-49.648-27.959-55.306v0
										c3.72-3.047,12.612-6.022,15.495-2.173c3.518,4.696,9.628,12.508,13.952,18.005c4.983,6.334,8.446,13.77,9.769,21.72
										C530.089,273.897,528.885,283.047,517.382,282.933z"/>
								</g>
								<g>
									<path style="fill:#F8AD7D;" d="M477.589,274.617l12.185,3.658c1.565,0.575,3.299-0.227,3.874-1.792l0,0
										c0.575-1.565-0.227-3.299-1.792-3.874l-12.185-3.658c-1.565-0.575-3.299,0.227-3.874,1.792l0,0
										C475.222,272.308,476.024,274.042,477.589,274.617z"/>
									<path style="fill:#F56449;" d="M497.361,280.146l-8.21-5.933c-1.627-3.035-5.795-5.308-10.789-5.507
										c-2.904-0.116-5.558,0.516-7.667,1.609l-33.786-1.359l-0.517,13.318l36.145,1.454c1.559,0.592,3.3,0.987,5.181,1.062
										c3.073,0.123,5.879-0.58,8.037-1.798c0,0,11.467,1.821,12.165,0.875C498.795,282.684,498.544,281.018,497.361,280.146z"/>
									<g>
										<path style="fill:#F8AD7D;" d="M470.266,272.983c2.015-1.258,4.61-2.099,7.514-2.215
											c4.993-0.199,11.372,3.444,11.372,3.444c-1.627-3.035-5.795-5.308-10.789-5.507c-2.904-0.116-5.558,0.516-7.667,1.609
											l-33.786-1.359l-0.208,5.358L470.266,272.983z"/>
										<path style="fill:#F56449;" d="M463.144,270.011c-0.075,2.096-0.45,4.138-1.027,5.619c-0.785,3.931-7.863,6.393-16.86,7
											l24.548,0.988c1.354-3.703,1.55-10.527-1.057-13.382L463.144,270.011z"/>
										<polygon style="fill:#F8AD7D;" points="436.594,277.111 436.393,282.274 436.806,282.29 										"/>
									</g>
									<path style="fill:#211380;" d="M410.014,274.803c6.599,19.602,56.289,19.836,58.449,9.027h0
										c1.666-4.276,1.737-13.224-2.607-14.702c-5.301-1.804-14.195-5.04-20.461-7.34c-7.22-2.65-14.991-3.595-22.596-2.446
										C414.458,260.602,406.511,264.399,410.014,274.803z"/>
									<path style="fill:#0D0666;" d="M465.855,269.129c-1.178-0.401-2.554-0.881-4.02-1.398c0.221,2.824-0.201,5.88-0.988,7.899
										c-1.74,8.71-34.337,10.241-50.385,0.251c8.041,18.516,55.881,18.554,58,7.95
										C470.128,279.555,470.2,270.607,465.855,269.129z"/>
								</g>
							</g>
							<g>
								<g>
									<path style="fill:#ACA9FF;" d="M482.527,402.76L482.527,402.76c-3.887,0-7.038-3.151-7.038-7.038v-54.176h14.077v54.176
										C489.566,399.609,486.415,402.76,482.527,402.76z"/>
									<path style="fill:#ACA9FF;" d="M486.879,353.262h-8.703c-3.386,0-6.131-2.745-6.131-6.131v-20.842h20.966v20.842
										C493.01,350.516,490.265,353.262,486.879,353.262z"/>
									<path style="fill:none;stroke:#ACA9FF;stroke-width:7.0293;stroke-linecap:round;stroke-miterlimit:10;" d="
										M460.702,435.271v-21.674c0-12.054,9.771-21.825,21.825-21.825l0,0c12.054,0,21.825,9.771,21.825,21.825v21.674"/>
									<path style="fill:#211380;" d="M518.282,340.012h-71.509c-4.429,0-8.02-3.59-8.02-8.02l0,0c0-4.429,3.591-8.02,8.02-8.02
										h71.509c4.429,0,8.02,3.591,8.02,8.02l0,0C526.302,336.422,522.711,340.012,518.282,340.012z"/>
								</g>
								<g>
									<path style="fill:#514FF1;" d="M422.058,418.806c-1.629,3.89-1.629,10.433-1.629,10.433s-18.93,0.243-12.62,15.289
										c-0.012,0.282-0.023,0.549-0.033,0.803c-0.101,2.608,1.985,4.753,4.594,4.721c5.822-0.072,15.577-0.185,19.222-0.185
										c5.339,0,17.959-11.164,19.415-15.047c-0.728-3.155-1.456-4.611-1.456-4.611s0.971-1.456,0.243-6.553
										c-0.728-5.096-2.67-9.465-6.795-9.465c-3.228,0-13.142,1.337-17.303,1.919C424.101,416.334,422.68,417.321,422.058,418.806
										z"/>
									<path style="fill:#211380;" d="M431.592,445.014c-5.339,0-23.784,0.243-23.784,0.243s-0.012-0.004-0.027-0.061
										c-0.002,0.049-0.004,0.098-0.006,0.146c-0.101,2.6,1.992,4.743,4.594,4.711c5.822-0.072,15.577-0.185,19.222-0.185
										c5.339,0,17.959-11.164,19.415-15.047c-0.332-1.437-0.66-2.504-0.922-3.259
										C446.751,436.261,436.322,445.014,431.592,445.014z"/>
									<path style="fill:#ACA9FF;" d="M417.611,393.622c1.7,8.783,5.685,22.699,6.535,25.533
										c0.85,2.833,20.258,4.817,19.125-4.533c-1.133-9.35-4.127-25.107-6.394-27.091L417.611,393.622z"/>
									<path style="fill:#514FF1;" d="M546.683,418.806c1.629,3.89,1.629,10.433,1.629,10.433s18.93,0.243,12.62,15.289
										c0.012,0.282,0.023,0.549,0.033,0.803c0.101,2.608-1.985,4.753-4.594,4.721c-5.822-0.072-15.577-0.185-19.222-0.185
										c-5.339,0-17.959-11.164-19.415-15.047c0.728-3.155,1.456-4.611,1.456-4.611s-0.971-1.456-0.243-6.553
										s2.67-9.465,6.795-9.465c3.228,0,13.142,1.337,17.303,1.919C544.64,416.334,546.061,417.321,546.683,418.806z"/>
									<path style="fill:#211380;" d="M537.149,445.014c5.339,0,23.784,0.243,23.784,0.243s0.012-0.004,0.027-0.061
										c0.002,0.049,0.004,0.098,0.006,0.146c0.101,2.6-1.992,4.743-4.594,4.711c-5.822-0.072-15.577-0.185-19.222-0.185
										c-5.339,0-17.959-11.164-19.415-15.047c0.332-1.437,0.66-2.504,0.922-3.259
										C521.99,436.261,532.419,445.014,537.149,445.014z"/>
									<path style="fill:#ACA9FF;" d="M551.13,393.622c-1.7,8.783-5.685,22.699-6.535,25.533
										c-0.85,2.833-20.258,4.817-19.125-4.533c1.133-9.35,4.127-25.107,6.394-27.091L551.13,393.622z"/>
									<path style="fill:#D18100;" d="M484.461,305.758c0,0-50.036-18.871-74.053-11.437
										c-24.017,7.434-13.724,30.307-10.293,48.034c3.431,17.727,12.58,52.609,14.296,58.327
										c1.716,5.718,40.886,9.721,38.599-9.149c-2.287-18.871-9.435-57.47-14.01-61.473c5.147,3.431,5.718-1.144,5.718-1.144
										h41.172L484.461,305.758z"/>
									<path style="fill:#FDA702;" d="M419.528,403.078c-1.754-5.845-11.106-41.5-14.613-59.62
										c-3.507-18.12-14.028-41.501,10.521-49.099c3.364-1.041,7.237-1.563,11.399-1.714c-6.086-0.213-11.752,0.228-16.428,1.676
										c-24.018,7.434-13.724,30.307-10.293,48.034c3.431,17.727,12.58,52.609,14.296,58.328c0.377,1.256,2.563,2.429,5.719,3.296
										C419.839,403.684,419.62,403.384,419.528,403.078z"/>
									<path style="fill:#D18100;" d="M519.49,299.361c0.006-3.402-70.81-2.725-70.815,0.676l7.972,19.52l61.323-3.076
										L519.49,299.361z"/>
									<path style="fill:#FDA702;" d="M492.748,300.541c8.125-0.743,46.085-12.981,67.927-6.221
										c24.017,7.434,13.724,30.307,10.293,48.034c-3.431,17.727-12.58,52.609-14.296,58.327
										c-1.716,5.718-40.886,9.721-38.599-9.149c1.82-15.014,6.717-42.518,10.947-55.148c0.686-2.048-0.128-4.157-1.726-5.61
										c-0.069-0.063-0.134-0.129-0.193-0.198c-0.937-1.077-2.315-1.661-3.742-1.661l-46.411,0
										C459.604,329.77,473.941,302.26,492.748,300.541z"/>
									<g>
										<path style="fill:#D18100;" d="M563.658,295.414c9.565,11.583,1.875,30.621-1.13,46.145
											c-3.535,18.262-12.471,52.727-15.406,63.233c5.133-0.835,9.035-2.392,9.55-4.109c1.715-5.719,10.865-40.601,14.296-58.328
											C574.247,325.417,583.767,303.791,563.658,295.414z"/>
										<path style="fill:#D18100;" d="M513.506,328.561c-0.078-0.071-0.15-0.145-0.217-0.223c-1.052-1.209-2.598-1.864-4.2-1.864
											h-38.926c1.157,1.648,3.336,2.612,6.786,2.442h36.906C513.739,328.797,513.63,328.674,513.506,328.561z"/>
									</g>
								</g>
							</g>
						</g>
						<g>
							<g>
								<g>
									<g>
										<rect x="167.849" y="341.633" style="fill:#211380;" width="81.959" height="90.712"/>
										<path style="fill:#211380;" d="M177.17,447.869L177.17,447.869c-5.148,0-9.321-4.173-9.321-9.321v-19.333h24.667
											l-6.398,21.942C184.959,445.135,181.313,447.869,177.17,447.869z"/>
										<path style="fill:#211380;" d="M240.488,447.869L240.488,447.869c5.148,0,9.321-4.173,9.321-9.321v-19.333h-24.667
											l6.398,21.942C232.699,445.135,236.345,447.869,240.488,447.869z"/>
									</g>
									<g>
										<rect x="134.265" y="341.633" style="fill:#514FF1;" width="81.959" height="90.712"/>
										<path style="fill:#514FF1;" d="M143.586,447.869L143.586,447.869c-5.148,0-9.321-4.173-9.321-9.321v-19.333h24.667
											l-6.398,21.942C151.374,445.135,147.729,447.869,143.586,447.869z"/>
										<path style="fill:#514FF1;" d="M206.903,447.869L206.903,447.869c5.148,0,9.321-4.173,9.321-9.321v-19.333h-24.667
											l6.398,21.942C199.114,445.135,202.76,447.869,206.903,447.869z"/>
									</g>
								</g>
								<g>
									<g>
										<rect x="183.917" y="297.203" style="fill:#514FF1;" width="44.876" height="18.698"/>
										<rect x="191.684" y="315.901" style="fill:#514FF1;" width="44.876" height="8.22"/>
										<rect x="185.211" y="324.122" style="fill:#514FF1;" width="44.876" height="17.824"/>
									</g>
									<rect x="157.557" y="297.203" style="fill:#ACA9FF;" width="44.876" height="18.698"/>
									<rect x="165.324" y="315.901" style="fill:#ACA9FF;" width="44.876" height="8.22"/>
									<rect x="158.851" y="324.122" style="fill:#ACA9FF;" width="44.876" height="17.824"/>
									
										<line style="fill:none;stroke:#514FF1;stroke-width:0.5858;stroke-miterlimit:10;" x1="157.557" y1="301.011" x2="202.433" y2="301.011"/>
									
										<line style="fill:none;stroke:#514FF1;stroke-width:0.5858;stroke-miterlimit:10;" x1="157.557" y1="304.818" x2="202.433" y2="304.818"/>
									
										<line style="fill:none;stroke:#514FF1;stroke-width:0.5858;stroke-miterlimit:10;" x1="157.557" y1="308.626" x2="202.433" y2="308.626"/>
									
										<line style="fill:none;stroke:#514FF1;stroke-width:0.5858;stroke-miterlimit:10;" x1="157.557" y1="312.433" x2="202.433" y2="312.433"/>
									
										<line style="fill:none;stroke:#514FF1;stroke-width:0.5858;stroke-linecap:round;stroke-miterlimit:10;" x1="223.18" y1="312.433" x2="229.281" y2="312.433"/>
									
										<line style="fill:none;stroke:#ACA9FF;stroke-width:0.5858;stroke-linecap:round;stroke-miterlimit:10;" x1="157.557" y1="299.351" x2="203.459" y2="299.351"/>
									
										<line style="fill:none;stroke:#514FF1;stroke-width:0.5858;stroke-linecap:round;stroke-miterlimit:10;" x1="218.689" y1="299.351" x2="229.038" y2="299.351"/>
									
										<line style="fill:none;stroke:#ACA9FF;stroke-width:0.5858;stroke-linecap:round;stroke-miterlimit:10;" x1="157.557" y1="303.159" x2="202.433" y2="303.159"/>
									
										<line style="fill:none;stroke:#ACA9FF;stroke-width:0.5858;stroke-linecap:round;stroke-miterlimit:10;" x1="163.333" y1="306.966" x2="209.317" y2="306.966"/>
									
										<line style="fill:none;stroke:#ACA9FF;stroke-width:0.5858;stroke-linecap:round;stroke-miterlimit:10;" x1="157.557" y1="310.774" x2="199.359" y2="310.774"/>
									
										<line style="fill:none;stroke:#ACA9FF;stroke-width:0.5858;stroke-linecap:round;stroke-miterlimit:10;" x1="209.61" y1="310.774" x2="223.473" y2="310.774"/>
									
										<line style="fill:none;stroke:#514FF1;stroke-width:0.5858;stroke-miterlimit:10;" x1="165.324" y1="320.048" x2="210.2" y2="320.048"/>
									
										<line style="fill:none;stroke:#ACA9FF;stroke-width:0.5858;stroke-linecap:round;stroke-miterlimit:10;" x1="164.456" y1="321.22" x2="205.607" y2="321.22"/>
									
										<line style="fill:none;stroke:#514FF1;stroke-width:0.5858;stroke-linecap:round;stroke-miterlimit:10;" x1="232.893" y1="320.048" x2="236.9" y2="320.048"/>
									
										<line style="fill:none;stroke:#514FF1;stroke-width:0.5858;stroke-miterlimit:10;" x1="158.851" y1="323.856" x2="224.645" y2="323.856"/>
									
										<line style="fill:none;stroke:#514FF1;stroke-width:0.5858;stroke-linecap:round;stroke-miterlimit:10;" x1="158.851" y1="327.664" x2="199.456" y2="327.664"/>
									
										<line style="fill:none;stroke:#514FF1;stroke-width:0.5858;stroke-linecap:round;stroke-miterlimit:10;" x1="165.188" y1="331.471" x2="203.727" y2="331.471"/>
									
										<line style="fill:none;stroke:#514FF1;stroke-width:0.5858;stroke-linecap:round;stroke-miterlimit:10;" x1="225.963" y1="331.471" x2="231.113" y2="331.471"/>
									
										<line style="fill:none;stroke:#514FF1;stroke-width:0.5858;stroke-miterlimit:10;" x1="158.851" y1="335.279" x2="203.727" y2="335.279"/>
									
										<line style="fill:none;stroke:#514FF1;stroke-width:0.5858;stroke-miterlimit:10;" x1="158.851" y1="339.086" x2="203.727" y2="339.086"/>
									<g>
										
											<line style="fill:none;stroke:#ACA9FF;stroke-width:0.5858;stroke-linecap:round;stroke-miterlimit:10;" x1="158.403" y1="326.199" x2="202.433" y2="326.199"/>
										
											<line style="fill:none;stroke:#ACA9FF;stroke-width:0.5858;stroke-linecap:round;stroke-miterlimit:10;" x1="158.452" y1="333.814" x2="202.433" y2="333.814"/>
										
											<line style="fill:none;stroke:#ACA9FF;stroke-width:0.5858;stroke-linecap:round;stroke-miterlimit:10;" x1="157.232" y1="337.622" x2="202.433" y2="337.622"/>
										
											<line style="fill:none;stroke:#ACA9FF;stroke-width:0.5858;stroke-linecap:round;stroke-miterlimit:10;" x1="158.11" y1="341.429" x2="202.433" y2="341.429"/>
									</g>
									
										<line style="fill:none;stroke:#ACA9FF;stroke-width:0.5858;stroke-linecap:round;stroke-miterlimit:10;" x1="215.126" y1="326.199" x2="228.061" y2="326.199"/>
									
										<line style="fill:none;stroke:#ACA9FF;stroke-width:0.5858;stroke-linecap:round;stroke-miterlimit:10;" x1="222.448" y1="337.622" x2="228.061" y2="337.622"/>
								</g>
							</g>
							<g>
								<g>
									<g>
										<path style="fill:#211380;" d="M516.646,447.688L516.646,447.688c-2.812-0.754-4.481-3.645-3.727-6.457l39.341-146.73
											c0.754-2.812,3.645-4.481,6.457-3.727l0,0c2.812,0.754,4.481,3.645,3.727,6.458l-39.341,146.73
											C522.349,446.773,519.458,448.442,516.646,447.688z"/>
										<path style="fill:#211380;" d="M611.827,447.688L611.827,447.688c2.812-0.754,4.481-3.645,3.727-6.457l-39.341-146.73
											c-0.754-2.812-3.645-4.481-6.457-3.727l0,0c-2.812,0.754-4.481,3.645-3.727,6.458l39.34,146.73
											C606.124,446.773,609.015,448.442,611.827,447.688z"/>
									</g>
									<g>
										<path style="fill:#514FF1;" d="M483.842,447.688L483.842,447.688c-2.812-0.754-4.481-3.645-3.727-6.457l39.341-146.73
											c0.754-2.812,3.645-4.481,6.457-3.727l0,0c2.812,0.754,4.481,3.645,3.727,6.458l-39.341,146.73
											C489.545,446.773,486.654,448.442,483.842,447.688z"/>
										<path style="fill:#514FF1;" d="M579.024,447.688L579.024,447.688c2.812-0.754,4.481-3.645,3.727-6.457l-39.341-146.73
											c-0.754-2.812-3.645-4.481-6.458-3.727l0,0c-2.812,0.754-4.481,3.645-3.727,6.458l39.341,146.73
											C573.32,446.773,576.211,448.442,579.024,447.688z"/>
									</g>
									<g>
										<path style="fill:#211380;" d="M291.316,447.688L291.316,447.688c-2.812-0.754-4.481-3.645-3.727-6.457l39.34-146.73
											c0.754-2.812,3.645-4.481,6.457-3.727l0,0c2.812,0.754,4.481,3.645,3.727,6.458l-39.34,146.73
											C297.019,446.773,294.128,448.442,291.316,447.688z"/>
										<path style="fill:#211380;" d="M386.498,447.688L386.498,447.688c2.812-0.754,4.481-3.645,3.727-6.457l-39.341-146.73
											c-0.754-2.812-3.645-4.481-6.457-3.727l0,0c-2.812,0.754-4.481,3.645-3.727,6.458l39.341,146.73
											C380.794,446.773,383.685,448.442,386.498,447.688z"/>
									</g>
									<g>
										<path style="fill:#514FF1;" d="M258.512,447.688L258.512,447.688c-2.812-0.754-4.481-3.645-3.727-6.457l39.341-146.73
											c0.754-2.812,3.645-4.481,6.457-3.727h0c2.812,0.754,4.481,3.645,3.727,6.458l-39.341,146.73
											C264.216,446.773,261.325,448.442,258.512,447.688z"/>
										<path style="fill:#514FF1;" d="M353.694,447.688L353.694,447.688c2.812-0.754,4.481-3.645,3.727-6.457l-39.341-146.73
											c-0.754-2.812-3.645-4.481-6.457-3.727h0c-2.812,0.754-4.481,3.645-3.727,6.458l39.341,146.73
											C347.991,446.773,350.882,448.442,353.694,447.688z"/>
									</g>
									<rect x="309.046" y="284.414" style="fill:#211380;" width="282.248" height="17.573"/>
									<rect x="276.633" y="284.414" style="fill:#514FF1;" width="282.248" height="17.573"/>
									<rect x="288.885" y="282.461" style="fill:#514FF1;" width="322.569" height="15.621"/>
									<rect x="256.472" y="282.461" style="fill:#ACA9FF;" width="322.569" height="15.621"/>
								</g>
								<g>
									<g>
										<path style="fill:#514FF1;" d="M483.169,282.754L483.169,282.754c0.971,0,1.757-0.787,1.757-1.757v-2.148
											c0-0.971-0.787-1.757-1.757-1.757l0,0c-0.97,0-1.757,0.787-1.757,1.757v2.148
											C481.411,281.967,482.198,282.754,483.169,282.754z"/>
										<path style="fill:#F2F1F6;" d="M472.15,283.242h21.088l0,0c0-2.588-2.098-4.686-4.686-4.686h-14.785
											c-0.893,0-1.617,0.724-1.617,1.617V283.242z"/>
										<path style="fill:#ACA9FF;" d="M481.152,283.242h12.086l0,0c0-2.588-2.098-4.686-4.686-4.686h-5.922
											c-0.816,0-1.477,0.661-1.477,1.477V283.242L481.152,283.242z"/>
									</g>
									<g>
										<polygon style="fill:#514FF1;" points="279.609,189.279 278.809,190.079 277.178,189.279 278.809,188.478 										"/>
										<polygon style="fill:#514FF1;" points="280.486,187.162 279.354,187.162 278.767,185.443 280.486,186.031 										"/>
										<polygon style="fill:#514FF1;" points="282.602,186.286 281.802,185.486 282.602,183.855 283.402,185.486 										"/>
										<polygon style="fill:#514FF1;" points="284.718,187.162 284.718,186.031 286.437,185.443 285.85,187.162 										"/>
										<polygon style="fill:#514FF1;" points="285.595,189.279 286.395,188.478 288.026,189.279 286.395,190.079 										"/>
										<polygon style="fill:#514FF1;" points="279.609,191.793 278.809,192.593 277.178,191.793 278.809,190.992 										"/>
										<polygon style="fill:#514FF1;" points="279.609,194.307 278.809,195.107 277.178,194.307 278.809,193.507 										"/>
										<polygon style="fill:#514FF1;" points="279.609,196.821 278.809,197.621 277.178,196.821 278.809,196.021 										"/>
										<polygon style="fill:#514FF1;" points="279.609,199.335 278.809,200.135 277.178,199.335 278.809,198.535 										"/>
										<polygon style="fill:#514FF1;" points="279.609,201.849 278.809,202.649 277.178,201.849 278.809,201.049 										"/>
										<polygon style="fill:#514FF1;" points="279.609,204.363 278.809,205.163 277.178,204.363 278.809,203.563 										"/>
										<polygon style="fill:#514FF1;" points="285.595,191.793 286.395,192.593 288.026,191.793 286.395,190.992 										"/>
										<polygon style="fill:#514FF1;" points="285.595,194.307 286.395,195.107 288.026,194.307 286.395,193.507 										"/>
										<polygon style="fill:#514FF1;" points="285.595,196.821 286.395,197.621 288.026,196.821 286.395,196.021 										"/>
										<polygon style="fill:#514FF1;" points="285.595,199.335 286.395,200.135 288.026,199.335 286.395,198.535 										"/>
										<polygon style="fill:#514FF1;" points="285.595,201.849 286.395,202.649 288.026,201.849 286.395,201.049 										"/>
										<polygon style="fill:#514FF1;" points="285.595,204.363 286.395,205.163 288.026,204.363 286.395,203.563 										"/>
										<path style="fill:#514FF1;" d="M286.685,208.735h-8.291v-19.246c0-2.289,1.856-4.145,4.145-4.145l0,0
											c2.289,0,4.145,1.856,4.145,4.145V208.735z"/>
										<path style="fill:#ACA9FF;" d="M284.102,208.735h-3.125v-21.829c0-0.863,0.7-1.563,1.563-1.563l0,0
											c0.863,0,1.563,0.7,1.563,1.563V208.735z"/>
										<polygon style="fill:#211380;" points="287.13,219.111 277.948,219.111 276.396,207.095 288.683,207.095 										"/>
										<path style="fill:#211380;" d="M287.95,210.921h-10.821c-1.358,0-2.459-1.101-2.459-2.459l0,0
											c0-1.358,1.101-2.459,2.459-2.459h10.821c1.358,0,2.459,1.101,2.459,2.459l0,0
											C290.409,209.82,289.308,210.921,287.95,210.921z"/>
										<g>
											<g>
												<path style="fill:#514FF1;" d="M282.526,190.079c-0.108-0.267-0.116-0.533-0.131-0.8c0.015-0.267,0.022-0.533,0.131-0.8
													c0.109,0.267,0.116,0.533,0.131,0.8C282.641,189.545,282.634,189.812,282.526,190.079z"/>
											</g>
											<g>
												<path style="fill:#514FF1;" d="M282.526,192.593c-0.108-0.267-0.116-0.533-0.131-0.8c0.015-0.267,0.022-0.533,0.131-0.8
													c0.109,0.267,0.116,0.533,0.131,0.8C282.641,192.059,282.634,192.326,282.526,192.593z"/>
											</g>
											<g>
												<path style="fill:#514FF1;" d="M282.526,195.107c-0.108-0.267-0.116-0.533-0.131-0.8c0.015-0.267,0.022-0.533,0.131-0.8
													c0.109,0.267,0.116,0.533,0.131,0.8C282.641,194.573,282.634,194.84,282.526,195.107z"/>
											</g>
											<g>
												<path style="fill:#514FF1;" d="M282.526,197.621c-0.108-0.267-0.116-0.533-0.131-0.8c0.015-0.267,0.022-0.533,0.131-0.8
													c0.109,0.267,0.116,0.533,0.131,0.8C282.641,197.087,282.634,197.354,282.526,197.621z"/>
											</g>
											<g>
												<path style="fill:#514FF1;" d="M282.526,200.135c-0.108-0.267-0.116-0.533-0.131-0.8c0.015-0.267,0.022-0.533,0.131-0.8
													c0.109,0.267,0.116,0.533,0.131,0.8C282.641,199.601,282.634,199.868,282.526,200.135z"/>
											</g>
											<g>
												<path style="fill:#514FF1;" d="M282.526,202.649c-0.108-0.267-0.116-0.533-0.131-0.8c0.015-0.267,0.022-0.533,0.131-0.8
													c0.109,0.267,0.116,0.533,0.131,0.8C282.641,202.115,282.634,202.382,282.526,202.649z"/>
											</g>
											<g>
												<path style="fill:#514FF1;" d="M282.526,205.163c-0.108-0.267-0.116-0.533-0.131-0.8c0.015-0.267,0.022-0.533,0.131-0.8
													c0.109,0.267,0.116,0.533,0.131,0.8C282.641,204.63,282.634,204.896,282.526,205.163z"/>
											</g>
										</g>
									</g>
									<g>
										<path style="fill:#514FF1;" d="M278.125,283.242h26.52c2.608,0,4.669-2.211,4.486-4.813l-3.911-55.615
											c-0.166-2.356-2.125-4.182-4.486-4.182h-22.609V283.242z"/>
										<path style="fill:#ACA9FF;" d="M270.211,283.242h19.657c1.973,0,3.572-1.599,3.572-3.572v-57.465
											c0-1.973-1.599-3.572-3.572-3.572h-19.657c-1.973,0-3.572,1.599-3.572,3.572v57.465
											C266.639,281.643,268.238,283.242,270.211,283.242z"/>
										<circle style="fill:#514FF1;" cx="272.98" cy="279.174" r="1.555"/>
									</g>
									<g>
										<path style="fill:#514FF1;" d="M554.177,283.242h26.52c2.608,0,4.669-2.211,4.486-4.813l-3.911-55.615
											c-0.166-2.356-2.125-4.182-4.486-4.182h-22.609V283.242z"/>
										<path style="fill:#ACA9FF;" d="M546.263,283.242h19.657c1.973,0,3.572-1.599,3.572-3.572v-57.465
											c0-1.973-1.599-3.572-3.572-3.572h-19.657c-1.973,0-3.572,1.599-3.572,3.572v57.465
											C542.691,281.643,544.291,283.242,546.263,283.242z"/>
										<circle style="fill:#514FF1;" cx="549.033" cy="279.174" r="1.555"/>
									</g>
									<g>
										<path style="fill:#ACA9FF;" d="M378.132,283.242h79.666l0,0c0-4.098-3.322-7.42-7.42-7.42h-69.686
											c-1.414,0-2.561,1.146-2.561,2.56V283.242z"/>
										<path style="fill:#514FF1;" d="M438.663,283.242h19.135l0,0c0-4.098-3.322-7.42-7.42-7.42h-9.377
											c-1.292,0-2.339,1.047-2.339,2.339V283.242L438.663,283.242z"/>
									</g>
									<g>
										<path style="fill:#514FF1;" d="M311.577,247.795h99.446c5.031,0,9.11-4.078,9.11-9.109v-57.738
											c0-5.031-4.078-9.109-9.11-9.109h-99.446V247.795z"/>
										<path style="fill:#ACA9FF;" d="M308.166,247.795h98.92c2.661,0,4.818-2.157,4.818-4.818v-66.321
											c0-2.661-2.157-4.818-4.818-4.818h-98.92c-2.661,0-4.818,2.157-4.818,4.818v66.321
											C303.348,245.638,305.505,247.795,308.166,247.795z"/>
										<path style="fill:#514FF1;" d="M336.263,283.242h24.053l7.156-55.691c0.065-0.51-0.331-0.961-0.845-0.961h-23.085
											L336.263,283.242z"/>
										<path style="fill:#ACA9FF;" d="M328.667,283.242h45.258l0,0c0-3.321-2.692-6.013-6.013-6.013H334.68
											C331.359,277.229,328.667,279.921,328.667,283.242L328.667,283.242z"/>
										<path style="fill:#514FF1;" d="M358.417,283.242h15.508l0,0c0-3.321-2.692-6.013-6.013-6.013h-3.481
											C361.109,277.229,358.417,279.921,358.417,283.242L358.417,283.242L358.417,283.242z"/>
										<path style="fill:#ACA9FF;" d="M332.781,283.242h24.053l7.15-55.741c0.14-1.088-0.707-2.051-1.804-2.051H342.1
											c-1.09,0-2.01,0.809-2.148,1.89L332.781,283.242z"/>
										<circle style="fill:#514FF1;" cx="330.526" cy="243.286" r="1.543"/>
									</g>
									<g>
										<g>
											<rect x="519.642" y="276.671" style="fill:#ACA9FF;" width="17.23" height="3.829"/>
											<path style="fill:#FF6700;" d="M537.969,282.852h-19.425c-0.63,0-1.141-0.511-1.141-1.141v-2.542
												c0-0.63,0.511-1.141,1.141-1.141h19.425c0.63,0,1.141,0.511,1.141,1.141v2.542
												C539.111,282.341,538.6,282.852,537.969,282.852z"/>
											<rect x="518.059" y="276.671" style="fill:#FFFFFF;" width="17.23" height="3.829"/>
											<path style="fill:#FDA702;" d="M536.387,282.852h-19.425c-0.63,0-1.141-0.511-1.141-1.141v-2.542
												c0-0.63,0.511-1.141,1.141-1.141h19.425c0.63,0,1.141,0.511,1.141,1.141v2.542
												C537.528,282.341,537.017,282.852,536.387,282.852z"/>
										</g>
										<g>
											<g>
												<polygon style="fill:#FF6700;" points="497.239,264.57 497.239,272.307 529.019,272.307 532.058,274.794 
													532.058,272.307 532.058,264.57 												"/>
												<g>
													<path style="fill:#FFFFFF;" d="M513.423,267.06h-12.436c-0.204,0-0.37-0.166-0.37-0.37l0,0
														c0-0.204,0.166-0.37,0.37-0.37h12.436c0.205,0,0.37,0.166,0.37,0.37l0,0
														C513.793,266.895,513.627,267.06,513.423,267.06z"/>
													<path style="fill:#FFFFFF;" d="M526.407,268.87h-25.42c-0.204,0-0.37-0.166-0.37-0.37l0,0
														c0-0.204,0.166-0.37,0.37-0.37h25.42c0.204,0,0.37,0.166,0.37,0.37l0,0C526.777,268.704,526.611,268.87,526.407,268.87
														z"/>
													<path style="fill:#FFFFFF;" d="M526.407,270.68h-25.42c-0.204,0-0.37-0.166-0.37-0.37l0,0
														c0-0.204,0.166-0.37,0.37-0.37h25.42c0.204,0,0.37,0.166,0.37,0.37l0,0C526.777,270.514,526.611,270.68,526.407,270.68
														z"/>
												</g>
											</g>
											<g>
												<polygon style="fill:#FFFFFF;" points="520.452,250.538 520.452,260.424 500.279,260.424 497.239,262.912 
													497.239,260.424 497.239,250.538 												"/>
												<g>
													<path style="fill:#FF6700;" d="M508.6,253.243h-7.613c-0.204,0-0.37-0.166-0.37-0.37l0,0c0-0.204,0.166-0.37,0.37-0.37
														h7.613c0.204,0,0.37,0.166,0.37,0.37l0,0C508.97,253.077,508.805,253.243,508.6,253.243z"/>
													<path style="fill:#FF6700;" d="M517.566,255.053h-16.579c-0.204,0-0.37-0.166-0.37-0.37l0,0
														c0-0.204,0.166-0.37,0.37-0.37h16.579c0.205,0,0.37,0.166,0.37,0.37l0,0
														C517.936,254.887,517.77,255.053,517.566,255.053z"/>
													<path style="fill:#FF6700;" d="M517.566,256.863h-16.579c-0.204,0-0.37-0.166-0.37-0.37l0,0
														c0-0.205,0.166-0.37,0.37-0.37h16.579c0.205,0,0.37,0.166,0.37,0.37l0,0
														C517.936,256.697,517.77,256.863,517.566,256.863z"/>
													<g>
														<path style="fill:#FF6700;" d="M517.566,258.705h-16.579c-0.204,0-0.37-0.166-0.37-0.37l0,0
															c0-0.204,0.166-0.37,0.37-0.37h16.579c0.205,0,0.37,0.166,0.37,0.37l0,0
															C517.936,258.539,517.77,258.705,517.566,258.705z"/>
													</g>
												</g>
											</g>
										</g>
									</g>
								</g>
							</g>
						</g>
					</g>
				</g>
			</g>
		</g>
	</g>
</g>
</svg>
