<?xml version="1.0" standalone="no"?>
<!DOCTYPE svg PUBLIC "-//W3C//DTD SVG 20010904//EN"
 "http://www.w3.org/TR/2001/REC-SVG-20010904/DTD/svg10.dtd">
<svg version="1.0" xmlns="http://www.w3.org/2000/svg"
 width="1280.000000pt" height="1200.000000pt" viewBox="0 0 1280.000000 1200.000000"
 preserveAspectRatio="xMidYMid meet">
<metadata>
Created by potrace 1.15, written by Peter Selinger 2001-2017
</metadata>
<g transform="translate(0.000000,1200.000000) scale(0.100000,-0.100000)"
fill="#000000" stroke="none">
<path d="M6265 11985 c-216 -47 -398 -198 -498 -413 -20 -43 -22 -63 -22 -232
0 -214 7 -245 84 -362 89 -135 189 -217 347 -285 68 -29 90 -43 92 -60 4 -25
-75 -487 -328 -1938 -330 -1884 -604 -3430 -617 -3470 -4 -14 -13 -1 -35 55
-29 77 -255 715 -348 985 -28 83 -69 201 -91 263 -38 108 -76 219 -158 455
-22 61 -57 164 -79 227 -50 141 -182 522 -309 890 -52 151 -116 338 -143 415
-27 77 -92 265 -144 418 -53 152 -139 402 -192 555 -52 152 -118 342 -145 422
-28 80 -57 163 -65 184 -8 21 -11 42 -7 46 4 4 44 31 88 60 155 103 284 255
321 377 22 72 20 358 -2 426 -32 95 -116 217 -208 297 -95 84 -253 147 -391
157 -212 15 -445 -91 -573 -261 -104 -137 -132 -223 -132 -400 0 -187 26 -270
123 -402 86 -117 209 -203 362 -254 51 -17 101 -40 110 -50 17 -19 17 -40 -4
-437 -22 -417 -163 -2965 -201 -3628 -11 -192 -29 -516 -41 -720 -11 -203 -24
-378 -27 -388 -5 -13 -139 253 -452 895 -1332 2737 -1570 3240 -1570 3317 0
13 15 30 43 47 78 50 164 149 212 248 102 206 98 408 -13 619 -48 92 -107 156
-208 223 -140 93 -159 98 -374 99 l-185 0 -85 -41 c-99 -48 -193 -116 -242
-176 -130 -159 -186 -392 -140 -576 30 -116 75 -202 149 -282 118 -128 263
-197 478 -228 l119 -17 282 -2255 c155 -1240 288 -2299 294 -2352 l12 -97 241
-293 c611 -744 750 -924 814 -1058 97 -203 399 -898 457 -1052 l25 -65 -59
-144 c-32 -79 -119 -287 -194 -462 -144 -337 -246 -595 -246 -621 0 -56 465
-283 815 -397 318 -104 714 -181 1160 -225 323 -32 3612 -27 4100 6 545 37
1075 172 1605 407 216 95 340 172 340 209 0 26 -102 283 -246 621 -75 175
-162 383 -194 462 l-59 144 25 65 c58 154 360 849 457 1052 64 134 203 314
814 1058 l241 293 12 97 c6 53 139 1112 294 2352 l282 2255 119 17 c66 10 154
29 195 44 283 98 466 359 447 639 -11 149 -67 295 -155 403 -49 60 -143 128
-242 176 l-85 41 -185 0 c-165 -1 -191 -3 -237 -22 -77 -31 -214 -125 -266
-182 -129 -144 -193 -382 -153 -571 23 -111 93 -244 168 -322 35 -36 82 -77
106 -92 27 -17 42 -34 42 -47 0 -77 -238 -580 -1570 -3317 -313 -642 -447
-908 -452 -895 -3 10 -16 185 -27 388 -12 204 -30 528 -41 720 -38 663 -179
3211 -201 3628 -21 397 -21 418 -4 437 9 10 59 33 110 50 153 51 276 137 362
254 97 132 123 215 123 402 0 133 -14 206 -56 282 -80 147 -179 244 -317 312
-319 155 -696 35 -881 -280 -59 -100 -67 -140 -67 -321 0 -191 8 -226 74 -332
55 -88 154 -185 262 -257 44 -29 84 -56 88 -60 4 -4 1 -25 -7 -46 -8 -21 -37
-104 -65 -184 -27 -80 -93 -270 -145 -422 -53 -153 -139 -403 -192 -555 -52
-153 -117 -341 -144 -418 -27 -77 -91 -264 -143 -415 -125 -362 -259 -748
-308 -887 -21 -62 -57 -165 -79 -228 -22 -63 -58 -167 -80 -230 -22 -63 -58
-166 -79 -227 -22 -62 -63 -180 -91 -263 -93 -270 -319 -908 -348 -985 -22
-56 -31 -69 -35 -55 -13 40 -287 1586 -617 3470 -253 1451 -332 1913 -328
1938 2 17 24 31 92 60 158 68 258 150 347 285 77 117 84 148 84 362 0 205 -2
214 -80 336 -155 242 -443 368 -710 309z"/>
</g>
</svg>
