<svg xmlns="http://www.w3.org/2000/svg"  viewBox="0 0 50 50" width="150px" height="150px"><path d="M 2.609375 14.628906 C 2.194125 14.663781 1.8316094 14.997641 2.3496094 15.556641 C 3.3446094 16.118641 1.3683125 16.532203 1.9453125 16.908203 C 2.1293125 17.304203 1.9305781 17.745406 1.3925781 17.816406 C 0.60457812 17.884406 0.67926562 18.960484 1.4472656 18.396484 C 2.3042656 18.124484 1.5954062 18.504031 1.1914062 18.582031 C 0.28440625 18.846031 -0.33364063 19.752078 0.19335938 20.580078 C 0.69735938 21.720078 0.83165625 22.991734 1.2226562 24.177734 C 1.8696563 26.001734 2.8149688 27.737328 4.0429688 29.236328 C 4.6259687 30.086328 5.4782969 30.690313 6.2792969 31.320312 C 7.0672969 31.831312 7.9447969 32.342516 8.8417969 32.603516 C 10.434797 33.186516 12.144359 33.241047 13.818359 33.373047 C 14.838359 33.371047 15.862141 33.299141 16.869141 33.119141 C 17.775141 33.217141 18.427094 32.442563 19.246094 32.851562 C 19.742094 32.411563 20.464938 32.603203 20.960938 32.283203 C 21.327938 31.035203 19.700547 32.035781 19.185547 31.425781 C 18.625547 32.083781 18.155562 31.353594 17.476562 31.558594 C 16.320563 31.616594 17.564156 31.040719 17.535156 30.511719 C 16.922156 30.041719 16.229891 31.157031 15.837891 31.457031 C 14.869891 31.282031 13.911437 31.006891 13.023438 30.587891 C 12.011437 30.060891 11.018156 29.433922 10.285156 28.544922 C 9.5181563 27.636922 8.6703125 26.718734 8.3203125 25.552734 C 7.5803125 23.627734 7.6284531 21.543484 7.4394531 19.521484 C 7.5094531 18.152484 8.9550781 19.668828 9.5800781 19.173828 C 9.3660781 18.463828 8.2257031 18.239078 7.5957031 17.955078 C 6.9877031 17.913078 6.7661406 17.368219 6.1191406 17.324219 C 6.1501406 16.564219 4.9303281 16.982406 4.4863281 16.441406 C 4.9233281 15.313406 3.0385469 16.468187 3.1855469 15.492188 C 3.4925469 14.857687 3.024625 14.594031 2.609375 14.628906 z M 2.6152344 14.724609 C 2.7137969 14.700016 2.8271562 14.719797 2.9414062 14.810547 C 3.4834062 15.540547 1.9445156 14.726828 2.4785156 15.423828 C 2.1537656 15.271578 2.3195469 14.798391 2.6152344 14.724609 z M 41.914062 15.085938 C 41.847063 15.085938 41.671672 15.177281 41.388672 15.363281 C 41.038672 15.589281 40.669203 15.767484 40.283203 15.896484 C 40.041203 15.979484 39.921875 16.095141 39.921875 16.244141 C 39.921875 16.347141 40.005781 16.427375 40.175781 16.484375 C 40.536781 16.603375 40.773719 16.767516 40.886719 16.978516 C 40.969719 17.143516 41.011719 17.436375 41.011719 17.859375 L 41.011719 24.615234 C 41.011719 25.207234 40.868938 25.539328 40.585938 25.611328 C 40.270937 25.693328 40.113281 25.814609 40.113281 25.974609 C 40.113281 26.041609 40.118906 26.094859 40.128906 26.130859 C 40.153906 26.233859 40.321859 26.272094 40.630859 26.246094 C 41.857859 26.148094 42.729141 26.123922 43.244141 26.169922 C 43.409141 26.185922 43.509828 26.178391 43.548828 26.150391 C 43.587828 26.122391 43.607422 26.048687 43.607422 25.929688 C 43.607422 25.779687 43.486141 25.689203 43.244141 25.658203 C 42.852141 25.617203 42.602141 25.560281 42.494141 25.488281 C 42.340141 25.385281 42.256094 25.169844 42.246094 24.839844 C 42.236094 24.509844 42.232422 24.257031 42.232422 24.082031 C 42.232422 23.835031 42.353703 23.643766 42.595703 23.509766 C 42.811703 23.354766 42.962781 23.277344 43.050781 23.277344 C 43.122781 23.277344 43.182516 23.320344 43.228516 23.402344 C 43.795516 24.361344 44.486781 25.278297 45.300781 26.154297 C 45.423781 26.283297 45.630922 26.318719 45.919922 26.261719 C 46.502922 26.215719 46.972984 26.190547 47.333984 26.185547 C 47.575984 26.175547 47.697266 26.078437 47.697266 25.898438 C 47.697266 25.754437 47.668328 25.665812 47.611328 25.632812 C 47.554328 25.599812 47.408875 25.582031 47.171875 25.582031 C 46.852875 25.582031 46.508578 25.425328 46.142578 25.111328 C 45.570578 24.612328 44.962359 23.871578 44.318359 22.892578 C 44.143359 22.619578 44.056641 22.447 44.056641 22.375 C 44.056641 22.329 44.076188 22.290766 44.117188 22.259766 C 44.673188 21.703766 45.1975 21.313797 45.6875 21.091797 C 46.0385 20.926797 46.411594 20.835313 46.808594 20.820312 C 47.061594 20.805312 47.1875 20.710156 47.1875 20.535156 C 47.1875 20.349156 47.107266 20.253047 46.947266 20.248047 C 46.458266 20.248047 45.965703 20.245234 45.470703 20.240234 C 44.759703 20.235234 44.218656 20.20825 43.847656 20.15625 C 43.682656 20.13025 43.591172 20.208672 43.576172 20.388672 C 43.566172 20.568672 43.652031 20.668453 43.832031 20.689453 C 44.249031 20.746453 44.457031 20.843422 44.457031 20.982422 C 44.457031 21.059422 44.395484 21.163969 44.271484 21.292969 C 43.647484 21.833969 43.123312 22.270469 42.695312 22.605469 C 42.535313 22.739469 42.416844 22.806641 42.339844 22.806641 C 42.267844 22.806641 42.230469 22.739469 42.230469 22.605469 L 42.216797 17.767578 C 42.216797 17.133578 42.219609 16.627953 42.224609 16.251953 C 42.229609 15.705953 42.232422 15.450328 42.232422 15.486328 C 42.232422 15.218328 42.125062 15.085938 41.914062 15.085938 z M 24.267578 15.140625 C 24.185578 15.140625 23.988688 15.231969 23.679688 15.417969 C 23.303688 15.654969 22.939844 15.830359 22.589844 15.943359 C 22.357844 16.020359 22.242188 16.137969 22.242188 16.292969 C 22.242187 16.395969 22.322422 16.47425 22.482422 16.53125 C 22.786422 16.63925 22.998141 16.792281 23.119141 16.988281 C 23.240141 17.184281 23.302734 17.491203 23.302734 17.908203 L 23.302734 24.902344 C 23.302734 25.324344 23.161859 25.579062 22.880859 25.664062 C 22.599859 25.749063 22.460938 25.852563 22.460938 25.976562 C 22.460938 26.115562 22.484203 26.201422 22.533203 26.232422 C 22.582203 26.262422 22.712828 26.267094 22.923828 26.246094 C 23.975828 26.158094 24.855406 26.149797 25.566406 26.216797 C 25.798406 26.241797 25.914062 26.151312 25.914062 25.945312 C 25.914062 25.796312 25.799406 25.708594 25.566406 25.683594 C 25.190406 25.637594 24.924531 25.542391 24.769531 25.400391 C 24.614531 25.258391 24.537109 25.030797 24.537109 24.716797 L 24.507812 17.814453 C 24.501812 17.320453 24.506484 16.816641 24.521484 16.306641 C 24.542484 15.770641 24.552734 15.512203 24.552734 15.533203 C 24.552734 15.270203 24.458578 15.140625 24.267578 15.140625 z M 13.988281 15.953125 C 13.931281 15.963125 13.891234 16.017234 13.865234 16.115234 C 13.814234 16.275234 13.891656 16.401141 14.097656 16.494141 C 14.426656 16.644141 14.652437 16.811141 14.773438 16.994141 C 14.894438 17.177141 14.955078 17.439297 14.955078 17.779297 L 14.955078 24.396484 C 14.955078 25.226484 14.702266 25.669563 14.197266 25.726562 C 13.976266 25.747563 13.865234 25.823031 13.865234 25.957031 C 13.865234 26.169031 13.975266 26.259516 14.197266 26.228516 C 14.990266 26.120516 15.99775 26.116844 17.21875 26.214844 C 17.64075 26.250844 17.867438 26.183672 17.898438 26.013672 C 17.929437 25.818672 17.818406 25.707641 17.566406 25.681641 C 17.072406 25.619641 16.750563 25.549656 16.601562 25.472656 C 16.410562 25.379656 16.314453 25.203312 16.314453 24.945312 L 16.314453 21.46875 C 16.314453 21.40275 16.360125 21.367188 16.453125 21.367188 C 17.272125 21.367187 17.865516 21.389594 18.228516 21.433594 C 18.591516 21.477594 18.840609 21.822797 18.974609 22.466797 C 19.011609 22.636797 19.100141 22.712266 19.244141 22.697266 C 19.419141 22.687266 19.505 22.616422 19.5 22.482422 C 19.448 21.359422 19.494672 20.447094 19.638672 19.746094 C 19.664672 19.622094 19.589063 19.541859 19.414062 19.505859 C 19.208063 19.459859 19.088734 19.540094 19.052734 19.746094 C 18.995734 20.123094 18.937906 20.355313 18.878906 20.445312 C 18.819906 20.535312 18.703203 20.590328 18.533203 20.611328 C 17.662203 20.668328 16.998062 20.700078 16.539062 20.705078 C 16.390062 20.710078 16.316406 20.654156 16.316406 20.535156 L 16.316406 17.033203 C 16.316406 16.914203 16.340578 16.836781 16.392578 16.800781 C 16.475578 16.743781 16.651922 16.716797 16.919922 16.716797 C 18.089922 16.716797 18.819281 16.739156 19.113281 16.785156 C 19.386281 16.821156 19.606484 16.928516 19.771484 17.103516 C 19.911484 17.252516 20.057891 17.514625 20.212891 17.890625 C 20.268891 18.029625 20.369672 18.099609 20.513672 18.099609 C 20.657672 18.099609 20.728516 18.019375 20.728516 17.859375 C 20.748516 17.045375 20.802625 16.466094 20.890625 16.121094 C 20.895625 16.100094 20.898391 16.080687 20.900391 16.054688 C 20.900391 15.977687 20.727812 15.94775 20.382812 15.96875 C 19.346812 16.03075 18.117313 16.0625 16.695312 16.0625 C 15.489312 16.0625 14.723437 16.036375 14.398438 15.984375 C 14.176438 15.948375 14.040281 15.938125 13.988281 15.953125 z M 3.7910156 16.136719 C 3.9290156 16.165969 3.9766563 16.248328 3.5976562 16.298828 L 3.4453125 16.291016 C 3.4253125 16.131516 3.6530156 16.107469 3.7910156 16.136719 z M 3.6386719 16.669922 C 3.9126719 16.789922 4.4744063 16.845484 4.5664062 17.146484 C 4.0054062 16.854484 4.6780313 17.498328 4.2070312 17.486328 C 3.9530312 17.489328 3.4826719 16.943922 3.6386719 16.669922 z M 3.4980469 17.123047 C 4.1330469 17.606047 3.1441875 17.122781 2.7421875 17.425781 C 2.1091875 17.489781 3.4360469 17.069047 3.4980469 17.123047 z M 5.1757812 17.412109 C 5.2568125 17.434484 5.2567969 17.511125 5.1230469 17.671875 C 5.6150469 18.259875 5.2334375 18.061531 4.8984375 17.644531 C 5.1924375 17.847531 4.9656719 18.724094 4.5136719 18.121094 C 4.1936719 17.525094 3.9910781 17.927937 4.3300781 18.335938 C 3.9970781 17.708938 3.033125 17.976797 2.328125 18.216797 C 1.873125 18.166797 3.5105 17.828047 3.6875 17.748047 C 3.96125 17.753297 4.9326875 17.344984 5.1757812 17.412109 z M 7.1484375 18.076172 C 7.3495469 18.073578 7.5478906 18.081156 7.7441406 18.097656 C 8.0591406 18.464656 7.5056875 19.085953 6.9296875 19.126953 C 6.2296875 19.388953 5.5171875 19.453063 4.8671875 19.539062 C 4.0331875 19.434063 3.4343125 20.184297 2.5703125 20.279297 C 2.8003125 19.853297 2.3813594 20.132328 1.9433594 20.111328 C 2.1663594 20.971328 0.40035938 19.882781 1.4433594 19.675781 C 0.66135938 19.397781 0.65042188 20.2195 0.73242188 20.6875 L 0.6796875 20.6875 C -0.0363125 19.7655 0.76001562 19.389484 1.6660156 19.271484 C 1.4940156 19.696484 1.9134062 19.833156 2.3164062 19.910156 C 2.9694063 19.730156 1.8868594 19.614359 2.3808594 19.443359 C 2.6518594 19.393359 1.5168906 19.171922 2.4628906 19.044922 C 3.4328906 18.881922 4.3055781 18.500781 5.2675781 18.300781 C 5.9185781 18.171781 6.5451094 18.083953 7.1484375 18.076172 z M 6.9335938 18.294922 C 6.8479687 18.268297 6.648875 18.321844 6.546875 18.589844 C 6.620875 18.758844 6.6575781 18.540422 6.6425781 18.482422 C 6.9920781 18.428922 7.0192188 18.321547 6.9335938 18.294922 z M 4.9160156 18.654297 C 4.6361406 18.641422 4.177625 18.701984 4.015625 18.896484 C 4.221625 18.990484 4.4481406 18.636375 4.7441406 18.859375 C 5.2966406 18.754375 5.1958906 18.667172 4.9160156 18.654297 z M 8.9121094 18.705078 C 9.052002 18.682236 9.4851562 18.843984 9.3320312 19.115234 C 9.2270312 19.145234 9.2449687 18.986937 9.1679688 18.960938 C 8.8507188 18.799312 8.8281738 18.718783 8.9121094 18.705078 z M 3.4863281 19.080078 C 3.4131875 19.08 3.3546563 19.113125 3.3476562 19.203125 L 3.4882812 19.332031 C 4.0500312 19.377781 3.70575 19.080313 3.4863281 19.080078 z M 3.171875 19.337891 C 3.0675937 19.322656 2.9709687 19.380422 2.9179688 19.576172 C 3.0159688 19.552172 3.171625 19.608688 3.265625 19.679688 C 3.858125 20.084688 3.4847187 19.383594 3.171875 19.337891 z M 6.9824219 19.433594 C 7.5024453 19.33182 7.3507187 20.677922 7.1835938 21.091797 C 7.4985937 20.876797 7.4379375 22.090969 7.3359375 22.542969 C 7.5079375 22.311969 7.5787188 22.91675 7.3867188 23.34375 C 7.4027188 23.27375 7.8028125 23.21275 7.5078125 23.71875 C 7.2828125 23.22275 7.1850781 24.727734 7.3300781 24.052734 C 7.7270781 23.414734 7.6231406 24.018781 7.7441406 24.300781 C 7.8221406 24.885781 8.0831094 25.425359 8.1621094 25.943359 C 8.5291094 26.313359 8.0058125 26.0625 8.0078125 26.5625 C 8.1268125 26.4175 8.612375 26.766156 8.609375 27.285156 C 8.649375 26.462156 8.6966563 27.092641 9.0976562 27.306641 C 9.4326562 27.846641 9.6835938 28.351875 10.183594 28.796875 C 10.573594 29.247875 10.159125 28.931031 10.328125 29.207031 C 10.742125 29.941031 11.70125 30.366594 12.53125 30.558594 C 12.89525 31.032594 13.441641 31.504062 14.181641 31.289062 C 13.555641 31.675063 15.944719 31.780047 15.136719 31.998047 C 14.716719 32.226047 14.318203 31.851094 13.908203 31.871094 C 13.338203 31.675094 12.437172 31.074422 11.826172 31.482422 C 10.981172 32.011422 12.259219 30.892578 11.574219 31.392578 C 10.880219 32.225578 11.102781 30.874297 10.425781 31.279297 C 10.386781 31.150297 9.824 31.114719 10.25 30.886719 C 9.868 30.862719 10.106141 30.838203 10.244141 30.533203 C 10.080141 30.499203 9.1685469 30.531422 8.8105469 30.232422 C 8.3885469 29.683422 8.8842188 29.906328 9.3242188 29.986328 C 8.6182188 30.110328 9.5670625 30.516016 10.039062 30.291016 C 9.8270625 30.201016 9.5844375 29.742797 9.0234375 29.341797 C 8.2394375 28.869797 7.59425 28.644578 6.78125 28.267578 C 5.90125 27.745578 6.9782031 28.082422 7.2832031 28.357422 C 8.1612031 28.744422 7.8156406 27.814266 7.3066406 27.572266 C 6.7486406 27.595266 6.6052031 26.954234 6.1582031 26.990234 C 6.8642031 27.103234 7.3543594 26.807656 6.5683594 26.097656 C 5.8213594 25.225656 6.8803125 26.755594 6.4453125 26.558594 C 6.2473125 26.297594 6.3956719 25.922109 5.7636719 25.787109 C 5.7566719 26.028109 5.6770625 26.401531 5.5390625 25.894531 C 5.3630625 25.924531 5.1615781 26.117703 5.0175781 25.595703 C 5.1535781 25.002703 4.4303594 24.867281 4.3183594 24.488281 C 4.9433594 24.887281 5.2262031 24.572719 4.7832031 24.136719 C 4.4782031 23.603719 4.435625 24.021703 4.265625 24.095703 C 3.652625 24.721703 4.2095 23.015812 3.9375 23.507812 C 3.6635 23.499813 3.8211719 23.809359 3.8261719 24.193359 C 2.9301719 23.971359 4.0437344 24.664875 4.3027344 25.046875 C 3.8937344 24.618875 3.9630938 25.367719 3.6210938 25.011719 C 3.5050937 24.696719 3.4889219 24.199328 2.9199219 24.111328 C 3.5669219 23.887328 2.5350938 23.432203 2.6210938 23.408203 C 2.9910937 23.071203 3.038375 22.608031 3.484375 23.332031 C 2.919375 23.286031 3.4684219 24.264656 3.6074219 23.972656 C 3.5854219 23.471656 3.838375 22.945844 2.984375 22.714844 C 2.733375 23.052844 2.3007344 22.052672 2.8027344 22.263672 C 2.7367344 21.599672 3.5813437 21.991125 3.5273438 21.703125 C 3.9633438 21.512125 2.9995312 20.895437 3.5195312 20.648438 C 3.9175312 20.890438 4.9498594 20.267641 4.2558594 20.181641 C 4.6898594 20.177641 5.0379844 20.367734 5.0839844 19.927734 C 5.4349844 20.003734 6.3844844 20.306078 5.5214844 19.830078 C 5.7974844 19.693078 6.3807969 19.577266 6.7167969 19.572266 C 6.8204219 19.491641 6.9081328 19.448133 6.9824219 19.433594 z M 36.621094 19.992188 C 35.957094 19.992188 35.426297 20.140453 35.029297 20.439453 C 34.601297 20.749453 34.388672 21.181281 34.388672 21.738281 C 34.388672 22.191281 34.525828 22.552312 34.798828 22.820312 C 35.050828 23.072312 35.552687 23.366172 36.304688 23.701172 C 36.824688 23.928172 37.175469 24.126875 37.355469 24.296875 C 37.520469 24.446875 37.603516 24.631516 37.603516 24.853516 C 37.603516 25.358516 37.240672 25.611328 36.513672 25.611328 C 35.652672 25.611328 35.028578 25.274609 34.642578 24.599609 C 34.554578 24.450609 34.448219 24.383437 34.324219 24.398438 C 34.200219 24.408438 34.138672 24.549266 34.138672 24.822266 C 34.138672 25.456266 34.160172 25.810813 34.201172 25.882812 C 34.268172 25.959812 34.510734 26.043719 34.927734 26.136719 C 35.411734 26.239719 35.896859 26.292969 36.380859 26.292969 C 37.107859 26.292969 37.681562 26.130594 38.101562 25.808594 C 38.521563 25.486594 38.730469 25.053812 38.730469 24.507812 C 38.730469 24.013813 38.576531 23.619266 38.269531 23.322266 C 38.032531 23.096266 37.583828 22.839641 36.923828 22.556641 C 36.294828 22.283641 35.896563 22.082125 35.726562 21.953125 C 35.535562 21.803125 35.439453 21.604563 35.439453 21.351562 C 35.439453 20.898562 35.792047 20.671875 36.498047 20.671875 C 37.122047 20.671875 37.637922 21.002969 38.044922 21.667969 C 38.101922 21.760969 38.214766 21.789906 38.384766 21.753906 C 38.543766 21.712906 38.616563 21.658797 38.601562 21.591797 C 38.472563 21.045797 38.386703 20.628844 38.345703 20.339844 C 38.329703 20.241844 38.136625 20.158797 37.765625 20.091797 C 37.420625 20.025797 37.038094 19.992188 36.621094 19.992188 z M 30.1875 20.023438 C 29.5795 20.023438 28.947109 20.197969 28.287109 20.542969 C 27.658109 20.872969 27.34375 21.161203 27.34375 21.408203 C 27.34375 21.804203 27.555516 21.982406 27.978516 21.941406 C 28.349516 21.910406 28.634031 21.695828 28.832031 21.298828 C 29.030031 20.901828 29.240891 20.703125 29.462891 20.703125 C 30.240891 20.703125 30.613031 21.127656 30.582031 21.972656 L 30.568359 22.466797 C 30.563359 22.682797 30.385156 22.825578 30.035156 22.892578 C 27.994156 23.279578 26.974609 23.917594 26.974609 24.808594 C 26.974609 25.277594 27.1285 25.648875 27.4375 25.921875 C 27.7205 26.168875 28.073094 26.292969 28.496094 26.292969 C 28.944094 26.292969 29.390984 26.187562 29.833984 25.976562 C 30.276984 25.765563 30.522359 25.658203 30.568359 25.658203 C 30.630359 25.658203 30.737578 25.757125 30.892578 25.953125 C 31.046578 26.149125 31.224781 26.246094 31.425781 26.246094 C 31.662781 26.246094 31.979047 26.136969 32.373047 25.917969 C 32.767047 25.698969 32.964844 25.535734 32.964844 25.427734 C 32.964844 25.226734 32.889281 25.126 32.738281 25.125 C 32.712281 25.125 32.620937 25.138063 32.460938 25.164062 C 32.300938 25.190062 32.193719 25.203125 32.136719 25.203125 C 31.848719 25.203125 31.705938 25.036172 31.710938 24.701172 L 31.742188 21.515625 C 31.752188 20.520625 31.2335 20.023438 30.1875 20.023438 z M 6.9257812 20.259766 C 6.7942969 20.297453 6.5887187 20.996344 6.7304688 21.246094 C 7.0424688 21.743094 7.3546563 20.024563 7.0976562 20.601562 C 6.9596562 21.336562 6.8185781 21.029422 7.0175781 20.482422 C 7.0055781 20.306672 6.9696094 20.247203 6.9257812 20.259766 z M 2.5351562 20.910156 C 2.5848594 20.907924 2.6721406 20.911906 2.8066406 20.925781 C 3.5006406 20.901781 3.2778125 21.310891 2.8828125 21.337891 C 2.8738125 21.363891 2.5209687 21.25325 2.6679688 21.15625 C 3.6199688 21.277 2.1872344 20.925783 2.5351562 20.910156 z M 4.2832031 21.152344 C 4.3410781 21.282094 4.4392344 21.526266 4.3652344 21.634766 C 4.5602344 21.827766 5.2264062 22.171219 4.6914062 21.699219 C 5.0324062 21.631219 4.6463594 21.523328 4.4433594 21.361328 C 4.2078594 21.007828 4.2253281 21.022594 4.2832031 21.152344 z M 2.0195312 21.169922 C 2.1770313 21.163797 2.3387031 21.244641 2.0332031 21.431641 C 1.7087031 21.269141 1.8620313 21.176047 2.0195312 21.169922 z M 6.4589844 21.625 C 6.448875 21.610625 6.4435781 21.623359 6.4550781 21.693359 C 6.5728281 21.957359 6.4893125 21.668125 6.4589844 21.625 z M 4.09375 21.888672 C 4.18575 22.021672 4.4347812 21.962797 4.5507812 22.091797 C 5.5987812 22.525797 4.45675 21.810672 4.09375 21.888672 z M 3.9296875 21.970703 C 3.8781301 21.982421 3.8873906 22.050922 4.0019531 22.208984 C 4.0739531 22.371984 4.2475781 22.385828 4.3925781 22.423828 C 5.5170781 22.942203 4.1531028 21.919925 3.9296875 21.970703 z M 1.9941406 22.058594 C 2.1650156 22.086469 2.3705312 22.178578 2.1445312 22.267578 L 2.0527344 22.232422 C 1.6872344 22.065922 1.8232656 22.030719 1.9941406 22.058594 z M 3.5839844 22.195312 C 3.5327813 22.197984 3.5767031 22.274828 3.8144531 22.486328 L 3.96875 22.644531 C 4.74875 22.858281 3.7375937 22.187297 3.5839844 22.195312 z M 3.4785156 22.404297 C 3.43825 22.403031 3.8000625 22.789953 3.6328125 22.783203 C 3.0538125 22.360203 3.2901875 22.659375 3.6171875 22.984375 C 3.9721875 23.511375 4.2655 22.670453 3.6875 22.564453 C 3.55 22.448953 3.4919375 22.404719 3.4785156 22.404297 z M 5.9355469 22.955078 C 5.9281875 22.979219 5.9269063 23.060781 5.9414062 23.238281 C 6.0381563 23.326031 5.957625 22.882656 5.9355469 22.955078 z M 6.4472656 23 C 6.3225312 23.00075 6.2288594 23.885063 6.5371094 24.070312 C 6.6641094 24.435312 6.7997031 24.285094 6.8457031 23.871094 C 6.5477031 23.877094 6.9683594 23.222562 6.5683594 23.351562 C 6.5333594 23.096812 6.4888438 22.99975 6.4472656 23 z M 7.3085938 23.019531 C 7.2862187 22.969906 7.2323906 23.078406 7.2128906 23.441406 L 7.2128906 23.544922 C 7.3208906 23.276422 7.3309688 23.069156 7.3085938 23.019531 z M 1.46875 23.048828 C 1.5477813 23.029797 1.99825 23.942109 1.9375 24.193359 C 1.6615 24.097359 1.674875 23.6655 1.546875 23.4375 C 1.458125 23.16525 1.4424062 23.055172 1.46875 23.048828 z M 4.7597656 23.09375 C 4.6867656 23.29675 4.9147344 23.962453 5.0527344 24.189453 C 5.4047344 24.730453 5.2468125 23.893594 5.6328125 24.433594 C 5.4208125 23.959594 5.7325 24.217625 5.6875 24.015625 C 5.5895 23.811625 4.6402656 22.731875 5.0722656 23.546875 C 5.4632656 24.518875 4.8267656 23.42475 4.7597656 23.09375 z M 1.2832031 23.251953 C 1.388877 23.320068 1.6721094 23.780859 1.7246094 24.037109 C 2.1696094 24.573109 1.9940781 24.868391 2.4550781 25.525391 C 1.8620781 25.151391 1.7500469 24.258641 1.3730469 23.681641 C 1.2189219 23.311516 1.2197988 23.211084 1.2832031 23.251953 z M 30.371094 23.373047 C 30.421969 23.376922 30.462141 23.389656 30.494141 23.410156 C 30.559141 23.451156 30.588984 23.535062 30.583984 23.664062 L 30.568359 24.933594 C 30.568359 25.093594 30.408844 25.23075 30.089844 25.34375 C 29.816844 25.44175 29.550969 25.490234 29.292969 25.490234 C 28.648969 25.490234 28.326172 25.194562 28.326172 24.601562 C 28.326172 24.013563 28.947453 23.608719 30.189453 23.386719 C 30.258953 23.373719 30.320219 23.369172 30.371094 23.373047 z M 4.5566406 24.931641 C 4.7951875 25.006508 4.6510156 25.786703 5.0097656 25.892578 C 5.8107656 26.937578 4.4549531 25.923266 4.0019531 25.822266 C 4.0599531 25.819266 3.5998281 25.691484 3.7988281 25.646484 C 3.6538281 25.497484 3.3293125 24.956359 4.0703125 25.318359 C 4.6593125 25.613359 4.7087344 25.414313 4.4277344 24.945312 C 4.4799844 24.923188 4.5225625 24.920945 4.5566406 24.931641 z M 1.8535156 25.083984 C 1.8733438 24.984234 2.2812187 25.640313 2.3554688 25.914062 C 2.5794687 26.627062 3.2805625 27.037766 3.3515625 27.509766 C 4.1285625 27.957766 3.7298125 28.688531 4.3828125 28.894531 C 4.6728125 28.747531 4.7013594 29.774547 5.3183594 29.560547 C 4.9753594 29.721547 5.4627656 29.911938 5.6347656 30.210938 C 6.0237656 30.157937 6.8763438 31.067906 6.0273438 30.753906 C 5.6693438 30.677906 5.424875 30.3055 5.171875 30.0625 C 4.420875 29.5855 3.9334844 28.787437 3.5214844 28.023438 C 2.9904844 27.220438 2.3512812 26.417516 1.9882812 25.478516 C 1.8817813 25.234766 1.8469062 25.117234 1.8535156 25.083984 z M 7.8203125 25.6875 C 7.7807266 25.707779 7.7786563 25.826438 7.8945312 26.085938 L 7.9628906 26.197266 C 8.0572656 25.890391 7.8862891 25.653701 7.8203125 25.6875 z M 5.1191406 26.605469 C 5.3401406 26.653594 5.6726406 26.772328 5.8066406 26.798828 C 5.8436406 26.957828 5.0491406 26.933141 5.7441406 27.244141 C 5.3391406 27.233141 5.2169219 27.202641 5.7949219 27.556641 C 5.5679219 27.738641 6.2525781 27.88325 6.0175781 28.15625 C 6.7145781 28.70025 5.89175 28.294266 5.59375 28.072266 C 5.41775 27.950266 4.7005 27.707828 4.8125 27.548828 C 5.6585 27.992828 5.0272969 27.529375 4.6542969 27.234375 C 5.3362969 27.401375 4.1078125 26.72925 4.7578125 26.90625 C 4.9508125 26.95325 4.4655625 26.508031 5.1015625 26.832031 C 4.7885625 26.579031 4.8981406 26.557344 5.1191406 26.605469 z M 9.3613281 28.310547 C 9.2741875 28.279797 9.3604375 28.617062 9.5546875 28.820312 C 9.9686875 29.313312 9.6537656 28.540422 9.5097656 28.482422 C 9.4397656 28.372172 9.390375 28.320797 9.3613281 28.310547 z M 5.7089844 28.794922 C 5.9394844 28.797422 6.3163281 28.901391 6.5488281 29.025391 C 7.5688281 29.252391 6.3318281 29.525891 5.9238281 29.212891 L 5.7519531 29.175781 C 5.3954531 28.892781 5.4784844 28.792422 5.7089844 28.794922 z M 6.9277344 28.902344 C 7.0125684 28.884238 7.398125 29.042813 7.5625 29.195312 C 8.0515 29.261313 8.0536719 29.484703 7.5136719 29.345703 C 7.4176719 29.286703 7.2628906 29.290016 7.2128906 29.166016 C 6.9346406 28.988266 6.876834 28.913207 6.9277344 28.902344 z M 7.578125 28.910156 C 7.732375 28.907531 7.9849531 28.951359 8.0644531 29.068359 C 9.1354531 29.240359 7.9966875 29.315203 7.6796875 29.033203 C 7.3681875 28.961703 7.423875 28.912781 7.578125 28.910156 z M 7.578125 29.513672 C 7.6939063 29.488078 8.45 29.800219 7.90625 29.730469 L 7.7480469 29.679688 C 7.5722969 29.569438 7.5395312 29.522203 7.578125 29.513672 z M 11.181641 29.695312 C 11.215391 29.707172 11.249688 29.738078 11.273438 29.798828 C 10.992188 29.794328 11.080391 29.659734 11.181641 29.695312 z M 7.5820312 29.988281 C 7.8017344 30.009516 8.6469375 30.471266 7.8984375 30.259766 L 7.7832031 30.214844 L 7.6523438 30.154297 C 7.5040938 30.022547 7.5087969 29.981203 7.5820312 29.988281 z M 9.4003906 31.205078 C 9.5019219 31.188906 10.335703 31.264563 9.6269531 31.257812 C 9.4137031 31.225313 9.3665469 31.210469 9.4003906 31.205078 z M 7.1835938 31.328125 C 7.243625 31.341541 7.3387656 31.370875 7.4785156 31.421875 C 8.3735156 31.974875 9.4053281 32.267359 10.361328 32.693359 C 11.201328 32.803359 12.087063 33.025656 12.914062 32.847656 C 13.604062 33.192656 14.319719 32.758313 15.011719 33.070312 C 13.482719 33.368312 11.909719 33.042078 10.386719 32.830078 C 9.4267187 32.709078 8.5693594 32.310641 7.6933594 31.931641 C 7.5663594 31.871641 7.4462187 31.796563 7.3242188 31.726562 C 6.7222187 31.392563 6.7968125 31.324344 7.3828125 31.652344 C 7.5898125 31.817344 9.058375 32.418484 8.359375 32.021484 C 8.095125 31.955859 6.763375 31.234213 7.1835938 31.328125 z M 12.75 31.59375 C 12.8185 31.63775 12.820859 31.781391 12.818359 31.962891 C 12.358359 32.470891 12.632656 31.75525 12.347656 32.03125 C 12.084656 32.24125 12.147063 31.906172 12.289062 31.826172 C 12.546563 31.605672 12.6815 31.54975 12.75 31.59375 z M 16.583984 31.755859 C 16.994609 31.791234 17.464328 31.886078 17.736328 31.892578 C 17.571328 32.239578 16.551516 31.920719 16.103516 32.011719 L 15.910156 32 L 15.791016 31.980469 C 15.822516 31.744469 16.173359 31.720484 16.583984 31.755859 z M 20.115234 31.867188 C 21.177234 31.866187 20.185266 32.021531 19.697266 32.019531 C 19.143266 31.889531 19.948234 31.893187 20.115234 31.867188 z M 13.71875 32.005859 C 13.80375 31.996234 13.832797 32.06325 13.591797 32.21875 L 13.503906 32.246094 C 13.491906 32.100094 13.63375 32.015484 13.71875 32.005859 z M 13.314453 32.068359 C 13.330078 32.092516 13.295156 32.161687 13.160156 32.304688 C 12.767156 32.330187 13.267578 31.995891 13.314453 32.068359 z M 9.4824219 32.177734 C 9.5783281 32.153641 10.611391 32.451578 10.744141 32.423828 C 11.797141 32.814828 10.115578 32.551031 9.7675781 32.332031 C 9.5233281 32.228781 9.4504531 32.185766 9.4824219 32.177734 z M 14.570312 32.228516 C 14.572594 32.25475 14.517781 32.316234 14.363281 32.427734 L 14.234375 32.511719 C 14.051375 32.384969 14.563469 32.149813 14.570312 32.228516 z"/></svg>