<svg width="24" height="24" viewBox="0 0 24 24" fill="none" xmlns="http://www.w3.org/2000/svg">
<g clip-path="url(#clip0_2643_3770)">
<path d="M6 21C7.10457 21 8 20.1046 8 19C8 17.8954 7.10457 17 6 17C4.89543 17 4 17.8954 4 19C4 20.1046 4.89543 21 6 21Z" stroke="#5D87FF" stroke-width="1.5" stroke-linecap="round" stroke-linejoin="round"/>
<path d="M17 21C18.1046 21 19 20.1046 19 19C19 17.8954 18.1046 17 17 17C15.8954 17 15 17.8954 15 19C15 20.1046 15.8954 21 17 21Z" stroke="#5D87FF" stroke-width="1.5" stroke-linecap="round" stroke-linejoin="round"/>
<path d="M17 17H6V3H4" stroke="#5D87FF" stroke-width="1.5" stroke-linecap="round" stroke-linejoin="round"/>
<path d="M6 5L20 6L19 13H6" stroke="#5D87FF" stroke-width="1.5" stroke-linecap="round" stroke-linejoin="round"/>
</g>
<defs>
<clipPath id="clip0_2643_3770">
<rect width="24" height="24" fill="white"/>
</clipPath>
</defs>
</svg>
