<svg width="24" height="24" viewBox="0 0 24 24" fill="none" xmlns="http://www.w3.org/2000/svg">
<path d="M16 22H8C7.20459 21.9992 6.44199 21.6829 5.87956 21.1204C5.31712 20.558 5.00079 19.7954 5 19V5C5.00079 4.20459 5.31712 3.44199 5.87956 2.87956C6.44199 2.31712 7.20459 2.00079 8 2H16C16.7954 2.00079 17.558 2.31712 18.1204 2.87956C18.6829 3.44199 18.9992 4.20459 19 5V19C18.9992 19.7954 18.6829 20.558 18.1204 21.1204C17.558 21.6829 16.7954 21.9992 16 22Z" fill="#FFC6B7"/>
<path d="M16 22H8C7.20435 22 6.44129 21.6839 5.87868 21.1213C5.31607 20.5587 5 19.7956 5 19V16H19V19C19 19.7956 18.6839 20.5587 18.1213 21.1213C17.5587 21.6839 16.7956 22 16 22Z" fill="#FA896B"/>
</svg>
