<svg width="24" height="24" viewBox="0 0 24 24" fill="none" xmlns="http://www.w3.org/2000/svg">
<path d="M8.5 22C9.32843 22 10 21.3284 10 20.5C10 19.6716 9.32843 19 8.5 19C7.67157 19 7 19.6716 7 20.5C7 21.3284 7.67157 22 8.5 22Z" fill="#465670"/>
<path d="M16.5 22C17.3284 22 18 21.3284 18 20.5C18 19.6716 17.3284 19 16.5 19C15.6716 19 15 19.6716 15 20.5C15 21.3284 15.6716 22 16.5 22Z" fill="#465670"/>
<path d="M19 18H7C6.2319 18.0003 5.49296 17.7059 4.93542 17.1776C4.37788 16.6493 4.04422 15.9272 4.0032 15.1602C3.96218 14.3932 4.21691 13.6397 4.71492 13.0549C5.21292 12.4701 5.91625 12.0987 6.68 12.017L4.882 5.725C4.8215 5.51644 4.69508 5.33309 4.52166 5.2024C4.34824 5.0717 4.13715 5.00069 3.92 5H3C2.73478 5 2.48043 4.89464 2.29289 4.70711C2.10536 4.51957 2 4.26522 2 4C2 3.73478 2.10536 3.48043 2.29289 3.29289C2.48043 3.10536 2.73478 3 3 3H3.921C4.57254 3.00187 5.2059 3.21496 5.72607 3.6073C6.24624 3.99963 6.62516 4.55006 6.806 5.176L8.961 12.726C9.00338 12.8747 9.01068 13.0313 8.98233 13.1833C8.95398 13.3353 8.89075 13.4787 8.79761 13.6022C8.70448 13.7257 8.58398 13.8259 8.44558 13.8949C8.30718 13.9639 8.15466 13.9999 8 14H7C6.73478 14 6.48043 14.1054 6.29289 14.2929C6.10536 14.4804 6 14.7348 6 15C6 15.2652 6.10536 15.5196 6.29289 15.7071C6.48043 15.8946 6.73478 16 7 16H19C19.2652 16 19.5196 16.1054 19.7071 16.2929C19.8946 16.4804 20 16.7348 20 17C20 17.2652 19.8946 17.5196 19.7071 17.7071C19.5196 17.8946 19.2652 18 19 18Z" fill="#C1C6EF"/>
<path d="M6.806 5.176L8.961 12.726C9.00338 12.8747 9.01068 13.0313 8.98233 13.1833C8.95398 13.3353 8.89075 13.4787 8.79761 13.6022C8.70448 13.7257 8.58398 13.8259 8.44558 13.8949C8.30718 13.9639 8.15466 13.9999 8 14H15.491C16.1425 13.998 16.7758 13.7848 17.2959 13.3925C17.8161 13.0002 18.195 12.4499 18.376 11.824L19.961 6.274C20.0034 6.12526 20.0107 5.96872 19.9823 5.81669C19.954 5.66465 19.8907 5.52126 19.7976 5.3978C19.7045 5.27433 19.584 5.17414 19.4456 5.10512C19.3072 5.0361 19.1547 5.00011 19 5H6.74C6.76 5.06 6.788 5.115 6.806 5.176Z" fill="#465670"/>
</svg>
