<svg width="24" height="24" viewBox="0 0 24 24" fill="none" xmlns="http://www.w3.org/2000/svg">
<path d="M16.34 2.99998L13.91 9.68998C13.3734 9.24416 12.6977 9.00011 12 9.00011C11.3023 9.00011 10.6266 9.24416 10.09 9.68998L7.66 2.99998C9.01215 2.34195 10.4962 2 12 2C13.5038 2 14.9878 2.34195 16.34 2.99998ZM16.34 21C14.9878 21.658 13.5038 22 12 22C10.4962 22 9.01215 21.658 7.66 21L10.09 14.31C11.197 15.23 12.803 15.23 13.91 14.31L16.34 21ZM22 12C22.0024 13.504 21.6603 14.9886 21 16.34L14.31 13.91C14.756 13.3734 15.0002 12.6977 15.0002 12C15.0002 11.3023 14.756 10.6265 14.31 10.09L21 7.65998C21.6603 9.01134 22.0023 10.4959 22 12ZM9 12C9 12.698 9.245 13.373 9.69 13.91L3 16.34C2.34197 14.9878 2.00002 13.5037 2.00002 12C2.00002 10.4962 2.34197 9.01213 3 7.65998L9.69 10.09C9.2448 10.627 9.00079 11.3024 9 12Z" fill="#B2B1FF"/>
<path d="M9.69 10.09C9.662 10.124 9.642 10.163 9.615 10.198C9.782 9.978 9.977 9.783 10.197 9.616C10.162 9.642 10.124 9.662 10.09 9.69L7.66 3C5.62618 3.98385 3.98441 5.62597 3.001 7.66L9.69 10.09ZM13.91 9.69C13.876 9.662 13.838 9.642 13.803 9.616C14.023 9.782 14.217 9.977 14.383 10.197C14.357 10.162 14.338 10.124 14.31 10.09L20.995 7.662C20.0109 5.62987 18.3701 3.98909 16.338 3.005L13.91 9.69ZM14.31 13.91C14.341 13.872 14.363 13.83 14.393 13.79C14.221 14.02 14.019 14.221 13.79 14.393C13.83 14.363 13.872 14.342 13.91 14.31L16.34 21C18.3738 20.0162 20.0156 18.374 20.999 16.34L14.31 13.91ZM10.09 14.31C10.124 14.338 10.162 14.358 10.197 14.384C9.97762 14.2179 9.78212 14.0224 9.616 13.803C9.642 13.837 9.662 13.876 9.69 13.91L3.001 16.34C3.98484 18.3738 5.62697 20.0156 7.661 20.999L10.09 14.31Z" fill="#5D87FF"/>
</svg>
