<svg width="24" height="25" viewBox="0 0 24 25" fill="none" xmlns="http://www.w3.org/2000/svg">
<path d="M8.88198 20.44C8.80489 20.9257 8.38611 21.2833 7.89434 21.2833H4.06259C3.21585 21.2851 2.52796 20.6001 2.52613 19.7534C2.52595 19.6679 2.53292 19.5825 2.54698 19.4981L5.13682 3.0918C5.28407 2.17638 6.07291 1.50247 7.0001 1.5H13.214C15.7745 1.5 17.6222 2.12012 18.7061 3.34277C19.7528 4.54862 20.1548 6.18467 19.7862 7.73828C19.7647 7.87305 19.7432 8.00879 19.711 8.15628C18.8878 12.3741 16.0558 14.6133 11.5255 14.6133H9.80674L8.88198 20.44ZM4.52256 19.8116L4.52061 19.8184L4.52256 19.8116ZM7.11338 3.39657L7.11238 3.39857L7.11338 3.39657Z" fill="#B2B1FF"/>
<path d="M20.4365 7.60468C20.2704 7.41871 20.0878 7.24891 19.8915 7.09668C19.8696 7.31128 19.8366 7.52564 19.7861 7.73846C19.7647 7.87323 19.7431 8.00897 19.7109 8.15643C18.8877 12.3742 16.0557 14.6135 11.5254 14.6135H9.80664L8.8819 20.4402C8.80481 20.9259 8.38599 21.2835 7.89423 21.2835H6.72656L6.64453 21.8039C6.63257 21.8796 6.62652 21.9561 6.62646 22.0328C6.62616 22.8429 7.28265 23.4999 8.09277 23.5002H11.3272C12.1928 23.5075 12.9353 22.8843 13.0782 22.0305L13.7188 17.9992L13.7296 17.9446H14.0284C18.0606 17.9446 20.5792 15.9514 21.3135 12.1818C21.7679 10.6036 21.4421 8.90327 20.4365 7.60468Z" fill="#615DFF"/>
</svg>
