<svg width="24" height="24" viewBox="0 0 24 24" fill="none" xmlns="http://www.w3.org/2000/svg">
<path d="M18 20V2.99998C17.9999 2.8248 17.9537 2.65273 17.8662 2.50099C17.7786 2.34926 17.6528 2.22318 17.5012 2.13539C17.3496 2.04759 17.1776 2.00116 17.0024 2.00074C16.8272 2.00031 16.655 2.04592 16.503 2.13298L13.5 3.85298L10.497 2.13298C10.3457 2.04632 10.1744 2.00073 10 2.00073C9.82564 2.00073 9.6543 2.04632 9.503 2.13298L6.5 3.85298L3.497 2.13298C3.34499 2.04592 3.17277 2.00031 2.99759 2.00074C2.82241 2.00116 2.65042 2.04759 2.49883 2.13539C2.34724 2.22318 2.22137 2.34926 2.13382 2.50099C2.04628 2.65273 2.00013 2.8248 2 2.99998V20C2 20.5304 2.21071 21.0391 2.58579 21.4142C2.96086 21.7893 3.46957 22 4 22H20C19.4696 22 18.9609 21.7893 18.5858 21.4142C18.2107 21.0391 18 20.5304 18 20Z" fill="#BBD7FF"/>
<path d="M21.999 14V20C21.999 20.5304 21.7883 21.0391 21.4132 21.4142C21.0381 21.7893 20.5294 22 19.999 22C19.4686 22 18.9599 21.7893 18.5848 21.4142C18.2097 21.0391 17.999 20.5304 17.999 20V12H19.999C20.5294 12 21.0381 12.2107 21.4132 12.5858C21.7883 12.9609 21.999 13.4696 21.999 14ZM10.5 16.5H8C7.73478 16.5 7.48043 16.3946 7.29289 16.2071C7.10536 16.0196 7 15.7652 7 15.5C7 15.2348 7.10536 14.9804 7.29289 14.7929C7.48043 14.6054 7.73478 14.5 8 14.5H10.5C10.6326 14.5 10.7598 14.4473 10.8536 14.3536C10.9473 14.2598 11 14.1326 11 14C11 13.8674 10.9473 13.7402 10.8536 13.6464C10.7598 13.5527 10.6326 13.5 10.5 13.5H9.5C8.83696 13.5 8.20107 13.2366 7.73223 12.7678C7.26339 12.2989 7 11.663 7 11C7 10.337 7.26339 9.70107 7.73223 9.23223C8.20107 8.76339 8.83696 8.5 9.5 8.5H12C12.2652 8.5 12.5196 8.60536 12.7071 8.79289C12.8946 8.98043 13 9.23478 13 9.5C13 9.76522 12.8946 10.0196 12.7071 10.2071C12.5196 10.3946 12.2652 10.5 12 10.5H9.5C9.36739 10.5 9.24021 10.5527 9.14645 10.6464C9.05268 10.7402 9 10.8674 9 11C9 11.1326 9.05268 11.2598 9.14645 11.3536C9.24021 11.4473 9.36739 11.5 9.5 11.5H10.5C11.163 11.5 11.7989 11.7634 12.2678 12.2322C12.7366 12.7011 13 13.337 13 14C13 14.663 12.7366 15.2989 12.2678 15.7678C11.7989 16.2366 11.163 16.5 10.5 16.5Z" fill="#539BFF"/>
<path d="M10 10.5C9.73496 10.5 9.48075 10.3948 9.29325 10.2075C9.10574 10.0201 9.00027 9.76604 9 9.501V8C9 7.73478 9.10536 7.48043 9.29289 7.29289C9.48043 7.10536 9.73478 7 10 7C10.2652 7 10.5196 7.10536 10.7071 7.29289C10.8946 7.48043 11 7.73478 11 8V9.5C11 9.76504 10.8948 10.0192 10.7075 10.2068C10.5201 10.3943 10.266 10.4997 10.001 10.5H10ZM10 18C9.73496 18 9.48075 17.8948 9.29325 17.7075C9.10574 17.5201 9.00027 17.266 9 17.001V15.5C9 15.2348 9.10536 14.9804 9.29289 14.7929C9.48043 14.6054 9.73478 14.5 10 14.5C10.2652 14.5 10.5196 14.6054 10.7071 14.7929C10.8946 14.9804 11 15.2348 11 15.5V17C11 17.265 10.8948 17.5192 10.7075 17.7068C10.5201 17.8943 10.266 17.9997 10.001 18H10Z" fill="#539BFF"/>
</svg>
