<svg width="24" height="25" viewBox="0 0 24 25" fill="none" xmlns="http://www.w3.org/2000/svg">
<path d="M15.2729 19.228C13.9423 19.2282 12.6414 18.8338 11.5349 18.0947C10.4284 17.3555 9.56588 16.3049 9.05647 15.0756C8.54706 13.8463 8.41362 12.4935 8.67303 11.1884C8.93244 9.88325 9.57304 8.68434 10.5138 7.74327C11.4546 6.8022 12.6533 6.16124 13.9584 5.90145C15.2635 5.64165 16.6163 5.77469 17.8457 6.28373C19.0752 6.79277 20.1261 7.65496 20.8655 8.76127C21.605 9.86757 21.9998 11.1683 21.9999 12.499V12.5C21.9981 14.2836 21.2888 15.9937 20.0277 17.255C18.7665 18.5163 17.0566 19.2259 15.2729 19.228Z" fill="#B1AFFF"/>
<path d="M8.72703 19.228C7.39635 19.228 6.09556 18.8334 4.98915 18.0941C3.88274 17.3548 3.02039 16.3041 2.51116 15.0747C2.00194 13.8453 1.8687 12.4925 2.1283 11.1874C2.3879 9.8823 3.02868 8.68349 3.96961 7.74256C4.91054 6.80163 6.10935 6.16085 7.41446 5.90125C8.71956 5.64165 10.0723 5.77489 11.3017 6.28411C12.5311 6.79334 13.5819 7.65568 14.3212 8.7621C15.0604 9.86851 15.455 11.1693 15.455 12.5C15.4532 14.2838 14.7437 15.994 13.4824 17.2553C12.2211 18.5167 10.5108 19.2261 8.72703 19.228Z" fill="#5D87FF"/>
</svg>
