<svg width="24" height="25" viewBox="0 0 24 25" fill="none" xmlns="http://www.w3.org/2000/svg">
<path d="M10 6.5V5.5H14V6.5H16V5.5C15.9995 4.96973 15.7886 4.46133 15.4136 4.08637C15.0387 3.71141 14.5303 3.50053 14 3.5H10C9.46973 3.50053 8.96133 3.71141 8.58637 4.08637C8.21141 4.46133 8.00053 4.96973 8 5.5V6.5H10Z" fill="#13DEB9"/>
<path d="M9 15.5C8.73478 15.5 8.48043 15.3946 8.29289 15.2071C8.10536 15.0196 8 14.7652 8 14.5V12.5C8 12.2348 8.10536 11.9804 8.29289 11.7929C8.48043 11.6054 8.73478 11.5 9 11.5C9.26522 11.5 9.51957 11.6054 9.70711 11.7929C9.89464 11.9804 10 12.2348 10 12.5V14.5C10 14.7652 9.89464 15.0196 9.70711 15.2071C9.51957 15.3946 9.26522 15.5 9 15.5ZM15 15.5C14.7348 15.5 14.4804 15.3946 14.2929 15.2071C14.1054 15.0196 14 14.7652 14 14.5V12.5C14 12.2348 14.1054 11.9804 14.2929 11.7929C14.4804 11.6054 14.7348 11.5 15 11.5C15.2652 11.5 15.5196 11.6054 15.7071 11.7929C15.8946 11.9804 16 12.2348 16 12.5V14.5C16 14.7652 15.8946 15.0196 15.7071 15.2071C15.5196 15.3946 15.2652 15.5 15 15.5Z" fill="#B3FFEE"/>
<path d="M20 6.5H4C3.46957 6.5 2.96086 6.71071 2.58579 7.08579C2.21071 7.46086 2 7.96957 2 8.5V11.5C2 12.0304 2.21071 12.5391 2.58579 12.9142C2.96086 13.2893 3.46957 13.5 4 13.5H8V12.5C8 12.2348 8.10536 11.9804 8.29289 11.7929C8.48043 11.6054 8.73478 11.5 9 11.5C9.26522 11.5 9.51957 11.6054 9.70711 11.7929C9.89464 11.9804 10 12.2348 10 12.5V13.5H14V12.5C14 12.2348 14.1054 11.9804 14.2929 11.7929C14.4804 11.6054 14.7348 11.5 15 11.5C15.2652 11.5 15.5196 11.6054 15.7071 11.7929C15.8946 11.9804 16 12.2348 16 12.5V13.5H20C20.5304 13.5 21.0391 13.2893 21.4142 12.9142C21.7893 12.5391 22 12.0304 22 11.5V8.5C22 7.96957 21.7893 7.46086 21.4142 7.08579C21.0391 6.71071 20.5304 6.5 20 6.5Z" fill="#54EBC9"/>
<path d="M20 13.5H16V14.5C16 14.7652 15.8946 15.0196 15.7071 15.2071C15.5196 15.3946 15.2652 15.5 15 15.5C14.7348 15.5 14.4804 15.3946 14.2929 15.2071C14.1054 15.0196 14 14.7652 14 14.5V13.5H10V14.5C10 14.7652 9.89464 15.0196 9.70711 15.2071C9.51957 15.3946 9.26522 15.5 9 15.5C8.73478 15.5 8.48043 15.3946 8.29289 15.2071C8.10536 15.0196 8 14.7652 8 14.5V13.5H4C3.46957 13.5 2.96086 13.2893 2.58579 12.9142C2.21071 12.5391 2 12.0304 2 11.5V19.5C2 20.0304 2.21071 20.5391 2.58579 20.9142C2.96086 21.2893 3.46957 21.5 4 21.5H20C20.5304 21.5 21.0391 21.2893 21.4142 20.9142C21.7893 20.5391 22 20.0304 22 19.5V11.5C22 12.0304 21.7893 12.5391 21.4142 12.9142C21.0391 13.2893 20.5304 13.5 20 13.5Z" fill="#13DEB9"/>
</svg>
