<svg width="24" height="24" viewBox="0 0 24 24" fill="none" xmlns="http://www.w3.org/2000/svg">
<path d="M10 14H3C2.86867 14 2.73862 13.9742 2.61728 13.9239C2.49594 13.8737 2.38568 13.8 2.29282 13.7072C2.19995 13.6143 2.12629 13.5041 2.07605 13.3827C2.02581 13.2614 1.99997 13.1313 2 13V3C1.99997 2.86867 2.02581 2.73862 2.07605 2.61728C2.12629 2.49594 2.19995 2.38568 2.29282 2.29282C2.38568 2.19995 2.49594 2.12629 2.61728 2.07605C2.73862 2.02581 2.86867 1.99997 3 2H10C10.1313 1.99997 10.2614 2.02581 10.3827 2.07605C10.5041 2.12629 10.6143 2.19995 10.7072 2.29282C10.8 2.38568 10.8737 2.49594 10.9239 2.61728C10.9742 2.73862 11 2.86867 11 3V13C11 13.1313 10.9742 13.2614 10.9239 13.3827C10.8737 13.5041 10.8 13.6143 10.7072 13.7072C10.6143 13.8 10.5041 13.8737 10.3827 13.9239C10.2614 13.9742 10.1313 14 10 14Z" fill="#B2B1FF"/>
<path d="M10 22H3C2.86867 22 2.73862 21.9742 2.61728 21.9239C2.49594 21.8737 2.38568 21.8 2.29282 21.7072C2.19995 21.6143 2.12629 21.5041 2.07605 21.3827C2.02581 21.2614 1.99997 21.1313 2 21V17C1.99997 16.8687 2.02581 16.7386 2.07605 16.6173C2.12629 16.4959 2.19995 16.3857 2.29282 16.2928C2.38568 16.2 2.49594 16.1263 2.61728 16.0761C2.73862 16.0258 2.86867 16 3 16H10C10.1313 16 10.2614 16.0258 10.3827 16.0761C10.5041 16.1263 10.6143 16.2 10.7072 16.2928C10.8 16.3857 10.8737 16.4959 10.9239 16.6173C10.9742 16.7386 11 16.8687 11 17V21C11 21.1313 10.9742 21.2614 10.9239 21.3827C10.8737 21.5041 10.8 21.6143 10.7072 21.7072C10.6143 21.8 10.5041 21.8737 10.3827 21.9239C10.2614 21.9742 10.1313 22 10 22Z" fill="#5D87FF"/>
<path d="M21 22H14C13.8687 22 13.7386 21.9742 13.6173 21.9239C13.4959 21.8737 13.3857 21.8 13.2928 21.7072C13.2 21.6143 13.1263 21.5041 13.0761 21.3827C13.0258 21.2614 13 21.1313 13 21V13C13 12.8687 13.0258 12.7386 13.0761 12.6173C13.1263 12.4959 13.2 12.3857 13.2928 12.2928C13.3857 12.2 13.4959 12.1263 13.6173 12.0761C13.7386 12.0258 13.8687 12 14 12H21C21.1313 12 21.2614 12.0258 21.3827 12.0761C21.5041 12.1263 21.6143 12.2 21.7072 12.2928C21.8 12.3857 21.8737 12.4959 21.9239 12.6173C21.9742 12.7386 22 12.8687 22 13V21C22 21.1313 21.9742 21.2614 21.9239 21.3827C21.8737 21.5041 21.8 21.6143 21.7072 21.7072C21.6143 21.8 21.5041 21.8737 21.3827 21.9239C21.2614 21.9742 21.1313 22 21 22Z" fill="#D8D8FF"/>
<path d="M21 10H14C13.8687 10 13.7386 9.97419 13.6173 9.92395C13.4959 9.87371 13.3857 9.80005 13.2928 9.70718C13.2 9.61432 13.1263 9.50407 13.0761 9.38272C13.0258 9.26138 13 9.13133 13 9V3C13 2.86867 13.0258 2.73862 13.0761 2.61728C13.1263 2.49594 13.2 2.38568 13.2928 2.29282C13.3857 2.19995 13.4959 2.12629 13.6173 2.07605C13.7386 2.02581 13.8687 1.99997 14 2H21C21.1313 1.99997 21.2614 2.02581 21.3827 2.07605C21.5041 2.12629 21.6143 2.19995 21.7072 2.29282C21.8 2.38568 21.8737 2.49594 21.9239 2.61728C21.9742 2.73862 22 2.86867 22 3V9C22 9.13133 21.9742 9.26138 21.9239 9.38272C21.8737 9.50407 21.8 9.61432 21.7072 9.70718C21.6143 9.80005 21.5041 9.87371 21.3827 9.92395C21.2614 9.97419 21.1313 10 21 10Z" fill="#8C8AFF"/>
</svg>
