<svg height="24" viewBox="0 0 36 24" width="36" xmlns="http://www.w3.org/2000/svg"><g fill="none" fill-rule="evenodd"><rect fill="#fff" height="24" rx="4" width="36"/><g fill-rule="nonzero" transform="translate(9 2)"><path d="m5.34 19.32.35-2.2h-.78-3.68l2.56-16.26c.00682838-.05037788.03170014-.0965683.07-.13.04019855-.031064.08921759-.0485708.14-.05h6.21c2.07 0 3.49.43 4.24 1.28.3318632.35652804.5630785.79480195.67 1.27.116633.57750337.116633 1.17249663 0 1.75v.5l.35.2c.2664475.13280166.5069202.31230947.71.53.3056688.36899583.5029846.81555265.57 1.29.0749064.62021554.0478831 1.24850659-.08 1.86-.1318852.7427933-.3924656 1.4568512-.77 2.11-.3051005.5236492-.7174473.97689-1.21 1.33-.4957517.3380558-1.0476808.5852387-1.63.73-.6537145.1649061-1.3258296.2455599-2 .24h-.49c-.3434298.0000497-.67600294.1203421-.94.34-.26537373.2236061-.43968093.5366476-.49.88v.2l-.61 3.88v.15c.00724224.0261749.00724224.0538251 0 .08h-.06z" fill="#253d80"/><path d="m15.8 5.08-.06.37c-.82 4.2-3.63 5.66-7.21 5.66h-1.82c-.43789688-.0005314-.81111762.3175544-.88.75l-.93 5.92-.27 1.68c-.02026919.134528.01874852.2712389.10697006.3748033s.21699048.1638205.35302994.1651967h3.24c.38417983-.0003517.71089555-.2803937.77-.66v-.16l.61-3.87v-.21c.05456567-.3780521.3780318-.6589569.76-.66h.53c3.13 0 5.59-1.27 6.3-5 .3841623-1.27485443.1471618-2.65612343-.64-3.73-.2497932-.25618442-.5404174-.46908355-.86-.63z" fill="#189bd7"/><path d="m14.94 4.74-.38-.1-.42-.08c-.5295561-.07918829-1.0645892-.11597181-1.6-.11h-4.88c-.11399123-.00312873-.22709543.02086307-.33.07-.2318804.10856003-.39351455.32657819-.43.58l-1 6.57v.19c.06888238-.4324456.44210312-.7505314.88-.75h1.82c3.58 0 6.39-1.46 7.21-5.66l.06-.37c-.2153888-.11130922-.439458-.20495007-.67-.28z" fill="#242e65"/><path d="m6.9 5.1c.03648545-.25342181.1981196-.47143997.43-.58.10290457-.04913693.21600877-.07312873.33-.07h4.88c.5354108-.00597181 1.0704439.03081171 1.6.11l.42.08.38.1.19.06c.230542.07504993.4546112.16869078.67.28.3250509-1.24937312.0271356-2.57881993-.8-3.57-1-1.06-2.64-1.51000066-4.78-1.51000066h-6.22c-.43789688-.00053077-.81111762.31755508-.88.75000066l-2.59 16.41c-.02318657.1547524.02189578.3119533.12357341.4308969.10167762.1189437.24995117.1879327.40642659.1891031h3.84l1-6.11z" fill="#253d80"/></g></g></svg>