<svg width="388" height="382" viewBox="0 0 388 382" fill="none" xmlns="http://www.w3.org/2000/svg">
<path d="M304.569 22.6135C328.7 43.1297 339.4 80.5147 353.059 113.113C366.718 145.71 383.564 173.749 387.206 203.84C390.849 234.158 381.743 266.3 364.214 292.515C346.685 318.502 320.96 338.334 292.959 355.203C264.958 372.072 234.908 385.977 207.818 380.962C180.5 376.175 156.141 352.24 127.002 336.055C97.6354 320.098 63.4879 311.663 37.7634 290.463C12.0389 269.491 -5.03483 235.526 1.33937 205.435C7.94123 175.345 37.9911 149.13 58.0243 118.356C78.2851 87.5814 88.5294 52.7039 111.294 31.2759C134.059 10.0759 169.573 2.5533 205.997 0.501682C242.649 -1.54993 280.211 2.09739 304.569 22.6135Z" fill="url(#paint0_linear_1885_11093)" fill-opacity="0.7"/>
<defs>
<linearGradient id="paint0_linear_1885_11093" x1="-2.89083e-06" y1="382" x2="388" y2="1.44711e-05" gradientUnits="userSpaceOnUse">
<stop stop-color="#EAF0FF"/>
<stop offset="1" stop-color="white"/>
</linearGradient>
</defs>
</svg>
