<svg width="267" height="252" viewBox="0 0 267 252" fill="none" xmlns="http://www.w3.org/2000/svg">
<path d="M200.326 16.5138C221.223 23.0452 243.264 33.3322 255.018 50.4771C266.61 67.6221 268.079 91.7883 266.447 114.975C264.814 138.161 259.916 160.368 250.284 180.942C240.488 201.679 225.795 220.784 206.693 234.01C187.428 247.399 163.592 255.074 142.204 250.828C120.98 246.42 102.205 229.928 82.7768 216.702C63.3486 203.475 43.2674 193.352 28.084 177.023C13.0639 160.858 2.77835 138.325 0.49268 114.648C-1.79299 90.8086 3.92119 65.8259 16.6556 45.5786C29.5534 25.1679 49.4713 9.65577 71.1852 3.45093C92.8991 -2.59063 116.246 0.511789 137.959 3.61421C159.51 6.71663 179.428 9.81906 200.326 16.5138Z" fill="url(#paint0_linear_1885_11092)" fill-opacity="0.7"/>
<defs>
<linearGradient id="paint0_linear_1885_11092" x1="267" y1="-8.43086e-06" x2="6.14497e-06" y2="252" gradientUnits="userSpaceOnUse">
<stop stop-color="#DCF6FD"/>
<stop offset="1" stop-color="white"/>
</linearGradient>
</defs>
</svg>
