<svg width="48" height="39" viewBox="0 0 48 39" fill="none" xmlns="http://www.w3.org/2000/svg">
<g clip-path="url(#clip0_1687_11006)">
<path d="M0.0634766 21.2022V0.751953L17.7744 10.9771V17.7938L5.96713 10.9771V24.6106L0.0634766 21.2022Z" fill="#00B0FF"/>
<path d="M17.7744 10.9771L35.4854 0.751953V21.2022L23.6781 28.019L17.7744 24.6106L29.5817 17.7938V10.9771L17.7744 17.7938V10.9771Z" fill="#0081CB"/>
<path d="M17.7744 24.6113V31.4281L29.5817 38.2448V31.4281L17.7744 24.6113Z" fill="#00B0FF"/>
<path d="M29.582 38.2441L47.293 28.019V14.3855L41.3893 17.7938V24.6106L29.582 31.4273V38.2441ZM41.3893 10.9771V4.16033L47.293 0.751953V7.5687L41.3893 10.9771Z" fill="#0081CB"/>
</g>
<defs>
<clipPath id="clip0_1687_11006">
<rect x="0.0634766" y="0.748047" width="47.2292" height="37.5" rx="6" fill="white"/>
</clipPath>
</defs>
</svg>
