<svg width="40" height="38" viewBox="0 0 40 38" fill="none" xmlns="http://www.w3.org/2000/svg">
<path d="M12.1941 26.0859C10.7288 25.9356 9.61722 24.6841 9.66778 23.182C9.71819 21.6802 10.9815 20.4786 12.4973 20.4786H12.5983C14.1648 20.5287 15.3774 21.8303 15.3268 23.3823C15.2762 24.1333 14.9732 24.7841 14.5184 25.2347C16.2363 28.5891 18.8637 31.0423 22.8048 33.0949C25.4828 34.4968 28.2618 34.9975 31.0407 34.6471C33.3145 34.3466 35.083 33.3454 36.1947 31.6931C37.8115 29.24 37.963 26.5864 36.5988 23.9331C35.6387 22.0305 34.123 20.6287 33.163 19.9278C33.3651 19.277 33.6683 18.1756 33.8198 17.3746C41.1463 22.6314 40.3883 29.7406 38.1651 33.0949C36.4978 35.5983 33.1124 37.1503 29.3734 37.1503C28.3629 37.1503 27.3524 37.0501 26.3418 36.7999C19.8742 35.5482 14.973 31.7432 12.1941 26.0859ZM3.30119 19.8778C7.14134 15.422 12.8004 12.9689 19.2679 12.9689H20.0763C20.5311 12.0677 21.4911 11.4668 22.5522 11.4668H22.6533C24.2195 11.5169 25.4321 12.8186 25.3817 14.3707C25.3311 15.8726 24.068 17.0742 22.5522 17.0742H22.4512C21.3396 17.0241 20.3795 16.3232 19.9753 15.3719H19.0658C15.2257 15.3719 11.5878 16.4733 8.30336 18.6262C5.77707 20.2783 3.95805 22.4312 2.94756 25.0345C2.08861 27.1372 2.13917 29.1899 3.04869 30.9422C4.46336 33.5956 6.83812 35.0476 9.97085 35.0476C11.992 35.0476 13.912 34.4467 14.9226 33.9961C15.4783 34.4968 16.489 35.2977 17.1964 35.7986C15.0236 36.7998 12.8004 37.3505 10.6783 37.3505C5.82763 37.3505 2.24014 34.697 0.875874 32.0436C-0.589367 29.1398 -0.488239 24.1333 3.30119 19.8778ZM28.9692 26.9368C28.9186 28.4389 27.6555 29.6403 26.1397 29.6403H26.0385C24.4722 29.5903 23.2596 28.2886 23.3102 26.7366C23.3606 25.2345 24.6239 24.0331 26.1397 24.0331H26.2406C26.3418 24.0331 26.4935 24.0331 26.5943 24.083C28.666 20.6787 29.5249 16.974 29.2217 12.9687C29.0197 9.9648 28.0091 7.36136 26.2406 5.20851C24.7754 3.35609 21.9459 2.45494 20.0257 2.40499C14.6699 2.30479 12.3963 8.91334 12.2446 11.5669C11.5878 11.717 10.4762 12.0675 9.71819 12.3179C10.3246 4.20746 15.3774 0.00195312 20.2278 0.00195312C24.7754 0.00195312 28.9692 3.25621 30.6367 8.06244C32.9609 14.4707 31.4451 20.6287 28.6156 25.485C28.8681 25.8354 29.0197 26.3862 28.9692 26.937V26.9368Z" fill="#764ABC"/>
</svg>
