<svg width="45" height="39" viewBox="0 0 45 39" fill="none" xmlns="http://www.w3.org/2000/svg">
<path fill-rule="evenodd" clip-rule="evenodd" d="M22.2535 11.4258C27.5621 11.4258 32.4937 12.1875 36.2121 13.4676C40.6922 15.01 43.4467 17.3479 43.4467 19.4648C43.4467 21.6708 40.5275 24.1545 35.7164 25.7485C32.0791 26.9536 27.2927 27.5827 22.2535 27.5827C17.0869 27.5827 12.1944 26.9922 8.51619 25.7353C3.86252 24.1447 1.05957 21.6288 1.05957 19.4648C1.05957 17.3651 3.6896 15.0452 8.10675 13.5052C11.839 12.204 16.8923 11.4258 22.2528 11.4258H22.2535Z" stroke="#00D8FF" stroke-width="1.5"/>
<path fill-rule="evenodd" clip-rule="evenodd" d="M15.2558 15.4723C15.2561 15.4724 15.2563 15.4722 15.2565 15.472C17.9085 10.8735 21.0318 6.98211 23.9983 4.40054C27.5725 1.29006 30.9739 0.0719031 32.8077 1.12935C34.7188 2.23141 35.4119 6.00118 34.3893 10.9651C33.6169 14.718 31.77 19.1784 29.2525 23.5438C26.6713 28.0195 23.7158 31.9628 20.7896 34.5204C17.0869 37.7572 13.5072 38.9285 11.6326 37.8474C9.81356 36.7992 9.11795 33.3613 9.99058 28.7654C10.7279 24.8823 12.5781 20.1162 15.2552 15.4727C15.2553 15.4724 15.2555 15.4723 15.2558 15.4723V15.4723Z" stroke="#00D8FF" stroke-width="1.5"/>
<path fill-rule="evenodd" clip-rule="evenodd" d="M15.2586 23.5458C15.2586 23.5458 15.2586 23.5458 15.2586 23.5458C12.599 18.9524 10.7883 14.3019 10.0325 10.4426C9.12262 5.79254 9.7659 2.23723 11.598 1.17671C13.5072 0.0714144 17.1193 1.35357 20.9091 4.71862C23.7745 7.26274 26.7168 11.0897 29.2416 15.451C31.8302 19.9224 33.7703 24.4524 34.525 28.2648C35.48 33.0892 34.7071 36.7755 32.8342 37.8596C31.017 38.9116 27.6916 37.7978 24.1457 34.7465C21.1498 32.1685 17.9445 28.185 15.2586 23.5458C15.2586 23.5458 15.2586 23.5458 15.2586 23.5458V23.5458Z" stroke="#00D8FF" stroke-width="1.5"/>
</svg>
