<svg width="38" height="38" viewBox="0 0 38 38" fill="none" xmlns="http://www.w3.org/2000/svg">
<g clip-path="url(#clip0_1687_11013)">
<path d="M37.5 0H0V37.5H37.5V0Z" fill="#F7DF1E"/>
<path d="M25.1907 29.2973C25.946 30.5307 26.9288 31.4372 28.6669 31.4372C30.127 31.4372 31.0597 30.7075 31.0597 29.6991C31.0597 28.4908 30.1014 28.0628 28.4943 27.3598L27.6133 26.9819C25.0705 25.8985 23.3812 24.5414 23.3812 21.6723C23.3812 19.0295 25.3949 17.0176 28.5419 17.0176C30.7824 17.0176 32.3931 17.7973 33.5538 19.839L30.8097 21.6009C30.2056 20.5176 29.5538 20.0908 28.5419 20.0908C27.5097 20.0908 26.8556 20.7456 26.8556 21.6009C26.8556 22.6581 27.5103 23.086 29.0222 23.7408L29.9032 24.1182C32.8972 25.4021 34.5877 26.711 34.5877 29.6539C34.5877 32.8265 32.0955 34.5646 28.7484 34.5646C25.4758 34.5646 23.3615 33.0051 22.327 30.961L25.1907 29.2973ZM12.7425 29.6027C13.296 30.5848 13.7996 31.4152 15.0103 31.4152C16.1681 31.4152 16.8984 30.9622 16.8984 29.2009V17.2188H20.4222V29.2485C20.4222 32.8973 18.283 34.5581 15.1603 34.5581C12.3389 34.5581 10.705 33.0979 9.87402 31.3393L12.7425 29.6027Z" fill="black"/>
</g>
<defs>
<clipPath id="clip0_1687_11013">
<rect width="37.5" height="37.5" rx="6" fill="white"/>
</clipPath>
</defs>
</svg>
