<svg width="38" height="38" viewBox="0 0 38 38" fill="none" xmlns="http://www.w3.org/2000/svg">
<g clip-path="url(#clip0_1687_11018)">
<path d="M33.8379 0H3.66211C1.63958 0 0 1.63958 0 3.66211V33.8379C0 35.8604 1.63958 37.5 3.66211 37.5H33.8379C35.8604 37.5 37.5 35.8604 37.5 33.8379V3.66211C37.5 1.63958 35.8604 0 33.8379 0Z" fill="#3178C6"/>
<path d="M33.8379 0H3.66211C1.63958 0 0 1.63958 0 3.66211V33.8379C0 35.8604 1.63958 37.5 3.66211 37.5H33.8379C35.8604 37.5 37.5 35.8604 37.5 33.8379V3.66211C37.5 1.63958 35.8604 0 33.8379 0Z" fill="#3178C6"/>
<path fill-rule="evenodd" clip-rule="evenodd" d="M23.2133 29.8406V33.5072C23.8094 33.8128 24.5143 34.0419 25.3282 34.1947C26.142 34.3474 26.9998 34.4238 27.9015 34.4238C28.7804 34.4238 29.6152 34.3398 30.4061 34.1717C31.1971 34.0037 31.8906 33.7268 32.4866 33.341C33.0827 32.9553 33.5546 32.4511 33.9023 31.8286C34.25 31.206 34.4238 30.4365 34.4238 29.5198C34.4238 28.8552 34.3245 28.2728 34.1258 27.7725C33.9271 27.2722 33.6406 26.8272 33.2661 26.4376C32.8917 26.0481 32.4427 25.6986 31.9192 25.3892C31.3958 25.0798 30.8054 24.7876 30.1482 24.5127C29.6668 24.3141 29.2351 24.1212 28.853 23.9341C28.4708 23.7469 28.1461 23.5559 27.8786 23.3612C27.6111 23.1664 27.4048 22.9601 27.2596 22.7424C27.1145 22.5247 27.0418 22.2784 27.0418 22.0033C27.0418 21.7513 27.1068 21.524 27.2367 21.3216C27.3667 21.1192 27.55 20.9454 27.7869 20.8003C28.0239 20.6552 28.3142 20.5425 28.6581 20.4623C29.002 20.3821 29.384 20.342 29.8044 20.342C30.11 20.342 30.4329 20.3649 30.7729 20.4107C31.113 20.4565 31.455 20.5272 31.7989 20.6227C32.1428 20.7182 32.4771 20.8385 32.8019 20.9836C33.1266 21.1288 33.4266 21.2968 33.7017 21.4878V18.0618C33.1438 17.8479 32.5344 17.6895 31.8734 17.5863C31.2124 17.4832 30.4539 17.4316 29.598 17.4316C28.7268 17.4316 27.9015 17.5252 27.1221 17.7124C26.3427 17.8995 25.6568 18.1917 25.0645 18.5889C24.4723 18.9861 24.0042 19.4922 23.6604 20.1071C23.3165 20.722 23.1445 21.4572 23.1445 22.3127C23.1445 23.4051 23.4598 24.337 24.0902 25.1085C24.7206 25.88 25.6778 26.5331 26.9616 27.0678C27.466 27.2741 27.936 27.4764 28.3715 27.6751C28.8071 27.8737 29.1835 28.08 29.5006 28.2938C29.8177 28.5077 30.068 28.7407 30.2514 28.9928C30.4348 29.2448 30.5265 29.5312 30.5265 29.8521C30.5265 30.0889 30.4692 30.3085 30.3546 30.5109C30.2399 30.7134 30.0661 30.889 29.833 31.038C29.6 31.187 29.3095 31.3034 28.9619 31.3874C28.6141 31.4715 28.2073 31.5135 27.7411 31.5135C26.9463 31.5135 26.1593 31.3741 25.3797 31.0953C24.6003 30.8165 23.8781 30.3983 23.2133 29.8406ZM17.0493 20.8068H21.7529V17.7979H8.64258V20.8068H13.3232V34.2041H17.0493V20.8068Z" fill="white"/>
</g>
<defs>
<clipPath id="clip0_1687_11018">
<rect width="37.5" height="37.5" fill="white"/>
</clipPath>
</defs>
</svg>
