<svg width="168" height="26" viewBox="0 0 168 26" fill="none" xmlns="http://www.w3.org/2000/svg">
<path d="M2.02677 24V6.12H5.14677L11.8428 15.216H10.3548L16.9068 6.12H20.0268V24H16.7388V9.84L18.0108 10.152L11.2188 19.2H10.8348L4.21077 10.152L5.29077 9.84V24H2.02677ZM29.5686 24.288C28.2886 24.288 27.1206 23.992 26.0646 23.4C25.0246 22.808 24.1926 22 23.5686 20.976C22.9606 19.952 22.6566 18.784 22.6566 17.472C22.6566 16.16 22.9606 14.992 23.5686 13.968C24.1926 12.944 25.0246 12.136 26.0646 11.544C27.1046 10.952 28.2726 10.656 29.5686 10.656C30.8486 10.656 32.0086 10.952 33.0486 11.544C34.0886 12.136 34.9126 12.944 35.5206 13.968C36.1446 14.976 36.4566 16.144 36.4566 17.472C36.4566 18.784 36.1446 19.952 35.5206 20.976C34.8966 22 34.0646 22.808 33.0246 23.4C31.9846 23.992 30.8326 24.288 29.5686 24.288ZM29.5686 21.408C30.2726 21.408 30.8886 21.24 31.4166 20.904C31.9606 20.568 32.3846 20.104 32.6886 19.512C33.0086 18.904 33.1686 18.224 33.1686 17.472C33.1686 16.704 33.0086 16.032 32.6886 15.456C32.3846 14.864 31.9606 14.4 31.4166 14.064C30.8886 13.712 30.2726 13.536 29.5686 13.536C28.8486 13.536 28.2166 13.712 27.6726 14.064C27.1286 14.4 26.6966 14.864 26.3766 15.456C26.0726 16.032 25.9206 16.704 25.9206 17.472C25.9206 18.224 26.0726 18.904 26.3766 19.512C26.6966 20.104 27.1286 20.568 27.6726 20.904C28.2166 21.24 28.8486 21.408 29.5686 21.408ZM44.9129 24.288C43.6489 24.288 42.5209 23.992 41.5289 23.4C40.5369 22.792 39.7529 21.968 39.1769 20.928C38.6009 19.888 38.3129 18.736 38.3129 17.472C38.3129 16.192 38.6009 15.04 39.1769 14.016C39.7529 12.992 40.5369 12.176 41.5289 11.568C42.5369 10.96 43.6569 10.656 44.8889 10.656C45.8809 10.656 46.7609 10.856 47.5289 11.256C48.3129 11.64 48.9289 12.184 49.3769 12.888L48.8969 13.536V5.832H52.0409V24H49.0649V21.48L49.4009 22.104C48.9529 22.808 48.3289 23.352 47.5289 23.736C46.7289 24.104 45.8569 24.288 44.9129 24.288ZM45.2489 21.408C45.9689 21.408 46.6009 21.24 47.1449 20.904C47.6889 20.568 48.1129 20.104 48.4169 19.512C48.7369 18.92 48.8969 18.24 48.8969 17.472C48.8969 16.72 48.7369 16.048 48.4169 15.456C48.1129 14.848 47.6889 14.376 47.1449 14.04C46.6009 13.704 45.9689 13.536 45.2489 13.536C44.5449 13.536 43.9129 13.712 43.3529 14.064C42.7929 14.4 42.3529 14.864 42.0329 15.456C41.7289 16.032 41.5769 16.704 41.5769 17.472C41.5769 18.24 41.7289 18.92 42.0329 19.512C42.3529 20.104 42.7929 20.568 43.3529 20.904C43.9129 21.24 44.5449 21.408 45.2489 21.408ZM61.1579 24.288C59.8139 24.288 58.6379 23.984 57.6299 23.376C56.6219 22.768 55.8379 21.944 55.2779 20.904C54.7179 19.864 54.4379 18.712 54.4379 17.448C54.4379 16.136 54.7179 14.976 55.2779 13.968C55.8539 12.944 56.6299 12.136 57.6059 11.544C58.5979 10.952 59.7019 10.656 60.9179 10.656C61.9419 10.656 62.8379 10.824 63.6059 11.16C64.3899 11.496 65.0539 11.96 65.5979 12.552C66.1419 13.144 66.5579 13.824 66.8459 14.592C67.1339 15.344 67.2779 16.16 67.2779 17.04C67.2779 17.264 67.2619 17.496 67.2299 17.736C67.2139 17.976 67.1739 18.184 67.1099 18.36H57.0299V15.96H65.3339L63.8459 17.088C63.9899 16.352 63.9499 15.696 63.7259 15.12C63.5179 14.544 63.1659 14.088 62.6699 13.752C62.1899 13.416 61.6059 13.248 60.9179 13.248C60.2619 13.248 59.6779 13.416 59.1659 13.752C58.6539 14.072 58.2619 14.552 57.9899 15.192C57.7339 15.816 57.6379 16.576 57.7019 17.472C57.6379 18.272 57.7419 18.984 58.0139 19.608C58.3019 20.216 58.7179 20.688 59.2619 21.024C59.8219 21.36 60.4619 21.528 61.1819 21.528C61.9019 21.528 62.5099 21.376 63.0059 21.072C63.5179 20.768 63.9179 20.36 64.2059 19.848L66.7499 21.096C66.4939 21.72 66.0939 22.272 65.5499 22.752C65.0059 23.232 64.3579 23.608 63.6059 23.88C62.8699 24.152 62.0539 24.288 61.1579 24.288ZM69.6612 24V10.944H72.6132V13.848L72.3732 13.416C72.6772 12.44 73.1492 11.76 73.7892 11.376C74.4452 10.992 75.2292 10.8 76.1412 10.8H76.9092V13.584H75.7812C74.8852 13.584 74.1652 13.864 73.6212 14.424C73.0772 14.968 72.8052 15.736 72.8052 16.728V24H69.6612ZM78.6378 24V10.944H81.5898V13.512L81.3498 13.056C81.6538 12.272 82.1498 11.68 82.8378 11.28C83.5418 10.864 84.3578 10.656 85.2858 10.656C86.2458 10.656 87.0938 10.864 87.8298 11.28C88.5818 11.696 89.1658 12.28 89.5818 13.032C89.9978 13.768 90.2058 14.624 90.2058 15.6V24H87.0618V16.344C87.0618 15.768 86.9498 15.272 86.7258 14.856C86.5018 14.44 86.1898 14.12 85.7898 13.896C85.4058 13.656 84.9498 13.536 84.4218 13.536C83.9098 13.536 83.4538 13.656 83.0538 13.896C82.6538 14.12 82.3418 14.44 82.1178 14.856C81.8938 15.272 81.7818 15.768 81.7818 16.344V24H78.6378ZM92.8643 24V10.944H96.0083V24H92.8643ZM92.8643 9.48V6.12H96.0083V9.48H92.8643ZM97.7832 24V21.456L105.367 12.672L105.847 13.752H98.1192V10.944H108.631V13.512L101.191 22.296L100.711 21.216H108.679V24H97.7832ZM116.658 24.288C115.314 24.288 114.138 23.984 113.13 23.376C112.122 22.768 111.338 21.944 110.778 20.904C110.218 19.864 109.938 18.712 109.938 17.448C109.938 16.136 110.218 14.976 110.778 13.968C111.354 12.944 112.13 12.136 113.106 11.544C114.098 10.952 115.202 10.656 116.418 10.656C117.442 10.656 118.338 10.824 119.106 11.16C119.89 11.496 120.554 11.96 121.098 12.552C121.642 13.144 122.058 13.824 122.346 14.592C122.634 15.344 122.778 16.16 122.778 17.04C122.778 17.264 122.762 17.496 122.73 17.736C122.714 17.976 122.674 18.184 122.61 18.36H112.53V15.96H120.834L119.346 17.088C119.49 16.352 119.45 15.696 119.226 15.12C119.018 14.544 118.666 14.088 118.17 13.752C117.69 13.416 117.106 13.248 116.418 13.248C115.762 13.248 115.178 13.416 114.666 13.752C114.154 14.072 113.762 14.552 113.49 15.192C113.234 15.816 113.138 16.576 113.202 17.472C113.138 18.272 113.242 18.984 113.514 19.608C113.802 20.216 114.218 20.688 114.762 21.024C115.322 21.36 115.962 21.528 116.682 21.528C117.402 21.528 118.01 21.376 118.506 21.072C119.018 20.768 119.418 20.36 119.706 19.848L122.25 21.096C121.994 21.72 121.594 22.272 121.05 22.752C120.506 23.232 119.858 23.608 119.106 23.88C118.37 24.152 117.554 24.288 116.658 24.288Z" fill="#F2F2F2"/>
<path d="M154.137 26C156.898 26 159.184 23.7425 158.673 21.0288C158.353 19.3274 157.868 17.6594 157.223 16.0502C155.96 12.8958 154.109 10.0295 151.774 7.61522C149.44 5.2009 146.669 3.28575 143.619 1.97913C142.114 1.33406 140.555 0.843538 138.965 0.512196C136.262 -0.0511821 134 2.23858 134 5V21C134 23.7614 136.239 26 139 26H154.137Z" fill="#615DFF"/>
<path d="M147.701 26C144.94 26 142.654 23.7425 143.165 21.0288C143.485 19.3274 143.97 17.6594 144.615 16.0502C145.878 12.8958 147.73 10.0295 150.064 7.61522C152.398 5.2009 155.169 3.28575 158.219 1.97913C159.724 1.33406 161.283 0.843538 162.873 0.512196C165.577 -0.0511821 167.838 2.23858 167.838 5V21C167.838 23.7614 165.6 26 162.838 26H147.701Z" fill="#3DD9EB"/>
</svg>
