<svg width="168" height="26" viewBox="0 0 168 26" fill="none" xmlns="http://www.w3.org/2000/svg">
<path d="M1.728 24V6.12H4.848L11.544 15.216H10.056L16.608 6.12H19.728V24H16.44V9.84L17.712 10.152L10.92 19.2H10.536L3.912 10.152L4.992 9.84V24H1.728ZM29.2699 24.288C27.9899 24.288 26.8219 23.992 25.7659 23.4C24.7259 22.808 23.8939 22 23.2699 20.976C22.6619 19.952 22.3579 18.784 22.3579 17.472C22.3579 16.16 22.6619 14.992 23.2699 13.968C23.8939 12.944 24.7259 12.136 25.7659 11.544C26.8059 10.952 27.9739 10.656 29.2699 10.656C30.5499 10.656 31.7099 10.952 32.7499 11.544C33.7899 12.136 34.6139 12.944 35.2219 13.968C35.8459 14.976 36.1579 16.144 36.1579 17.472C36.1579 18.784 35.8459 19.952 35.2219 20.976C34.5979 22 33.7659 22.808 32.7259 23.4C31.6859 23.992 30.5339 24.288 29.2699 24.288ZM29.2699 21.408C29.9739 21.408 30.5899 21.24 31.1179 20.904C31.6619 20.568 32.0859 20.104 32.3899 19.512C32.7099 18.904 32.8699 18.224 32.8699 17.472C32.8699 16.704 32.7099 16.032 32.3899 15.456C32.0859 14.864 31.6619 14.4 31.1179 14.064C30.5899 13.712 29.9739 13.536 29.2699 13.536C28.5499 13.536 27.9179 13.712 27.3739 14.064C26.8299 14.4 26.3979 14.864 26.0779 15.456C25.7739 16.032 25.6219 16.704 25.6219 17.472C25.6219 18.224 25.7739 18.904 26.0779 19.512C26.3979 20.104 26.8299 20.568 27.3739 20.904C27.9179 21.24 28.5499 21.408 29.2699 21.408ZM44.6141 24.288C43.3501 24.288 42.2221 23.992 41.2301 23.4C40.2381 22.792 39.4541 21.968 38.8781 20.928C38.3021 19.888 38.0141 18.736 38.0141 17.472C38.0141 16.192 38.3021 15.04 38.8781 14.016C39.4541 12.992 40.2381 12.176 41.2301 11.568C42.2381 10.96 43.3581 10.656 44.5901 10.656C45.5821 10.656 46.4621 10.856 47.2301 11.256C48.0141 11.64 48.6301 12.184 49.0781 12.888L48.5981 13.536V5.832H51.7421V24H48.7661V21.48L49.1021 22.104C48.6541 22.808 48.0301 23.352 47.2301 23.736C46.4301 24.104 45.5581 24.288 44.6141 24.288ZM44.9501 21.408C45.6701 21.408 46.3021 21.24 46.8461 20.904C47.3901 20.568 47.8141 20.104 48.1181 19.512C48.4381 18.92 48.5981 18.24 48.5981 17.472C48.5981 16.72 48.4381 16.048 48.1181 15.456C47.8141 14.848 47.3901 14.376 46.8461 14.04C46.3021 13.704 45.6701 13.536 44.9501 13.536C44.2461 13.536 43.6141 13.712 43.0541 14.064C42.4941 14.4 42.0541 14.864 41.7341 15.456C41.4301 16.032 41.2781 16.704 41.2781 17.472C41.2781 18.24 41.4301 18.92 41.7341 19.512C42.0541 20.104 42.4941 20.568 43.0541 20.904C43.6141 21.24 44.2461 21.408 44.9501 21.408ZM60.8591 24.288C59.5151 24.288 58.3391 23.984 57.3311 23.376C56.3231 22.768 55.5391 21.944 54.9791 20.904C54.4191 19.864 54.1391 18.712 54.1391 17.448C54.1391 16.136 54.4191 14.976 54.9791 13.968C55.5551 12.944 56.3311 12.136 57.3071 11.544C58.2991 10.952 59.4031 10.656 60.6191 10.656C61.6431 10.656 62.5391 10.824 63.3071 11.16C64.0911 11.496 64.7551 11.96 65.2991 12.552C65.8431 13.144 66.2591 13.824 66.5471 14.592C66.8351 15.344 66.9791 16.16 66.9791 17.04C66.9791 17.264 66.9631 17.496 66.9311 17.736C66.9151 17.976 66.8751 18.184 66.8111 18.36H56.7311V15.96H65.0351L63.5471 17.088C63.6911 16.352 63.6511 15.696 63.4271 15.12C63.2191 14.544 62.8671 14.088 62.3711 13.752C61.8911 13.416 61.3071 13.248 60.6191 13.248C59.9631 13.248 59.3791 13.416 58.8671 13.752C58.3551 14.072 57.9631 14.552 57.6911 15.192C57.4351 15.816 57.3391 16.576 57.4031 17.472C57.3391 18.272 57.4431 18.984 57.7151 19.608C58.0031 20.216 58.4191 20.688 58.9631 21.024C59.5231 21.36 60.1631 21.528 60.8831 21.528C61.6031 21.528 62.2111 21.376 62.7071 21.072C63.2191 20.768 63.6191 20.36 63.9071 19.848L66.4511 21.096C66.1951 21.72 65.7951 22.272 65.2511 22.752C64.7071 23.232 64.0591 23.608 63.3071 23.88C62.5711 24.152 61.7551 24.288 60.8591 24.288ZM69.3624 24V10.944H72.3144V13.848L72.0744 13.416C72.3784 12.44 72.8504 11.76 73.4904 11.376C74.1464 10.992 74.9304 10.8 75.8424 10.8H76.6104V13.584H75.4824C74.5864 13.584 73.8664 13.864 73.3224 14.424C72.7784 14.968 72.5064 15.736 72.5064 16.728V24H69.3624ZM78.339 24V10.944H81.291V13.512L81.051 13.056C81.355 12.272 81.851 11.68 82.539 11.28C83.243 10.864 84.059 10.656 84.987 10.656C85.947 10.656 86.795 10.864 87.531 11.28C88.283 11.696 88.867 12.28 89.283 13.032C89.699 13.768 89.907 14.624 89.907 15.6V24H86.763V16.344C86.763 15.768 86.651 15.272 86.427 14.856C86.203 14.44 85.891 14.12 85.491 13.896C85.107 13.656 84.651 13.536 84.123 13.536C83.611 13.536 83.155 13.656 82.755 13.896C82.355 14.12 82.043 14.44 81.819 14.856C81.595 15.272 81.483 15.768 81.483 16.344V24H78.339ZM92.5656 24V10.944H95.7096V24H92.5656ZM92.5656 9.48V6.12H95.7096V9.48H92.5656ZM97.4844 24V21.456L105.068 12.672L105.548 13.752H97.8204V10.944H108.332V13.512L100.892 22.296L100.412 21.216H108.38V24H97.4844ZM116.359 24.288C115.015 24.288 113.839 23.984 112.831 23.376C111.823 22.768 111.039 21.944 110.479 20.904C109.919 19.864 109.639 18.712 109.639 17.448C109.639 16.136 109.919 14.976 110.479 13.968C111.055 12.944 111.831 12.136 112.807 11.544C113.799 10.952 114.903 10.656 116.119 10.656C117.143 10.656 118.039 10.824 118.807 11.16C119.591 11.496 120.255 11.96 120.799 12.552C121.343 13.144 121.759 13.824 122.047 14.592C122.335 15.344 122.479 16.16 122.479 17.04C122.479 17.264 122.463 17.496 122.431 17.736C122.415 17.976 122.375 18.184 122.311 18.36H112.231V15.96H120.535L119.047 17.088C119.191 16.352 119.151 15.696 118.927 15.12C118.719 14.544 118.367 14.088 117.871 13.752C117.391 13.416 116.807 13.248 116.119 13.248C115.463 13.248 114.879 13.416 114.367 13.752C113.855 14.072 113.463 14.552 113.191 15.192C112.935 15.816 112.839 16.576 112.903 17.472C112.839 18.272 112.943 18.984 113.215 19.608C113.503 20.216 113.919 20.688 114.463 21.024C115.023 21.36 115.663 21.528 116.383 21.528C117.103 21.528 117.711 21.376 118.207 21.072C118.719 20.768 119.119 20.36 119.407 19.848L121.951 21.096C121.695 21.72 121.295 22.272 120.751 22.752C120.207 23.232 119.559 23.608 118.807 23.88C118.071 24.152 117.255 24.288 116.359 24.288Z" fill="#333333"/>
<path d="M153.838 26C156.6 26 158.885 23.7425 158.374 21.0288C158.054 19.3274 157.569 17.6594 156.925 16.0502C155.661 12.8958 153.81 10.0295 151.476 7.61522C149.142 5.2009 146.37 3.28575 143.321 1.97913C141.815 1.33406 140.256 0.843538 138.666 0.512196C135.963 -0.0511821 133.701 2.23858 133.701 5V21C133.701 23.7614 135.94 26 138.701 26H153.838Z" fill="#615DFF"/>
<path d="M147.403 26C144.641 26 142.355 23.7425 142.866 21.0288C143.187 19.3274 143.672 17.6594 144.316 16.0502C145.579 12.8958 147.431 10.0295 149.765 7.61522C152.099 5.2009 154.87 3.28575 157.92 1.97913C159.426 1.33406 160.985 0.843538 162.575 0.512196C165.278 -0.0511821 167.539 2.23858 167.539 5V21C167.539 23.7614 165.301 26 162.539 26H147.403Z" fill="#3DD9EB"/>
</svg>
