<svg xmlns="http://www.w3.org/2000/svg" xmlns:xlink="http://www.w3.org/1999/xlink" width="54" zoomAndPan="magnify" viewBox="0 0 40.5 30.000001" height="40" preserveAspectRatio="xMidYMid meet" version="1.0"><defs><g/><clipPath id="9bd9d4ac5b"><path d="M 10.476562 0 L 29.347656 0 L 29.347656 13 L 10.476562 13 Z M 10.476562 0 " clip-rule="nonzero"/></clipPath><clipPath id="56ba4898c1"><path d="M 12 13 L 28 13 L 28 18.871094 L 12 18.871094 Z M 12 13 " clip-rule="nonzero"/></clipPath></defs><g clip-path="url(#9bd9d4ac5b)"><path fill="#16a637" d="M 16.59375 12.265625 C 17.394531 11.429688 18.476562 10.925781 19.625 10.847656 C 19.625 10.84375 19.625 10.839844 19.625 10.835938 C 19.628906 10.503906 19.628906 10.25 19.644531 10.136719 C 19.886719 7.96875 20.476562 6.296875 23.09375 4.640625 C 21.882812 4.945312 20.832031 5.84375 19.933594 7.34375 C 20.210938 3.664062 23.242188 4.710938 25.359375 2.976562 C 24.933594 10.003906 20.765625 5.183594 20.066406 10.835938 C 21.289062 10.867188 22.449219 11.382812 23.296875 12.265625 L 29.046875 12.265625 C 29.316406 11.386719 29.460938 10.457031 29.460938 9.492188 C 29.460938 4.25 25.210938 0 19.96875 0 C 14.726562 0 10.476562 4.25 10.476562 9.492188 C 10.476562 10.457031 10.621094 11.390625 10.886719 12.265625 Z M 19.414062 8.238281 C 16.742188 8.121094 15.507812 6.636719 15.703125 3.78125 C 18.113281 4.832031 19.9375 5.5 19.605469 7.765625 C 19.277344 6.660156 18.726562 5.710938 17.640625 5.242188 C 18.519531 6.019531 19.15625 7.011719 19.414062 8.238281 Z M 19.414062 8.238281 " fill-opacity="1" fill-rule="evenodd"/></g><g clip-path="url(#56ba4898c1)"><path fill="#1e3148" d="M 19.96875 16.4375 C 19.847656 16.414062 19.730469 16.386719 19.613281 16.359375 C 19.488281 16.328125 19.363281 16.292969 19.234375 16.25 C 18.816406 16.121094 18.714844 15.921875 18.78125 15.722656 C 19.097656 14.765625 20.640625 15.023438 21.332031 15.019531 C 23.09375 15.011719 23.847656 14.78125 23.597656 14.023438 C 22.445312 13.605469 21.234375 13.421875 19.96875 13.46875 C 19.851562 13.472656 19.734375 13.476562 19.617188 13.488281 C 16.75 13.699219 14.730469 15.800781 12.699219 15.59375 C 14.367188 17.582031 16.835938 18.875 19.609375 18.976562 C 19.730469 18.980469 19.847656 18.984375 19.96875 18.984375 C 23.210938 18.984375 26.074219 17.355469 27.785156 14.875 C 26.648438 13.539062 24.113281 17.246094 19.96875 16.4375 " fill-opacity="1" fill-rule="evenodd"/></g><g fill="#16a637" fill-opacity="1"><g transform="translate(3.879697, 12.266392)"><g><path d="M 0.125 0.421875 L 0.078125 0.296875 C 0.273438 0.242188 0.882812 0.144531 1.90625 0 C 2.9375 -0.144531 3.695312 -0.285156 4.1875 -0.421875 C 4.257812 -0.453125 4.332031 -0.503906 4.40625 -0.578125 C 4.488281 -0.660156 4.550781 -0.738281 4.59375 -0.8125 L 4.671875 -0.90625 L 4.765625 -0.90625 C 4.929688 -0.707031 5.128906 -0.3125 5.359375 0.28125 C 5.265625 0.382812 5.125 0.472656 4.9375 0.546875 C 4.75 0.617188 4.171875 0.710938 3.203125 0.828125 L 3.21875 0.859375 C 3.363281 1.234375 3.609375 1.445312 3.953125 1.5 C 4.304688 1.5625 4.84375 1.507812 5.5625 1.34375 C 5.789062 1.601562 5.96875 1.894531 6.09375 2.21875 C 6.0625 2.238281 5.984375 2.269531 5.859375 2.3125 C 5.742188 2.351562 5.585938 2.390625 5.390625 2.421875 C 5.191406 2.453125 4.976562 2.460938 4.75 2.453125 C 4.519531 2.441406 4.28125 2.390625 4.03125 2.296875 C 3.789062 2.203125 3.582031 2.070312 3.40625 1.90625 C 2.632812 2.488281 2.15625 2.914062 1.96875 3.1875 C 1.894531 3.300781 1.867188 3.382812 1.890625 3.4375 C 1.910156 3.5 1.988281 3.597656 2.125 3.734375 L 2.203125 3.8125 L 2.015625 4.046875 C 1.804688 3.929688 1.613281 3.789062 1.4375 3.625 C 1.269531 3.457031 1.148438 3.28125 1.078125 3.09375 C 1.015625 2.914062 1.035156 2.742188 1.140625 2.578125 C 1.242188 2.410156 1.390625 2.25 1.578125 2.09375 C 1.773438 1.945312 2.003906 1.773438 2.265625 1.578125 C 2.535156 1.390625 2.742188 1.253906 2.890625 1.171875 C 2.867188 1.140625 2.828125 1.046875 2.765625 0.890625 C 1.597656 1.035156 0.878906 1.160156 0.609375 1.265625 C 0.441406 1.128906 0.28125 0.847656 0.125 0.421875 Z M 0.125 0.421875 "/></g></g></g><g fill="#16a637" fill-opacity="1"><g transform="translate(5.931346, 17.041598)"><g><path d="M 0.1875 0.296875 L 0.15625 0.25 C 0.175781 0.226562 0.238281 0.175781 0.34375 0.09375 C 0.445312 0.0195312 0.769531 -0.128906 1.3125 -0.359375 C 1.851562 -0.597656 2.160156 -0.742188 2.234375 -0.796875 C 2.347656 -0.878906 2.4375 -1.023438 2.5 -1.234375 L 2.53125 -1.3125 L 2.609375 -1.375 C 2.816406 -1.207031 3.082031 -0.898438 3.40625 -0.453125 C 3.332031 -0.335938 3.207031 -0.21875 3.03125 -0.09375 C 3.125 -0.09375 3.273438 -0.0664062 3.484375 -0.015625 C 3.691406 0.0234375 3.84375 0.113281 3.9375 0.25 C 4.082031 0.457031 3.976562 0.6875 3.625 0.9375 C 3.601562 0.925781 3.554688 0.914062 3.484375 0.90625 C 3.421875 0.90625 3.328125 0.878906 3.203125 0.828125 C 3.078125 0.785156 2.96875 0.726562 2.875 0.65625 C 2.875 0.65625 2.898438 0.582031 2.953125 0.4375 C 3.015625 0.300781 3.039062 0.222656 3.03125 0.203125 C 2.925781 0.128906 2.804688 0.0820312 2.671875 0.0625 C 1.773438 0.4375 1.210938 0.707031 0.984375 0.875 C 0.898438 0.9375 0.847656 0.984375 0.828125 1.015625 C 0.679688 0.921875 0.46875 0.679688 0.1875 0.296875 Z M 0.1875 0.296875 "/></g></g></g><g fill="#16a637" fill-opacity="1"><g transform="translate(7.865656, 19.681558)"><g><path d="M 0.546875 -0.21875 C 0.671875 -0.363281 0.9375 -0.578125 1.34375 -0.859375 C 1.75 -1.140625 1.984375 -1.316406 2.046875 -1.390625 C 2.117188 -1.472656 2.15625 -1.640625 2.15625 -1.890625 L 2.203125 -1.9375 C 2.492188 -1.789062 2.828125 -1.550781 3.203125 -1.21875 C 3.191406 -1.144531 3.132812 -1.050781 3.03125 -0.9375 C 2.925781 -0.820312 2.65625 -0.613281 2.21875 -0.3125 C 1.789062 -0.0195312 1.535156 0.171875 1.453125 0.265625 C 1.367188 0.359375 1.363281 0.4375 1.4375 0.5 C 1.53125 0.59375 1.671875 0.660156 1.859375 0.703125 C 1.953125 0.628906 2.128906 0.492188 2.390625 0.296875 C 2.992188 -0.128906 3.398438 -0.460938 3.609375 -0.703125 C 3.773438 -0.640625 4.015625 -0.472656 4.328125 -0.203125 L 4.421875 -0.125 C 4.285156 0.0390625 3.957031 0.316406 3.4375 0.703125 C 2.925781 1.085938 2.632812 1.320312 2.5625 1.40625 C 2.488281 1.488281 2.472656 1.546875 2.515625 1.578125 C 2.535156 1.597656 2.675781 1.640625 2.9375 1.703125 L 2.875 1.96875 C 2.351562 1.945312 1.972656 1.832031 1.734375 1.625 C 1.628906 1.53125 1.5625 1.414062 1.53125 1.28125 C 1.507812 1.15625 1.535156 1.039062 1.609375 0.9375 C 1.128906 0.914062 0.773438 0.804688 0.546875 0.609375 C 0.429688 0.503906 0.367188 0.375 0.359375 0.21875 C 0.359375 0.0703125 0.421875 -0.0703125 0.546875 -0.21875 Z M 0.546875 -0.21875 "/></g></g></g><g fill="#16a637" fill-opacity="1"><g transform="translate(11.104589, 22.341146)"><g><path d="M 2.5 0.3125 C 2.351562 0.570312 2.125 0.71875 1.8125 0.75 C 1.507812 0.789062 1.210938 0.734375 0.921875 0.578125 C 0.628906 0.421875 0.429688 0.238281 0.328125 0.03125 C 0.222656 -0.175781 0.195312 -0.328125 0.25 -0.421875 C 0.28125 -0.484375 0.398438 -0.535156 0.609375 -0.578125 C 0.816406 -0.628906 0.984375 -0.648438 1.109375 -0.640625 C 1.222656 -0.367188 1.253906 -0.0351562 1.203125 0.359375 C 1.367188 0.421875 1.484375 0.390625 1.546875 0.265625 C 1.648438 0.0664062 1.628906 -0.285156 1.484375 -0.796875 C 1.335938 -1.316406 1.316406 -1.675781 1.421875 -1.875 C 1.535156 -2.070312 1.710938 -2.175781 1.953125 -2.1875 C 2.203125 -2.207031 2.457031 -2.144531 2.71875 -2 C 2.976562 -1.863281 3.144531 -1.71875 3.21875 -1.5625 C 3.300781 -1.40625 3.300781 -1.25 3.21875 -1.09375 C 3.132812 -0.9375 2.890625 -0.785156 2.484375 -0.640625 C 2.503906 -0.597656 2.523438 -0.539062 2.546875 -0.46875 C 2.566406 -0.394531 2.578125 -0.273438 2.578125 -0.109375 C 2.578125 0.0546875 2.550781 0.195312 2.5 0.3125 Z M 2.40625 -0.953125 C 2.664062 -1.003906 2.832031 -1.097656 2.90625 -1.234375 C 2.988281 -1.378906 2.929688 -1.503906 2.734375 -1.609375 C 2.648438 -1.660156 2.5625 -1.679688 2.46875 -1.671875 C 2.382812 -1.671875 2.328125 -1.644531 2.296875 -1.59375 C 2.253906 -1.507812 2.28125 -1.335938 2.375 -1.078125 Z M 2.40625 -0.953125 "/></g></g></g><g fill="#16a637" fill-opacity="1"><g transform="translate(13.937811, 23.838821)"><g><path d="M 2.203125 -4.125 C 2.242188 -4.269531 2.253906 -4.375 2.234375 -4.4375 C 2.617188 -4.457031 2.960938 -4.425781 3.265625 -4.34375 C 3.296875 -4.289062 3.285156 -4.1875 3.234375 -4.03125 C 3.160156 -3.738281 2.851562 -3.097656 2.3125 -2.109375 C 2.738281 -2.273438 3.085938 -2.320312 3.359375 -2.25 C 3.523438 -2.195312 3.640625 -2.109375 3.703125 -1.984375 C 3.765625 -1.859375 3.769531 -1.707031 3.71875 -1.53125 C 3.664062 -1.351562 3.53125 -1.078125 3.3125 -0.703125 C 3.101562 -0.335938 2.976562 -0.0820312 2.9375 0.0625 C 2.894531 0.21875 2.890625 0.300781 2.921875 0.3125 C 2.960938 0.320312 3.070312 0.304688 3.25 0.265625 L 3.328125 0.25 L 3.390625 0.5 C 3.335938 0.53125 3.269531 0.5625 3.1875 0.59375 C 3.113281 0.632812 2.976562 0.671875 2.78125 0.703125 C 2.582031 0.742188 2.40625 0.742188 2.25 0.703125 C 2.101562 0.660156 2 0.582031 1.9375 0.46875 C 1.875 0.351562 1.863281 0.210938 1.90625 0.046875 C 1.945312 -0.109375 2.078125 -0.382812 2.296875 -0.78125 C 2.515625 -1.1875 2.640625 -1.445312 2.671875 -1.5625 C 2.703125 -1.675781 2.671875 -1.75 2.578125 -1.78125 C 2.472656 -1.800781 2.316406 -1.789062 2.109375 -1.75 C 1.566406 -0.75 1.25 -0.0859375 1.15625 0.234375 C 0.945312 0.253906 0.625 0.203125 0.1875 0.078125 C 0.207031 -0.00390625 0.222656 -0.0703125 0.234375 -0.125 C 0.285156 -0.3125 0.597656 -0.925781 1.171875 -1.96875 C 1.742188 -3.007812 2.085938 -3.726562 2.203125 -4.125 Z M 2.203125 -4.125 "/></g></g></g><g fill="#16a637" fill-opacity="1"><g transform="translate(17.951101, 24.795811)"><g><path d="M 1.8125 -2.515625 C 1.800781 -2.328125 1.71875 -2 1.5625 -1.53125 C 1.40625 -1.070312 1.320312 -0.769531 1.3125 -0.625 C 1.300781 -0.476562 1.316406 -0.398438 1.359375 -0.390625 C 1.390625 -0.390625 1.5 -0.429688 1.6875 -0.515625 L 1.78125 -0.546875 L 1.875 -0.296875 C 1.832031 -0.253906 1.773438 -0.207031 1.703125 -0.15625 C 1.628906 -0.113281 1.492188 -0.0546875 1.296875 0.015625 C 1.109375 0.0976562 0.929688 0.132812 0.765625 0.125 C 0.609375 0.113281 0.484375 0.0546875 0.390625 -0.046875 C 0.304688 -0.148438 0.269531 -0.285156 0.28125 -0.453125 C 0.289062 -0.617188 0.363281 -0.910156 0.5 -1.328125 C 0.644531 -1.753906 0.722656 -2.03125 0.734375 -2.15625 C 0.753906 -2.351562 0.710938 -2.539062 0.609375 -2.71875 L 0.546875 -2.796875 L 0.546875 -2.890625 C 0.796875 -2.953125 1.195312 -2.960938 1.75 -2.921875 C 1.800781 -2.847656 1.820312 -2.710938 1.8125 -2.515625 Z M 1.09375 -3.703125 C 1.019531 -3.804688 0.984375 -3.929688 0.984375 -4.078125 C 0.992188 -4.234375 1.066406 -4.363281 1.203125 -4.46875 C 1.335938 -4.570312 1.488281 -4.617188 1.65625 -4.609375 C 1.820312 -4.597656 1.945312 -4.539062 2.03125 -4.4375 C 2.113281 -4.34375 2.148438 -4.21875 2.140625 -4.0625 C 2.128906 -3.914062 2.050781 -3.789062 1.90625 -3.6875 C 1.769531 -3.582031 1.617188 -3.535156 1.453125 -3.546875 C 1.296875 -3.554688 1.175781 -3.609375 1.09375 -3.703125 Z M 1.09375 -3.703125 "/></g></g></g><g fill="#16a637" fill-opacity="1"><g transform="translate(20.385814, 24.902516)"><g/></g></g><g fill="#1e3148" fill-opacity="1"><g transform="translate(22.748919, 24.999887)"><g><path d="M 5.125 -1.890625 C 4.96875 -1.828125 4.816406 -1.832031 4.671875 -1.90625 C 4.523438 -1.988281 4.410156 -2.125 4.328125 -2.3125 C 4.253906 -2.507812 4.15625 -3.03125 4.03125 -3.875 C 3.90625 -4.71875 3.800781 -5.25 3.71875 -5.46875 C 3.632812 -5.6875 3.515625 -5.765625 3.359375 -5.703125 C 3.117188 -5.609375 2.898438 -5.40625 2.703125 -5.09375 C 2.765625 -4.84375 2.832031 -4.398438 2.90625 -3.765625 C 2.976562 -3.140625 3.046875 -2.675781 3.109375 -2.375 C 3.171875 -2.082031 3.226562 -1.859375 3.28125 -1.703125 C 3.34375 -1.554688 3.378906 -1.46875 3.390625 -1.4375 C 3.265625 -1.28125 2.988281 -1.117188 2.5625 -0.953125 L 2.453125 -0.90625 C 2.304688 -1.269531 2.160156 -1.925781 2.015625 -2.875 C 1.890625 -3.832031 1.78125 -4.425781 1.6875 -4.65625 C 1.601562 -4.882812 1.476562 -4.96875 1.3125 -4.90625 C 1.082031 -4.820312 0.859375 -4.609375 0.640625 -4.265625 C 0.679688 -4.015625 0.738281 -3.59375 0.8125 -3 C 1 -1.675781 1.144531 -0.878906 1.25 -0.609375 C 1.125 -0.453125 0.847656 -0.289062 0.421875 -0.125 L 0.296875 -0.078125 C 0.242188 -0.285156 0.140625 -0.898438 -0.015625 -1.921875 C -0.171875 -2.941406 -0.316406 -3.691406 -0.453125 -4.171875 C -0.472656 -4.242188 -0.523438 -4.320312 -0.609375 -4.40625 C -0.691406 -4.488281 -0.769531 -4.546875 -0.84375 -4.578125 L -0.9375 -4.65625 L -0.953125 -4.75 C -0.742188 -4.925781 -0.34375 -5.128906 0.25 -5.359375 C 0.34375 -5.273438 0.414062 -5.15625 0.46875 -5 C 0.488281 -4.957031 0.515625 -4.859375 0.546875 -4.703125 C 0.878906 -5.347656 1.238281 -5.742188 1.625 -5.890625 C 1.800781 -5.960938 1.972656 -5.960938 2.140625 -5.890625 C 2.304688 -5.816406 2.441406 -5.6875 2.546875 -5.5 C 2.898438 -6.132812 3.253906 -6.519531 3.609375 -6.65625 C 3.835938 -6.738281 4.046875 -6.734375 4.234375 -6.640625 C 4.429688 -6.554688 4.578125 -6.378906 4.671875 -6.109375 C 4.773438 -5.847656 4.875 -5.3125 4.96875 -4.5 C 5.070312 -3.695312 5.179688 -3.148438 5.296875 -2.859375 C 5.335938 -2.734375 5.382812 -2.679688 5.4375 -2.703125 C 5.476562 -2.710938 5.5625 -2.789062 5.6875 -2.9375 L 5.78125 -3.03125 L 5.984375 -2.828125 C 5.867188 -2.597656 5.734375 -2.398438 5.578125 -2.234375 C 5.429688 -2.066406 5.28125 -1.953125 5.125 -1.890625 Z M 0.5 -3.0625 C 0.488281 -3.050781 0.488281 -3.046875 0.5 -3.046875 Z M 0.5 -3.0625 "/></g></g></g><g fill="#1e3148" fill-opacity="1"><g transform="translate(29.63558, 21.766931)"><g><path d="M -0.40625 -3.078125 C -0.28125 -2.929688 -0.113281 -2.632812 0.09375 -2.1875 C 0.300781 -1.738281 0.445312 -1.457031 0.53125 -1.34375 C 0.625 -1.226562 0.6875 -1.1875 0.71875 -1.21875 C 0.738281 -1.238281 0.789062 -1.34375 0.875 -1.53125 L 0.921875 -1.59375 L 1.15625 -1.5 C 1.144531 -1.4375 1.128906 -1.363281 1.109375 -1.28125 C 1.097656 -1.195312 1.046875 -1.054688 0.953125 -0.859375 C 0.867188 -0.671875 0.765625 -0.523438 0.640625 -0.421875 C 0.515625 -0.328125 0.382812 -0.285156 0.25 -0.296875 C 0.113281 -0.316406 -0.00390625 -0.390625 -0.109375 -0.515625 C -0.210938 -0.648438 -0.359375 -0.921875 -0.546875 -1.328125 C -0.734375 -1.734375 -0.867188 -1.984375 -0.953125 -2.078125 C -1.078125 -2.234375 -1.234375 -2.335938 -1.421875 -2.390625 L -1.515625 -2.421875 L -1.578125 -2.484375 C -1.429688 -2.691406 -1.148438 -2.972656 -0.734375 -3.328125 C -0.640625 -3.304688 -0.53125 -3.222656 -0.40625 -3.078125 Z M -1.734375 -3.453125 C -1.859375 -3.472656 -1.96875 -3.539062 -2.0625 -3.65625 C -2.164062 -3.769531 -2.207031 -3.910156 -2.1875 -4.078125 C -2.164062 -4.242188 -2.085938 -4.378906 -1.953125 -4.484375 C -1.828125 -4.597656 -1.695312 -4.644531 -1.5625 -4.625 C -1.4375 -4.613281 -1.328125 -4.550781 -1.234375 -4.4375 C -1.140625 -4.320312 -1.101562 -4.175781 -1.125 -4 C -1.15625 -3.832031 -1.234375 -3.695312 -1.359375 -3.59375 C -1.484375 -3.488281 -1.609375 -3.441406 -1.734375 -3.453125 Z M -1.734375 -3.453125 "/></g></g></g><g fill="#1e3148" fill-opacity="1"><g transform="translate(31.528541, 20.15706)"><g><path d="M -0.65625 -3.765625 C -0.570312 -3.671875 -0.492188 -3.550781 -0.421875 -3.40625 C -0.566406 -3.28125 -0.691406 -3.160156 -0.796875 -3.046875 L -0.875 -2.953125 C -0.238281 -2.109375 0.171875 -1.601562 0.359375 -1.4375 C 0.460938 -1.351562 0.53125 -1.332031 0.5625 -1.375 C 0.601562 -1.414062 0.664062 -1.566406 0.75 -1.828125 L 1 -1.765625 C 0.976562 -1.242188 0.851562 -0.847656 0.625 -0.578125 C 0.507812 -0.453125 0.382812 -0.382812 0.25 -0.375 C 0.113281 -0.363281 -0.015625 -0.414062 -0.140625 -0.53125 C -0.265625 -0.644531 -0.394531 -0.785156 -0.53125 -0.953125 C -0.675781 -1.117188 -0.835938 -1.328125 -1.015625 -1.578125 C -1.203125 -1.835938 -1.359375 -2.039062 -1.484375 -2.1875 C -1.585938 -2.050781 -1.65625 -1.945312 -1.6875 -1.875 C -1.75 -1.914062 -1.8125 -1.96875 -1.875 -2.03125 C -1.945312 -2.09375 -2 -2.148438 -2.03125 -2.203125 L -1.75 -2.515625 C -1.90625 -2.703125 -2.066406 -2.875 -2.234375 -3.03125 L -2.390625 -3.15625 L -2.421875 -3.1875 C -2.273438 -3.539062 -2.097656 -3.832031 -1.890625 -4.0625 C -1.804688 -4.019531 -1.710938 -3.953125 -1.609375 -3.859375 C -1.503906 -3.765625 -1.335938 -3.5625 -1.109375 -3.25 Z M -0.65625 -3.765625 "/></g></g></g><g fill="#1e3148" fill-opacity="1"><g transform="translate(33.287497, 18.121594)"><g><path d="M 0.1875 -0.28125 L 0.171875 -0.234375 C 0.128906 -0.242188 0.0546875 -0.28125 -0.046875 -0.34375 C -0.160156 -0.414062 -0.429688 -0.65625 -0.859375 -1.0625 C -1.285156 -1.476562 -1.535156 -1.707031 -1.609375 -1.75 C -1.734375 -1.820312 -1.894531 -1.851562 -2.09375 -1.84375 L -2.203125 -1.8125 L -2.28125 -1.859375 C -2.21875 -2.117188 -2.039062 -2.484375 -1.75 -2.953125 C -1.613281 -2.929688 -1.453125 -2.863281 -1.265625 -2.75 C -1.304688 -2.832031 -1.34375 -2.976562 -1.375 -3.1875 C -1.414062 -3.40625 -1.394531 -3.585938 -1.3125 -3.734375 C -1.175781 -3.941406 -0.921875 -3.929688 -0.546875 -3.703125 C -0.546875 -3.671875 -0.535156 -3.625 -0.515625 -3.5625 C -0.492188 -3.507812 -0.476562 -3.414062 -0.46875 -3.28125 C -0.46875 -3.144531 -0.492188 -3.019531 -0.546875 -2.90625 C -0.546875 -2.90625 -0.613281 -2.90625 -0.75 -2.90625 C -0.894531 -2.90625 -0.976562 -2.890625 -1 -2.859375 C -1.03125 -2.742188 -1.023438 -2.617188 -0.984375 -2.484375 C -0.285156 -1.816406 0.179688 -1.410156 0.421875 -1.265625 C 0.503906 -1.210938 0.570312 -1.179688 0.625 -1.171875 C 0.582031 -0.984375 0.4375 -0.6875 0.1875 -0.28125 Z M 0.1875 -0.28125 "/></g></g></g><g fill="#1e3148" fill-opacity="1"><g transform="translate(34.953436, 15.317036)"><g><path d="M -1.984375 -3.046875 C -1.984375 -3.066406 -2.03125 -3.113281 -2.125 -3.1875 C -2.050781 -3.394531 -1.894531 -3.648438 -1.65625 -3.953125 C -1.332031 -3.710938 -0.984375 -3.492188 -0.609375 -3.296875 C -0.242188 -3.109375 0.0195312 -2.984375 0.1875 -2.921875 C 0.363281 -2.867188 0.457031 -2.859375 0.46875 -2.890625 C 0.476562 -2.910156 0.460938 -3.019531 0.421875 -3.21875 L 0.421875 -3.3125 L 0.671875 -3.359375 C 0.703125 -3.296875 0.734375 -3.226562 0.765625 -3.15625 C 0.796875 -3.082031 0.828125 -2.9375 0.859375 -2.71875 C 0.890625 -2.507812 0.878906 -2.335938 0.828125 -2.203125 C 0.742188 -1.941406 0.570312 -1.828125 0.3125 -1.859375 C 0.457031 -1.492188 0.492188 -1.203125 0.421875 -0.984375 C 0.347656 -0.765625 0.195312 -0.601562 -0.03125 -0.5 C -0.257812 -0.40625 -0.5625 -0.421875 -0.9375 -0.546875 C -1.519531 -0.742188 -1.941406 -1.019531 -2.203125 -1.375 C -2.460938 -1.738281 -2.535156 -2.085938 -2.421875 -2.421875 C -2.335938 -2.671875 -2.191406 -2.878906 -1.984375 -3.046875 Z M 0 -1.5625 C 0.03125 -1.664062 0.0234375 -1.796875 -0.015625 -1.953125 C -0.617188 -2.203125 -1.191406 -2.507812 -1.734375 -2.875 C -1.835938 -2.757812 -1.90625 -2.660156 -1.9375 -2.578125 C -1.988281 -2.421875 -1.875 -2.234375 -1.59375 -2.015625 C -1.320312 -1.796875 -1 -1.625 -0.625 -1.5 C -0.257812 -1.375 -0.0507812 -1.394531 0 -1.5625 Z M 0 -1.5625 "/></g></g></g></svg>