<svg width="135" height="40" viewBox="0 0 135 40" fill="none" xmlns="http://www.w3.org/2000/svg">
<path d="M19.9999 40C31.0456 40 39.9999 31.0457 39.9999 20C39.9999 8.9543 31.0456 0 19.9999 0C8.95424 0 -6.10352e-05 8.9543 -6.10352e-05 20C-6.10352e-05 31.0457 8.95424 40 19.9999 40Z" fill="white" fill-opacity="0.1"/>
<path d="M18.8424 28.0463C14.9124 27.4707 11.8964 24.0828 11.8964 19.9891C11.8964 15.8954 14.9124 12.5075 18.8424 11.9322V7.69238C12.5855 8.29084 7.69232 13.5677 7.69232 19.9891C7.69232 26.4104 12.5855 31.687 18.8424 32.2858V28.0463Z" fill="white"/>
<path d="M26.9983 12L26.8892 12.3711V23.1393L26.9983 23.2483L31.9968 20.2937L26.9983 12Z" fill="white"/>
<path d="M26.9984 12L21.9999 20.2937L26.9984 23.2483V18.0217V12Z" fill="white"/>
<path d="M26.9986 24.8742L26.9371 24.9492V28.7851L26.9986 28.9648L32.0001 21.9211L26.9986 24.8742Z" fill="white"/>
<path d="M26.9984 28.9648V24.8742L21.9999 21.9211L26.9984 28.9648Z" fill="white"/>
<path d="M26.9984 23.2482L31.9968 20.2937L26.9984 18.0217V23.2482Z" fill="white"/>
<path d="M21.9999 20.2937L26.9983 23.2482V18.0217L21.9999 20.2937Z" fill="white"/>
<path d="M68.4964 18.326H66.1058C66.0376 17.9339 65.9119 17.5866 65.7287 17.2841C65.5455 16.9773 65.3175 16.7173 65.0447 16.5043C64.772 16.2912 64.4609 16.1314 64.1115 16.0249C63.7663 15.9141 63.3935 15.8587 62.9929 15.8587C62.2813 15.8587 61.6506 16.0376 61.1009 16.3956C60.5511 16.7493 60.1207 17.2692 59.8097 17.9553C59.4986 18.6371 59.343 19.4702 59.343 20.4545C59.343 21.456 59.4986 22.2997 59.8097 22.9858C60.125 23.6676 60.5554 24.1832 61.1009 24.5327C61.6506 24.8778 62.2791 25.0504 62.9865 25.0504C63.3786 25.0504 63.745 24.9993 64.0859 24.897C64.4311 24.7905 64.7401 24.6349 65.0128 24.4304C65.2898 24.2259 65.522 23.9744 65.7095 23.6761C65.9013 23.3778 66.0334 23.0369 66.1058 22.6534L68.4964 22.6662C68.407 23.2884 68.2131 23.8722 67.9148 24.4176C67.6207 24.9631 67.2351 25.4446 66.7578 25.8622C66.2805 26.2756 65.7223 26.5994 65.0831 26.8338C64.4439 27.0639 63.7344 27.179 62.9545 27.179C61.804 27.179 60.777 26.9126 59.8736 26.38C58.9702 25.8473 58.2585 25.0781 57.7386 24.0724C57.2188 23.0668 56.9588 21.8608 56.9588 20.4545C56.9588 19.044 57.2209 17.8381 57.745 16.8366C58.2692 15.831 58.983 15.0618 59.8864 14.5291C60.7898 13.9964 61.8125 13.7301 62.9545 13.7301C63.6832 13.7301 64.3608 13.8324 64.9872 14.0369C65.6136 14.2415 66.1719 14.5419 66.6619 14.9382C67.152 15.3303 67.5547 15.8118 67.87 16.3828C68.1896 16.9496 68.3984 17.5973 68.4964 18.326ZM71.3881 27V13.9091H76.2972C77.3029 13.9091 78.1467 14.0838 78.8285 14.4332C79.5146 14.7827 80.0323 15.2727 80.3818 15.9034C80.7354 16.5298 80.9123 17.2607 80.9123 18.0959C80.9123 18.9354 80.7333 19.6641 80.3754 20.282C80.0217 20.8956 79.4997 21.3707 78.8093 21.7074C78.119 22.0398 77.271 22.206 76.2653 22.206H72.7688V20.2372H75.9457C76.5337 20.2372 77.0153 20.1562 77.3903 19.9943C77.7653 19.8281 78.0423 19.5874 78.2212 19.272C78.4045 18.9524 78.4961 18.5604 78.4961 18.0959C78.4961 17.6314 78.4045 17.2351 78.2212 16.907C78.038 16.5746 77.7589 16.3232 77.3839 16.1527C77.0089 15.978 76.5252 15.8906 75.9329 15.8906H73.7596V27H71.3881ZM78.1509 21.0682L81.3917 27H78.7454L75.5622 21.0682H78.1509ZM85.4963 27H82.965L87.5737 13.9091H90.5013L95.1163 27H92.5851L89.0886 16.5938H88.9863L85.4963 27ZM85.5794 21.8672H92.4828V23.772H85.5794V21.8672ZM97.5606 27V13.9091H102.47C103.475 13.9091 104.319 14.0966 105.001 14.4716C105.687 14.8466 106.205 15.3622 106.554 16.0185C106.908 16.6705 107.085 17.4119 107.085 18.2429C107.085 19.0824 106.908 19.8281 106.554 20.4801C106.2 21.1321 105.678 21.6456 104.988 22.0206C104.298 22.3913 103.448 22.5767 102.438 22.5767H99.1841V20.6271H102.118C102.706 20.6271 103.188 20.5249 103.563 20.3203C103.938 20.1158 104.215 19.8345 104.394 19.4766C104.577 19.1186 104.669 18.7074 104.669 18.2429C104.669 17.7784 104.577 17.3693 104.394 17.0156C104.215 16.6619 103.936 16.3871 103.556 16.1911C103.181 15.9908 102.698 15.8906 102.105 15.8906H99.932V27H97.5606ZM109.865 27V13.9091H114.774C115.779 13.9091 116.623 14.0966 117.305 14.4716C117.991 14.8466 118.509 15.3622 118.858 16.0185C119.212 16.6705 119.389 17.4119 119.389 18.2429C119.389 19.0824 119.212 19.8281 118.858 20.4801C118.504 21.1321 117.982 21.6456 117.292 22.0206C116.602 22.3913 115.752 22.5767 114.742 22.5767H111.488V20.6271H114.422C115.01 20.6271 115.492 20.5249 115.867 20.3203C116.242 20.1158 116.519 19.8345 116.698 19.4766C116.881 19.1186 116.973 18.7074 116.973 18.2429C116.973 17.7784 116.881 17.3693 116.698 17.0156C116.519 16.6619 116.24 16.3871 115.86 16.1911C115.485 15.9908 115.002 15.8906 114.409 15.8906H112.236V27H109.865ZM133.866 20.4545C133.866 21.8651 133.602 23.0732 133.073 24.0788C132.549 25.0803 131.833 25.8473 130.926 26.38C130.022 26.9126 128.997 27.179 127.851 27.179C126.705 27.179 125.678 26.9126 124.77 26.38C123.867 25.843 123.151 25.0739 122.622 24.0724C122.098 23.0668 121.836 21.8608 121.836 20.4545C121.836 19.044 122.098 17.8381 122.622 16.8366C123.151 15.831 123.867 15.0618 124.77 14.5291C125.678 13.9964 126.705 13.7301 127.851 13.7301C128.997 13.7301 130.022 13.9964 130.926 14.5291C131.833 15.0618 132.549 15.831 133.073 16.8366C133.602 17.8381 133.866 19.044 133.866 20.4545ZM131.482 20.4545C131.482 19.4616 131.326 18.6243 131.015 17.9425C130.708 17.2564 130.282 16.7386 129.737 16.3892C129.191 16.0355 128.563 15.8587 127.851 15.8587C127.139 15.8587 126.511 16.0355 125.965 16.3892C125.42 16.7386 124.992 17.2564 124.681 17.9425C124.374 18.6243 124.22 19.4616 124.22 20.4545C124.22 21.4474 124.374 22.2869 124.681 22.973C124.992 23.6548 125.42 24.1726 125.965 24.5263C126.511 24.8757 127.139 25.0504 127.851 25.0504C128.563 25.0504 129.191 24.8757 129.737 24.5263C130.282 24.1726 130.708 23.6548 131.015 22.973C131.326 22.2869 131.482 21.4474 131.482 20.4545Z" fill="white"/>
</svg>
