<svg xmlns="http://www.w3.org/2000/svg" xmlns:xlink="http://www.w3.org/1999/xlink" width="82" zoomAndPan="magnify" viewBox="0 0 61.5 45.749999" height="61" preserveAspectRatio="xMidYMid meet" version="1.0"><defs><g/><clipPath id="95f0898b3e"><path d="M 15.539062 0.0585938 L 44.554688 0.0585938 L 44.554688 20 L 15.539062 20 Z M 15.539062 0.0585938 " clip-rule="nonzero"/></clipPath><clipPath id="2cc2c780e3"><path d="M 18 20 L 43 20 L 43 29.074219 L 18 29.074219 Z M 18 20 " clip-rule="nonzero"/></clipPath></defs><g clip-path="url(#95f0898b3e)"><path fill="#16a637" d="M 24.988281 19.003906 C 26.222656 17.710938 27.894531 16.933594 29.667969 16.8125 C 29.667969 16.804688 29.667969 16.800781 29.667969 16.796875 C 29.675781 16.277344 29.675781 15.890625 29.695312 15.710938 C 30.070312 12.363281 30.984375 9.785156 35.023438 7.222656 C 33.15625 7.695312 31.53125 9.085938 30.144531 11.398438 C 30.570312 5.71875 35.253906 7.339844 38.523438 4.65625 C 37.867188 15.511719 31.429688 8.066406 30.351562 16.792969 C 30.351562 16.792969 30.351562 16.792969 30.351562 16.796875 C 32.238281 16.84375 34.03125 17.636719 35.339844 19 L 44.21875 19 C 44.632812 17.644531 44.855469 16.207031 44.855469 14.714844 C 44.855469 6.621094 38.292969 0.0585938 30.199219 0.0585938 C 22.101562 0.0585938 15.539062 6.621094 15.539062 14.71875 C 15.539062 16.207031 15.761719 17.648438 16.175781 19.003906 Z M 29.339844 12.785156 C 25.214844 12.605469 23.308594 10.308594 23.613281 5.898438 C 27.332031 7.519531 30.152344 8.554688 29.636719 12.050781 C 29.132812 10.347656 28.28125 8.878906 26.605469 8.15625 C 27.964844 9.355469 28.941406 10.890625 29.339844 12.785156 Z M 29.339844 12.785156 " fill-opacity="1" fill-rule="evenodd"/></g><g clip-path="url(#2cc2c780e3)"><path fill="#1e3148" d="M 30.199219 25.445312 C 30.015625 25.40625 29.832031 25.367188 29.648438 25.320312 C 29.457031 25.273438 29.261719 25.21875 29.066406 25.15625 C 28.421875 24.953125 28.261719 24.648438 28.363281 24.339844 C 28.855469 22.859375 31.234375 23.257812 32.304688 23.253906 C 35.023438 23.242188 36.1875 22.886719 35.804688 21.714844 C 34.023438 21.074219 32.15625 20.785156 30.199219 20.859375 C 30.019531 20.863281 29.835938 20.875 29.65625 20.886719 C 25.230469 21.21875 22.109375 24.464844 18.972656 24.140625 C 21.550781 27.210938 25.363281 29.207031 29.644531 29.363281 C 29.828125 29.371094 30.011719 29.375 30.195312 29.375 C 35.207031 29.375 39.628906 26.863281 42.269531 23.03125 C 40.511719 20.96875 36.597656 26.691406 30.199219 25.445312 " fill-opacity="1" fill-rule="evenodd"/></g><g fill="#16a637" fill-opacity="1"><g transform="translate(5.749797, 18.765999)"><g><path d="M 0.1875 0.640625 L 0.125 0.453125 C 0.4375 0.367188 1.382812 0.21875 2.96875 0 C 4.550781 -0.226562 5.71875 -0.441406 6.46875 -0.640625 C 6.570312 -0.679688 6.6875 -0.765625 6.8125 -0.890625 C 6.9375 -1.015625 7.035156 -1.140625 7.109375 -1.265625 L 7.203125 -1.40625 L 7.359375 -1.4375 C 7.628906 -1.101562 7.929688 -0.484375 8.265625 0.421875 C 8.148438 0.578125 7.941406 0.707031 7.640625 0.8125 C 7.347656 0.925781 6.453125 1.078125 4.953125 1.265625 L 4.96875 1.3125 C 5.1875 1.90625 5.566406 2.242188 6.109375 2.328125 C 6.660156 2.421875 7.5 2.328125 8.625 2.046875 C 8.957031 2.453125 9.222656 2.914062 9.421875 3.4375 C 9.367188 3.476562 9.25 3.53125 9.0625 3.59375 C 8.882812 3.65625 8.640625 3.707031 8.328125 3.75 C 8.023438 3.789062 7.691406 3.800781 7.328125 3.78125 C 6.972656 3.769531 6.609375 3.691406 6.234375 3.546875 C 5.867188 3.410156 5.539062 3.207031 5.25 2.9375 C 4.082031 3.820312 3.347656 4.476562 3.046875 4.90625 C 2.921875 5.101562 2.867188 5.226562 2.890625 5.28125 C 2.941406 5.40625 3.078125 5.578125 3.296875 5.796875 L 3.390625 5.875 L 3.125 6.25 C 2.8125 6.082031 2.519531 5.863281 2.25 5.59375 C 1.976562 5.332031 1.785156 5.054688 1.671875 4.765625 C 1.566406 4.484375 1.597656 4.21875 1.765625 3.96875 C 1.929688 3.726562 2.15625 3.488281 2.4375 3.25 C 2.726562 3.007812 3.082031 2.742188 3.5 2.453125 C 3.914062 2.160156 4.226562 1.945312 4.4375 1.8125 C 4.414062 1.757812 4.359375 1.601562 4.265625 1.34375 C 2.453125 1.582031 1.335938 1.78125 0.921875 1.9375 C 0.679688 1.738281 0.4375 1.304688 0.1875 0.640625 Z M 0.1875 0.640625 "/></g></g></g><g fill="#16a637" fill-opacity="1"><g transform="translate(8.850472, 26.011674)"><g><path d="M 0.28125 0.453125 L 0.234375 0.390625 C 0.265625 0.347656 0.363281 0.269531 0.53125 0.15625 C 0.695312 0.0390625 1.195312 -0.195312 2.03125 -0.5625 C 2.875 -0.925781 3.347656 -1.144531 3.453125 -1.21875 C 3.640625 -1.351562 3.78125 -1.582031 3.875 -1.90625 L 3.90625 -2.046875 L 4.03125 -2.140625 C 4.34375 -1.867188 4.742188 -1.394531 5.234375 -0.71875 C 5.128906 -0.53125 4.941406 -0.335938 4.671875 -0.140625 C 4.828125 -0.171875 5.0625 -0.144531 5.375 -0.0625 C 5.695312 0.0078125 5.9375 0.15625 6.09375 0.375 C 6.320312 0.6875 6.160156 1.039062 5.609375 1.4375 C 5.554688 1.4375 5.484375 1.429688 5.390625 1.421875 C 5.304688 1.410156 5.160156 1.363281 4.953125 1.28125 C 4.742188 1.207031 4.578125 1.109375 4.453125 0.984375 C 4.453125 0.972656 4.492188 0.863281 4.578125 0.65625 C 4.671875 0.457031 4.703125 0.335938 4.671875 0.296875 C 4.523438 0.191406 4.347656 0.125 4.140625 0.09375 C 2.753906 0.6875 1.890625 1.109375 1.546875 1.359375 C 1.410156 1.453125 1.316406 1.519531 1.265625 1.5625 C 1.035156 1.414062 0.707031 1.046875 0.28125 0.453125 Z M 0.28125 0.453125 "/></g></g></g><g fill="#16a637" fill-opacity="1"><g transform="translate(11.753779, 29.992179)"><g><path d="M 0.84375 -0.34375 C 1.039062 -0.570312 1.445312 -0.898438 2.0625 -1.328125 C 2.6875 -1.765625 3.054688 -2.046875 3.171875 -2.171875 C 3.285156 -2.296875 3.335938 -2.546875 3.328125 -2.921875 L 3.4375 -3.015625 C 3.851562 -2.773438 4.359375 -2.390625 4.953125 -1.859375 C 4.910156 -1.765625 4.8125 -1.625 4.65625 -1.4375 C 4.5 -1.257812 4.085938 -0.941406 3.421875 -0.484375 C 2.753906 -0.0234375 2.351562 0.273438 2.21875 0.421875 C 2.09375 0.566406 2.082031 0.691406 2.1875 0.796875 C 2.34375 0.921875 2.570312 1.007812 2.875 1.0625 C 3.019531 0.957031 3.296875 0.765625 3.703125 0.484375 C 4.648438 -0.203125 5.285156 -0.726562 5.609375 -1.09375 C 5.859375 -1 6.222656 -0.738281 6.703125 -0.3125 L 6.859375 -0.1875 C 6.640625 0.0625 6.132812 0.484375 5.34375 1.078125 C 4.550781 1.679688 4.097656 2.046875 3.984375 2.171875 C 3.878906 2.296875 3.851562 2.378906 3.90625 2.421875 C 3.9375 2.453125 4.140625 2.523438 4.515625 2.640625 L 4.453125 3.03125 C 3.628906 3 3.039062 2.832031 2.6875 2.53125 C 2.519531 2.375 2.414062 2.195312 2.375 2 C 2.332031 1.800781 2.375 1.613281 2.5 1.4375 C 1.757812 1.414062 1.210938 1.25 0.859375 0.9375 C 0.671875 0.78125 0.570312 0.582031 0.5625 0.34375 C 0.550781 0.113281 0.644531 -0.113281 0.84375 -0.34375 Z M 0.84375 -0.34375 "/></g></g></g><g fill="#16a637" fill-opacity="1"><g transform="translate(16.652224, 34.02598)"><g><path d="M 3.84375 0.5 C 3.632812 0.894531 3.285156 1.117188 2.796875 1.171875 C 2.316406 1.234375 1.851562 1.144531 1.40625 0.90625 C 0.96875 0.664062 0.671875 0.378906 0.515625 0.046875 C 0.359375 -0.273438 0.316406 -0.503906 0.390625 -0.640625 C 0.441406 -0.734375 0.628906 -0.816406 0.953125 -0.890625 C 1.273438 -0.972656 1.519531 -1 1.6875 -0.96875 C 1.875 -0.5625 1.929688 -0.0546875 1.859375 0.546875 C 2.109375 0.648438 2.289062 0.601562 2.40625 0.40625 C 2.550781 0.125 2.515625 -0.414062 2.296875 -1.21875 C 2.085938 -2.019531 2.066406 -2.578125 2.234375 -2.890625 C 2.398438 -3.203125 2.664062 -3.367188 3.03125 -3.390625 C 3.40625 -3.421875 3.789062 -3.328125 4.1875 -3.109375 C 4.59375 -2.898438 4.851562 -2.664062 4.96875 -2.40625 C 5.09375 -2.15625 5.085938 -1.910156 4.953125 -1.671875 C 4.828125 -1.429688 4.460938 -1.203125 3.859375 -0.984375 C 3.878906 -0.921875 3.898438 -0.832031 3.921875 -0.71875 C 3.953125 -0.613281 3.972656 -0.429688 3.984375 -0.171875 C 3.992188 0.0859375 3.945312 0.3125 3.84375 0.5 Z M 3.75 -1.46875 C 4.132812 -1.539062 4.382812 -1.6875 4.5 -1.90625 C 4.625 -2.132812 4.535156 -2.332031 4.234375 -2.5 C 4.078125 -2.582031 3.9375 -2.613281 3.8125 -2.59375 C 3.695312 -2.582031 3.617188 -2.539062 3.578125 -2.46875 C 3.503906 -2.332031 3.535156 -2.066406 3.671875 -1.671875 Z M 3.75 -1.46875 "/></g></g></g><g fill="#16a637" fill-opacity="1"><g transform="translate(20.911106, 36.291784)"><g><path d="M 3.390625 -6.375 C 3.441406 -6.59375 3.46875 -6.753906 3.46875 -6.859375 C 4.0625 -6.898438 4.59375 -6.851562 5.0625 -6.71875 C 5.101562 -6.644531 5.09375 -6.484375 5.03125 -6.234375 C 4.90625 -5.785156 4.421875 -4.789062 3.578125 -3.25 C 4.242188 -3.507812 4.785156 -3.582031 5.203125 -3.46875 C 5.472656 -3.394531 5.648438 -3.253906 5.734375 -3.046875 C 5.816406 -2.847656 5.820312 -2.613281 5.75 -2.34375 C 5.675781 -2.070312 5.472656 -1.648438 5.140625 -1.078125 C 4.816406 -0.515625 4.625 -0.117188 4.5625 0.109375 C 4.5 0.347656 4.492188 0.472656 4.546875 0.484375 C 4.597656 0.503906 4.753906 0.476562 5.015625 0.40625 L 5.15625 0.375 L 5.25 0.78125 C 5.175781 0.8125 5.078125 0.859375 4.953125 0.921875 C 4.828125 0.984375 4.609375 1.039062 4.296875 1.09375 C 3.984375 1.15625 3.707031 1.15625 3.46875 1.09375 C 3.238281 1.03125 3.078125 0.90625 2.984375 0.71875 C 2.890625 0.539062 2.875 0.328125 2.9375 0.078125 C 3.007812 -0.171875 3.210938 -0.609375 3.546875 -1.234375 C 3.890625 -1.859375 4.085938 -2.253906 4.140625 -2.421875 C 4.191406 -2.597656 4.144531 -2.707031 4 -2.75 C 3.820312 -2.789062 3.578125 -2.78125 3.265625 -2.71875 C 2.421875 -1.15625 1.929688 -0.128906 1.796875 0.359375 C 1.484375 0.398438 0.976562 0.320312 0.28125 0.125 C 0.300781 0 0.328125 -0.101562 0.359375 -0.1875 C 0.441406 -0.476562 0.921875 -1.425781 1.796875 -3.03125 C 2.679688 -4.644531 3.210938 -5.757812 3.390625 -6.375 Z M 3.390625 -6.375 "/></g></g></g><g fill="#16a637" fill-opacity="1"><g transform="translate(26.994969, 37.74949)"><g><path d="M 2.796875 -3.875 C 2.773438 -3.582031 2.644531 -3.082031 2.40625 -2.375 C 2.164062 -1.664062 2.035156 -1.195312 2.015625 -0.96875 C 2.003906 -0.738281 2.03125 -0.617188 2.09375 -0.609375 C 2.132812 -0.609375 2.304688 -0.664062 2.609375 -0.78125 L 2.734375 -0.859375 L 2.890625 -0.46875 C 2.816406 -0.40625 2.722656 -0.335938 2.609375 -0.265625 C 2.503906 -0.191406 2.300781 -0.09375 2 0.03125 C 1.695312 0.164062 1.421875 0.222656 1.171875 0.203125 C 0.921875 0.179688 0.726562 0.09375 0.59375 -0.0625 C 0.46875 -0.21875 0.414062 -0.425781 0.4375 -0.6875 C 0.457031 -0.945312 0.578125 -1.40625 0.796875 -2.0625 C 1.015625 -2.71875 1.128906 -3.144531 1.140625 -3.34375 C 1.160156 -3.632812 1.085938 -3.914062 0.921875 -4.1875 L 0.828125 -4.328125 L 0.859375 -4.46875 C 1.242188 -4.539062 1.859375 -4.550781 2.703125 -4.5 C 2.785156 -4.382812 2.816406 -4.175781 2.796875 -3.875 Z M 1.6875 -5.734375 C 1.550781 -5.878906 1.488281 -6.066406 1.5 -6.296875 C 1.519531 -6.535156 1.632812 -6.738281 1.84375 -6.90625 C 2.0625 -7.070312 2.296875 -7.144531 2.546875 -7.125 C 2.804688 -7.113281 3 -7.03125 3.125 -6.875 C 3.257812 -6.726562 3.316406 -6.539062 3.296875 -6.3125 C 3.285156 -6.082031 3.171875 -5.882812 2.953125 -5.71875 C 2.742188 -5.550781 2.515625 -5.476562 2.265625 -5.5 C 2.023438 -5.519531 1.832031 -5.597656 1.6875 -5.734375 Z M 1.6875 -5.734375 "/></g></g></g><g fill="#1e3148" fill-opacity="1"><g transform="translate(30.67961, 37.913989)"><g/></g></g><g fill="#ffffff" fill-opacity="1"><g transform="translate(34.165716, 38.099874)"><g><path d="M 7.90625 -2.921875 C 7.65625 -2.828125 7.421875 -2.835938 7.203125 -2.953125 C 6.984375 -3.066406 6.816406 -3.273438 6.703125 -3.578125 C 6.585938 -3.878906 6.4375 -4.679688 6.25 -5.984375 C 6.0625 -7.296875 5.90625 -8.117188 5.78125 -8.453125 C 5.65625 -8.796875 5.457031 -8.914062 5.1875 -8.8125 C 4.832031 -8.675781 4.5 -8.363281 4.1875 -7.875 C 4.28125 -7.488281 4.382812 -6.804688 4.5 -5.828125 C 4.613281 -4.847656 4.71875 -4.128906 4.8125 -3.671875 C 4.90625 -3.222656 4.992188 -2.878906 5.078125 -2.640625 C 5.171875 -2.410156 5.226562 -2.269531 5.25 -2.21875 C 5.050781 -1.976562 4.617188 -1.726562 3.953125 -1.46875 L 3.765625 -1.40625 C 3.546875 -1.96875 3.332031 -2.984375 3.125 -4.453125 C 2.914062 -5.929688 2.742188 -6.847656 2.609375 -7.203125 C 2.472656 -7.554688 2.285156 -7.6875 2.046875 -7.59375 C 1.679688 -7.457031 1.332031 -7.117188 1 -6.578125 C 1.0625 -6.203125 1.15625 -5.554688 1.28125 -4.640625 C 1.5625 -2.578125 1.78125 -1.335938 1.9375 -0.921875 C 1.738281 -0.691406 1.304688 -0.453125 0.640625 -0.203125 L 0.453125 -0.125 C 0.367188 -0.4375 0.207031 -1.382812 -0.03125 -2.96875 C -0.269531 -4.550781 -0.488281 -5.71875 -0.6875 -6.46875 C -0.726562 -6.570312 -0.8125 -6.6875 -0.9375 -6.8125 C -1.0625 -6.9375 -1.1875 -7.03125 -1.3125 -7.09375 L -1.453125 -7.203125 L -1.484375 -7.34375 C -1.148438 -7.601562 -0.53125 -7.910156 0.375 -8.265625 C 0.519531 -8.140625 0.640625 -7.953125 0.734375 -7.703125 C 0.753906 -7.648438 0.789062 -7.507812 0.84375 -7.28125 C 1.351562 -8.257812 1.910156 -8.863281 2.515625 -9.09375 C 2.785156 -9.195312 3.046875 -9.191406 3.296875 -9.078125 C 3.554688 -8.972656 3.773438 -8.78125 3.953125 -8.5 C 4.472656 -9.46875 5.015625 -10.0625 5.578125 -10.28125 C 5.910156 -10.40625 6.226562 -10.394531 6.53125 -10.25 C 6.832031 -10.101562 7.0625 -9.828125 7.21875 -9.421875 C 7.375 -9.023438 7.53125 -8.203125 7.6875 -6.953125 C 7.84375 -5.710938 8.007812 -4.863281 8.1875 -4.40625 C 8.257812 -4.21875 8.332031 -4.140625 8.40625 -4.171875 C 8.457031 -4.191406 8.59375 -4.316406 8.8125 -4.546875 L 8.9375 -4.65625 L 9.265625 -4.375 C 9.078125 -4.019531 8.867188 -3.710938 8.640625 -3.453125 C 8.410156 -3.203125 8.164062 -3.023438 7.90625 -2.921875 Z M 0.765625 -4.75 C 0.765625 -4.738281 0.769531 -4.722656 0.78125 -4.703125 Z M 0.765625 -4.75 "/></g></g></g><g fill="#ffffff" fill-opacity="1"><g transform="translate(44.644912, 33.198494)"><g><path d="M -0.625 -4.75 C -0.4375 -4.519531 -0.1875 -4.0625 0.125 -3.375 C 0.445312 -2.6875 0.679688 -2.253906 0.828125 -2.078125 C 0.972656 -1.898438 1.066406 -1.832031 1.109375 -1.875 C 1.140625 -1.90625 1.222656 -2.0625 1.359375 -2.34375 L 1.40625 -2.5 L 1.78125 -2.3125 C 1.769531 -2.226562 1.75 -2.117188 1.71875 -1.984375 C 1.695312 -1.847656 1.617188 -1.628906 1.484375 -1.328125 C 1.347656 -1.035156 1.179688 -0.8125 0.984375 -0.65625 C 0.796875 -0.5 0.597656 -0.429688 0.390625 -0.453125 C 0.191406 -0.484375 0.0078125 -0.597656 -0.15625 -0.796875 C -0.320312 -1.003906 -0.546875 -1.421875 -0.828125 -2.046875 C -1.109375 -2.671875 -1.3125 -3.054688 -1.4375 -3.203125 C -1.632812 -3.441406 -1.890625 -3.601562 -2.203125 -3.6875 L -2.359375 -3.71875 L -2.421875 -3.84375 C -2.203125 -4.164062 -1.769531 -4.59375 -1.125 -5.125 C -0.976562 -5.101562 -0.8125 -4.976562 -0.625 -4.75 Z M -2.6875 -5.34375 C -2.894531 -5.351562 -3.070312 -5.445312 -3.21875 -5.625 C -3.363281 -5.8125 -3.414062 -6.035156 -3.375 -6.296875 C -3.34375 -6.566406 -3.226562 -6.78125 -3.03125 -6.9375 C -2.832031 -7.101562 -2.632812 -7.175781 -2.4375 -7.15625 C -2.238281 -7.132812 -2.066406 -7.035156 -1.921875 -6.859375 C -1.773438 -6.679688 -1.722656 -6.457031 -1.765625 -6.1875 C -1.804688 -5.925781 -1.921875 -5.71875 -2.109375 -5.5625 C -2.296875 -5.40625 -2.488281 -5.332031 -2.6875 -5.34375 Z M -2.6875 -5.34375 "/></g></g></g><g fill="#ffffff" fill-opacity="1"><g transform="translate(47.506148, 30.775776)"><g><path d="M -1.015625 -5.78125 C -0.878906 -5.65625 -0.765625 -5.476562 -0.671875 -5.25 C -0.859375 -5.0625 -1.035156 -4.875 -1.203125 -4.6875 L -1.328125 -4.546875 C -0.359375 -3.253906 0.265625 -2.476562 0.546875 -2.21875 C 0.703125 -2.082031 0.8125 -2.046875 0.875 -2.109375 C 0.9375 -2.179688 1.023438 -2.421875 1.140625 -2.828125 L 1.546875 -2.71875 C 1.515625 -1.90625 1.316406 -1.296875 0.953125 -0.890625 C 0.785156 -0.703125 0.59375 -0.601562 0.375 -0.59375 C 0.15625 -0.582031 -0.0507812 -0.660156 -0.25 -0.828125 C -0.445312 -1.003906 -0.644531 -1.222656 -0.84375 -1.484375 C -1.050781 -1.742188 -1.289062 -2.066406 -1.5625 -2.453125 C -1.84375 -2.847656 -2.078125 -3.160156 -2.265625 -3.390625 C -2.429688 -3.179688 -2.546875 -3.019531 -2.609375 -2.90625 C -2.679688 -2.957031 -2.769531 -3.03125 -2.875 -3.125 C -2.988281 -3.21875 -3.078125 -3.304688 -3.140625 -3.390625 L -2.6875 -3.890625 C -2.9375 -4.191406 -3.191406 -4.457031 -3.453125 -4.6875 L -3.71875 -4.890625 L -3.734375 -4.90625 C -3.503906 -5.457031 -3.222656 -5.914062 -2.890625 -6.28125 C -2.765625 -6.207031 -2.617188 -6.097656 -2.453125 -5.953125 C -2.296875 -5.816406 -2.039062 -5.503906 -1.6875 -5.015625 Z M -1.015625 -5.78125 "/></g></g></g><g fill="#ffffff" fill-opacity="1"><g transform="translate(50.163953, 27.713892)"><g><path d="M 0.3125 -0.4375 L 0.265625 -0.375 C 0.210938 -0.394531 0.101562 -0.457031 -0.0625 -0.5625 C -0.238281 -0.664062 -0.65625 -1.03125 -1.3125 -1.65625 C -1.976562 -2.28125 -2.363281 -2.625 -2.46875 -2.6875 C -2.664062 -2.8125 -2.925781 -2.859375 -3.25 -2.828125 L -3.40625 -2.8125 L -3.53125 -2.890625 C -3.414062 -3.273438 -3.140625 -3.828125 -2.703125 -4.546875 C -2.492188 -4.523438 -2.25 -4.429688 -1.96875 -4.265625 C -2.039062 -4.398438 -2.101562 -4.625 -2.15625 -4.9375 C -2.207031 -5.257812 -2.164062 -5.535156 -2.03125 -5.765625 C -1.832031 -6.085938 -1.441406 -6.070312 -0.859375 -5.71875 C -0.847656 -5.675781 -0.828125 -5.609375 -0.796875 -5.515625 C -0.773438 -5.429688 -0.757812 -5.28125 -0.75 -5.0625 C -0.738281 -4.84375 -0.757812 -4.65625 -0.8125 -4.5 C -0.820312 -4.488281 -0.9375 -4.484375 -1.15625 -4.484375 C -1.382812 -4.484375 -1.515625 -4.460938 -1.546875 -4.421875 C -1.585938 -4.242188 -1.582031 -4.054688 -1.53125 -3.859375 C -0.4375 -2.796875 0.289062 -2.15625 0.65625 -1.9375 C 0.789062 -1.851562 0.882812 -1.800781 0.9375 -1.78125 C 0.90625 -1.519531 0.695312 -1.070312 0.3125 -0.4375 Z M 0.3125 -0.4375 "/></g></g></g><g fill="#ffffff" fill-opacity="1"><g transform="translate(52.683626, 23.49455)"><g><path d="M -3.0625 -4.71875 C -3.070312 -4.738281 -3.148438 -4.8125 -3.296875 -4.9375 C -3.191406 -5.25 -2.945312 -5.640625 -2.5625 -6.109375 C -2.070312 -5.753906 -1.539062 -5.421875 -0.96875 -5.109375 C -0.394531 -4.796875 0.0195312 -4.59375 0.28125 -4.5 C 0.550781 -4.414062 0.695312 -4.398438 0.71875 -4.453125 C 0.738281 -4.503906 0.722656 -4.675781 0.671875 -4.96875 L 0.625 -5.125 L 1.046875 -5.171875 C 1.085938 -5.097656 1.128906 -5 1.171875 -4.875 C 1.222656 -4.75 1.269531 -4.523438 1.3125 -4.203125 C 1.363281 -3.890625 1.359375 -3.628906 1.296875 -3.421875 C 1.148438 -2.992188 0.878906 -2.8125 0.484375 -2.875 C 0.710938 -2.320312 0.765625 -1.867188 0.640625 -1.515625 C 0.523438 -1.160156 0.296875 -0.910156 -0.046875 -0.765625 C -0.398438 -0.628906 -0.863281 -0.660156 -1.4375 -0.859375 C -2.351562 -1.160156 -3.007812 -1.582031 -3.40625 -2.125 C -3.800781 -2.675781 -3.910156 -3.210938 -3.734375 -3.734375 C -3.609375 -4.117188 -3.382812 -4.445312 -3.0625 -4.71875 Z M 0 -2.40625 C 0.0507812 -2.570312 0.0390625 -2.773438 -0.03125 -3.015625 C -0.957031 -3.390625 -1.835938 -3.867188 -2.671875 -4.453125 C -2.828125 -4.285156 -2.929688 -4.128906 -2.984375 -3.984375 C -3.054688 -3.742188 -2.882812 -3.457031 -2.46875 -3.125 C -2.050781 -2.789062 -1.554688 -2.523438 -0.984375 -2.328125 C -0.410156 -2.140625 -0.0820312 -2.164062 0 -2.40625 Z M 0 -2.40625 "/></g></g></g></svg>