<!DOCTYPE svg PUBLIC "-//W3C//DTD SVG 1.1//EN" "http://www.w3.org/Graphics/SVG/1.1/DTD/svg11.dtd">
<!-- Uploaded to: SVG Repo, www.svgrepo.com, Transformed by: SVG Repo Mixer Tools -->
<svg width="216px" height="216px" viewBox="-6.4 -6.4 44.80 44.80" version="1.1" xmlns="http://www.w3.org/2000/svg" xmlns:xlink="http://www.w3.org/1999/xlink" xmlns:sketch="http://www.bohemiancoding.com/sketch/ns" fill="#000000">
<g id="SVGRepo_bgCarrier" stroke-width="0" transform="translate(0,0), scale(1)">
<rect x="-6.4" y="-6.4" width="44.80" height="44.80" rx="22.4" fill="#f1f1f1" strokewidth="0"/>
</g>
<g id="SVGRepo_tracerCarrier" stroke-linecap="round" stroke-linejoin="round" stroke="#CCCCCC" stroke-width="0.128"/>
<g id="SVGRepo_iconCarrier"> <title>book-album</title> <desc>Created with Sketch Beta.</desc> <defs> </defs> <g id="Page-1" stroke="none" stroke-width="1" fill="none" fill-rule="evenodd" sketch:type="MSPage"> <g id="Icon-Set-Filled" sketch:type="MSLayerGroup" transform="translate(-414.000000, -101.000000)" fill="#8D5CF6"> <path d="M418,101 C415.791,101 414,102.791 414,105 L414,126 C414,128.209 415.885,129.313 418,130 L429,133 L429,104 C423.988,102.656 418,101 418,101 L418,101 Z M442,101 C442,101 436.212,102.594 430.951,104 L431,104 L431,133 C436.617,131.501 442,130 442,130 C444.053,129.469 446,128.209 446,126 L446,105 C446,102.791 444.209,101 442,101 L442,101 Z" id="book-album" sketch:type="MSShapeGroup"> </path> </g> </g> </g>
</svg>